<?xml version="1.0" standalone="no"?>
<!DOCTYPE svg PUBLIC "-//W3C//DTD SVG 1.1//EN" "http://www.w3.org/Graphics/SVG/1.1/DTD/svg11.dtd" >
<svg xmlns="http://www.w3.org/2000/svg">
<metadata>Generated by IcoMoon</metadata>
<defs>
<font id="icomoon" horiz-adv-x="1024">
<font-face units-per-em="1024" ascent="960" descent="-64" />
<missing-glyph horiz-adv-x="1024" />
<glyph unicode="&#x20;" horiz-adv-x="512" d="" />
<glyph unicode="&#xe900;" glyph-name="icon" horiz-adv-x="652" d="M325.818 960c-179.698 0-325.818-144.977-325.818-323.895 0-90.389 46.896-194.83 109.542-297.586 62.646-102.757 141.41-203.601 207.499-284.43 1.052-1.335 2.387-2.411 3.906-3.152 1.519-0.739 3.184-1.123 4.871-1.123s3.351 0.384 4.871 1.123c1.519 0.741 2.854 1.817 3.906 3.152 66.089 80.829 144.853 181.672 207.5 284.43 62.646 102.756 109.542 207.196 109.542 297.586 0 178.918-146.121 323.895-325.818 323.895zM325.818 937.246c167.781 0 303.348-134.754 303.348-301.141 0-82.264-44.367-184.35-106.031-285.497-59.098-96.936-133.273-192.212-197.317-270.921-64.045 78.708-138.22 173.985-197.317 270.921-61.665 101.147-106.031 203.232-106.031 285.497 0 166.386 135.567 301.141 303.348 301.141zM325.818 812.096c-99.147 0-179.762-81.634-179.762-182.036 0-100.4 80.614-182.036 179.762-182.036s179.762 81.635 179.762 182.036c0 100.402-80.615 182.036-179.762 182.036zM325.818 789.342c87.003 0 157.292-71.177 157.292-159.282 0-88.103-70.289-159.28-157.292-159.28s-157.292 71.177-157.292 159.28c0 88.105 70.289 159.282 157.292 159.282zM188.891-41.196c-2.98-0.281-5.727-1.752-7.636-4.085-1.909-2.335-2.825-5.342-2.546-8.358 0.279-3.018 1.731-5.8 4.035-7.732 2.305-1.934 5.274-2.862 8.253-2.579h269.643c1.488-0.022 2.966 0.257 4.347 0.819s2.64 1.396 3.699 2.456c1.061 1.058 1.903 2.32 2.478 3.711 0.573 1.391 0.869 2.884 0.869 4.392 0 1.506-0.296 2.999-0.869 4.39-0.575 1.391-1.417 2.653-2.478 3.712-1.059 1.058-2.318 1.892-3.699 2.454s-2.86 0.842-4.347 0.819h-269.643c-0.7 0.067-1.406 0.067-2.106 0z" />
<glyph unicode="&#xe901;" glyph-name="svg" horiz-adv-x="833" d="M741.762 213.478h-538.627c-16.505 0-29.836 13.331-29.836 29.837v204.564c0 16.503 13.331 29.834 29.836 29.834h538.785c16.505 0 29.837-13.331 29.837-29.834v-204.564c-0.16-16.505-13.488-29.837-29.994-29.837zM203.134 457.716c-5.396 0-9.839-4.444-9.839-9.838v-204.564c0-5.396 4.444-9.84 9.839-9.84h538.785c5.396 0 9.84 4.444 9.84 9.84v204.564c0 5.394-4.444 9.838-9.84 9.838h-538.785zM303.433 267.752h-45.070c-5.556 0-9.999 4.444-9.999 9.999v130.134c0 5.553 4.444 9.997 9.999 9.997h45.070c40.15 0 73.002-33.644 73.002-75.064 0-41.422-32.692-75.066-73.002-75.066zM268.359 287.749h35.073c29.201 0 53.005 24.757 53.005 55.070 0 30.31-23.804 55.067-53.005 55.067h-35.073v-110.137zM471.969 267.752c-41.42 0-75.064 33.644-75.064 75.066 0 41.42 33.644 75.064 75.064 75.064 41.422 0 75.066-33.644 75.066-75.064 0-41.422-33.644-75.066-75.066-75.066zM471.969 397.886c-30.31 0-55.067-24.757-55.067-55.067 0-30.313 24.757-55.070 55.067-55.070 30.313 0 55.070 24.757 55.070 55.070 0 30.31-24.757 55.067-55.070 55.067zM640.829 267.752c-41.422 0-75.066 33.644-75.066 75.066 0 41.262 33.644 74.907 75.066 74.907 23.328 0 45.070-10.633 59.354-29.201 3.332-4.287 2.539-10.633-1.746-13.967-4.287-3.332-10.633-2.539-13.967 1.746-10.473 13.648-26.343 21.425-43.641 21.425-30.472 0-55.229-24.757-55.229-55.070 0-30.47 24.757-55.227 55.229-55.227 17.139 0 33.009 7.935 43.641 21.583 3.334 4.284 9.523 5.237 13.967 1.905 4.441-3.334 5.237-9.523 1.903-13.967-14.441-18.568-36.183-29.201-59.511-29.201zM770.803-55.679h-615.597c-34.596 0-62.528 28.091-62.528 62.528v814.765c0 34.596 28.090 62.686 62.528 62.686h495.46c5.556 0 9.997-4.444 9.997-9.998s-4.441-9.998-9.997-9.998h-495.46c-23.487 0-42.69-19.203-42.69-42.849v-814.763c0-23.488 19.203-42.691 42.69-42.691h615.438c23.647 0 42.848 19.204 42.848 42.691v685.582c0 5.553 4.444 9.997 9.999 9.997 5.553 0 9.997-4.444 9.997-9.997v-685.582c0-34.28-28.091-62.371-62.685-62.371zM823.494 682.594h-145.527c-20.473 0-37.295 16.663-37.295 37.293v154.575c0 4.126 2.541 7.776 6.189 9.205 3.81 1.428 8.094 0.635 10.952-2.38l172.823-181.869c2.698-2.858 3.491-7.142 1.905-10.792-1.429-3.651-5.080-6.030-9.047-6.030zM660.668 849.386v-129.657c0-9.523 7.778-17.298 17.298-17.298h122.358l-139.657 146.956zM102.679 31.13h-31.74c-39.040 0-70.939 31.899-70.939 70.939v786.992c0 39.040 31.74 70.939 70.939 70.939h605.123c39.038 0 70.937-31.899 70.937-70.939v-103.314c0-5.555-4.441-9.998-9.997-9.998-5.553 0-9.997 4.443-9.997 9.998v103.314c0 28.090-22.854 50.942-50.943 50.942h-605.123c-28.090 0-50.942-22.853-50.942-50.942v-786.992c0-28.089 22.853-50.943 50.942-50.943h31.74c5.555 0 9.998-4.444 9.998-9.997-0.159-5.556-4.602-9.999-9.998-9.999z" />
<glyph unicode="&#xe902;" glyph-name="Vector" horiz-adv-x="1558" d="M1542.629 52.852l-141.419 141.419c38.2 57.714 53.604 127.555 43.226 195.985-10.378 68.425-45.804 130.56-99.399 174.349s-121.544 66.113-190.669 62.642c-69.12-3.471-134.491-32.491-183.43-81.43-48.943-48.941-77.962-114.307-81.43-183.432-3.473-69.124 18.851-137.074 62.642-190.669 43.787-53.595 105.922-89.017 174.352-99.399 68.425-10.378 138.271 5.027 195.985 43.226l141.419-141.419c10.498-10.142 24.563-15.756 39.161-15.627 14.599 0.125 28.561 5.979 38.885 16.304s16.179 24.287 16.304 38.885c0.129 14.599-5.485 28.663-15.627 39.166zM1002.175 347.546c0 33.035 9.799 65.331 28.151 92.797 18.352 27.47 44.442 48.876 74.961 61.52s64.102 15.95 96.505 9.505c32.398-6.447 62.161-22.354 85.522-45.715 23.361-23.356 39.268-53.119 45.715-85.522 6.442-32.398 3.134-65.981-9.505-96.505-12.644-30.52-34.050-56.605-61.52-74.961-27.47-18.352-59.762-28.147-92.797-28.147-44.299 0-86.786 17.595-118.107 48.92-31.325 31.325-48.925 73.808-48.925 118.107zM612.445 514.587h-556.769c-14.766 0-28.928-5.868-39.369-16.308s-16.307-24.603-16.307-39.371c0-14.763 5.866-28.926 16.307-39.371 10.441-10.44 24.603-16.304 39.369-16.304h556.769c14.763 0 28.926 5.864 39.366 16.304 10.445 10.445 16.308 24.607 16.308 39.371 0 14.768-5.864 28.93-16.308 39.371-10.44 10.44-24.603 16.308-39.366 16.308zM612.445 69.173h-556.769c-14.766 0-28.928-5.868-39.369-16.308s-16.307-24.603-16.307-39.371c0-14.768 5.866-28.926 16.307-39.371 10.441-10.44 24.603-16.304 39.369-16.304h556.769c14.763 0 28.926 5.864 39.366 16.304 10.445 10.445 16.308 24.603 16.308 39.371s-5.864 28.93-16.308 39.371c-10.44 10.44-24.603 16.308-39.366 16.308zM55.677 848.647h1169.21c14.768 0 28.93 5.866 39.371 16.307s16.308 24.603 16.308 39.37c0 14.766-5.868 28.928-16.308 39.369s-24.603 16.307-39.371 16.307h-1169.21c-14.766 0-28.928-5.866-39.369-16.307s-16.307-24.603-16.307-39.369c0-14.767 5.866-28.928 16.307-39.37s24.603-16.307 39.369-16.307z" />
<glyph unicode="&#xe903;" glyph-name="Vector-1" d="M958.171 616.632c-19.383-5.67-30.501-25.966-24.869-45.349 11.668-39.901 17.554-81.373 17.554-123.284 0-241.995-196.863-438.857-438.857-438.857s-438.857 196.863-438.857 438.857c0 241.993 196.864 438.857 438.857 438.857 107.374 0 208.861-38.29 288.841-108.434l-330.606-508.965-224.073 240.055c-13.824 14.775-36.901 15.579-51.712 1.791-14.738-13.786-15.543-36.937-1.792-51.674l256-274.286c7.68-8.265 19.090-12.399 29.915-11.483 11.229 0.986 21.358 7.057 27.502 16.492l372.774 573.88c9.397 14.482 7.387 33.573-4.827 45.787-96.695 96.731-225.28 149.979-362.022 149.979-282.331 0-512-229.669-512-512s229.669-512 512-512c282.331 0 512 229.669 512 512 0 48.824-6.875 97.207-20.48 143.761-5.632 19.348-25.708 30.65-45.349 24.871z" />
<glyph unicode="&#xe904;" glyph-name="Vector-2" horiz-adv-x="1558" d="M1558.261 466.548c0 12.021-7.27 27.977-14.643 35.724l-415.53 441.516c-19.403 20.057-50.83 22.382-73.452 2.026-20.217-18.198-20.725-53.69-2.026-73.451l333.561-353.863h-1334.229c-28.688 0-51.942-23.254-51.942-51.944 0-28.685 23.255-51.944 51.942-51.944h1334.229l-333.561-353.863c-18.695-19.759-17.368-54.374 2.026-73.448 20.48-20.133 54.348-18.339 73.452 2.026l415.53 441.513c12.208 11.976 14.438 23.512 14.643 35.706z" />
<glyph unicode="&#xe905;" glyph-name="Vector-3" d="M1009.213 21.127l-229.198 229.475c59.146 75.258 94.881 169.021 94.881 271.421 0 241.813-195.926 437.977-437.447 437.977s-437.45-196.164-437.45-437.977c0-241.81 195.928-437.977 437.45-437.977 103.509 0 198.393 35.779 272.325 96.233l229.2-229.475c9.857-9.868 22.18-14.804 34.503-14.804 12.32 0 24.643 4.936 35.735 14.804 19.716 19.74 19.716 50.583 0 70.322zM98.58 522.023c0 187.528 151.567 339.278 338.87 339.278 187.301 0 338.868-151.749 338.868-339.278 0-187.527-151.567-339.278-338.868-339.278-187.303 0-338.87 151.751-338.87 339.278z" />
<glyph unicode="&#xe906;" glyph-name="Vector-4" horiz-adv-x="585" d="M564.607 940.753c-6.164 6.102-13.485 10.942-21.542 14.244-8.060 3.303-16.697 5.002-25.422 5.002-8.722 0-17.361-1.7-25.419-5.002s-15.38-8.143-21.545-14.244l-451.212-445.757c-6.172-6.094-11.068-13.332-14.408-21.299s-5.060-16.504-5.060-25.129c0-8.625 1.719-17.165 5.060-25.132s8.237-15.202 14.408-21.299l451.212-445.756c6.109-6.343 13.441-11.416 21.563-14.915s16.87-5.357 25.732-5.459c8.859-0.105 17.648 1.545 25.852 4.851 8.207 3.309 15.655 8.207 21.917 14.406 6.258 6.2 11.2 13.572 14.532 21.691 3.329 8.116 4.982 16.811 4.863 25.568-0.123 8.76-2.016 17.405-5.571 25.427-3.552 8.025-8.695 15.263-15.126 21.29l-404.248 399.328 404.248 399.326c6.185 6.084 11.094 13.313 14.447 21.274 3.356 7.961 5.091 16.498 5.105 25.122s-1.688 17.167-5.015 25.139c-3.327 7.973-8.21 15.219-14.371 21.324z" />
<glyph unicode="&#xe907;" glyph-name="Vector-5" horiz-adv-x="1086" d="M119.435-37.413h847.19c31.676 0 62.054 12.583 84.455 34.98 22.398 22.398 34.98 52.779 34.98 84.455v622.387c0 31.676-12.583 62.055-34.98 84.453-22.401 22.398-52.779 34.982-84.455 34.982h-162.828v37.688c0 26.115-10.373 51.161-28.84 69.627s-43.514 28.84-69.629 28.84c-26.115 0-51.16-10.374-69.626-28.84s-28.84-43.512-28.84-69.627v-37.688h-127.665v37.688c0 26.115-10.373 51.161-28.84 69.627s-43.511 28.84-69.626 28.84c-26.115 0-51.163-10.374-69.629-28.84s-28.839-43.512-28.839-69.627v-37.688h-162.83c-31.676 0-62.055-12.583-84.453-34.982s-34.982-52.777-34.982-84.453v-622.387c0-31.676 12.583-62.058 34.982-84.455s52.777-34.98 84.453-34.98zM966.625 15.667h-847.19c-17.598 0-34.475 6.991-46.918 19.434-12.443 12.446-19.434 29.321-19.434 46.921v472.163h979.895v-472.163c0-17.6-6.988-34.475-19.434-46.921-12.443-12.443-29.321-19.434-46.918-19.434zM659.943 861.532c0 12.037 4.782 23.581 13.293 32.092s20.055 13.293 32.092 13.293c12.037 0 23.583-4.781 32.092-13.293 8.512-8.512 13.293-20.056 13.293-32.092v-37.688h-90.77v37.688zM335.348 861.532c0 5.96 1.173 11.862 3.454 17.368s5.623 10.51 9.84 14.724c4.214 4.214 9.216 7.557 14.724 9.838 5.505 2.281 11.407 3.455 17.368 3.455 5.958 0 11.86-1.174 17.368-3.455 5.505-2.281 10.51-5.624 14.724-9.838s7.556-9.218 9.837-14.724c2.284-5.506 3.457-11.408 3.457-17.368v-37.688h-90.77v37.688zM119.435 770.762h162.83v-27.868c0-26.128 10.37-51.187 28.833-69.674s43.508-28.891 69.635-28.926c7.038 0 13.79 2.796 18.767 7.773s7.773 11.728 7.773 18.767c0 7.039-2.796 13.79-7.773 18.767s-11.729 7.774-18.767 7.774c-12.049 0.035-23.592 4.846-32.101 13.379s-13.284 20.090-13.284 32.139v27.868h271.515v-27.868c0-26.128 10.367-51.187 28.83-69.674s43.508-28.891 69.635-28.926c7.041 0 13.79 2.796 18.767 7.773s7.776 11.728 7.776 18.767c0 7.039-2.799 13.79-7.776 18.767s-11.726 7.774-18.767 7.774c-12.049 0.035-23.592 4.846-32.101 13.379-8.505 8.533-13.284 20.090-13.284 32.139v27.868h306.682c17.597 0 34.475-6.991 46.918-19.434 12.446-12.444 19.434-29.321 19.434-46.918v-97.14h-979.895v97.14c0 17.598 6.991 34.475 19.434 46.918s29.321 19.434 46.918 19.434zM722.314 449.483c2.687-2.228 4.909-4.965 6.538-8.052s2.631-6.467 2.951-9.945c0.323-3.475-0.047-6.982-1.083-10.314s-2.718-6.429-4.956-9.11l-186.982-224.672c-2.42-2.911-5.44-5.269-8.85-6.917-3.41-1.651-7.134-2.548-10.923-2.638-3.671 0.009-7.298 0.782-10.659 2.268-3.357 1.483-6.371 3.649-8.847 6.358l-94.487 102.316c-4.574 5.219-6.92 12.021-6.538 18.95s3.46 13.433 8.58 18.119c5.12 4.686 11.869 7.18 18.807 6.948 6.935-0.233 13.504-3.171 18.299-8.186l73.253-79.624 167.474 201.048c2.228 2.687 4.965 4.909 8.052 6.538 3.088 1.626 6.467 2.631 9.945 2.951 3.475 0.32 6.982-0.050 10.314-1.083 3.333-1.036 6.429-2.721 9.11-4.956z" />
<glyph unicode="&#xe908;" glyph-name="Vector-6" horiz-adv-x="1120" d="M1120 651.743c0 31.145-12.371 61.014-34.394 83.036s-51.894 34.395-83.037 34.395h-130.643v73.395c0 31.145-12.371 61.014-34.394 83.036s-51.891 34.395-83.037 34.395h-629.725c-33.091 0-64.827-13.145-88.226-36.545s-36.544-55.135-36.544-88.226v-777.981c0-31.146 12.372-61.014 34.395-83.037s51.892-34.394 83.036-34.394h885.139c31.142 0 61.014 12.371 83.037 34.394s34.394 51.891 34.394 83.037v594.495zM124.771 901.284h629.725c15.571 0 30.506-6.186 41.517-17.197s17.197-25.946 17.197-41.518v-73.395h-688.439c-17.519 0-34.32 6.959-46.708 19.347s-19.347 29.189-19.347 46.708c0 17.519 6.959 34.32 19.347 46.708s29.189 19.347 46.708 19.347zM1061.283 57.248c0-15.574-6.186-30.509-17.197-41.52s-25.946-17.197-41.517-17.197h-886.606c-15.572 0-30.507 6.186-41.518 17.197s-17.197 25.946-17.197 41.52v672.293h2.936l10.276-5.871h2.936l14.679-5.872h2.936l11.743-2.936h899.817c15.571 0 30.506-6.186 41.517-17.197s17.197-25.946 17.197-41.518v-598.899zM852.867 453.578c-17.421 0-34.448-5.165-48.931-14.842-14.483-9.68-25.773-23.434-32.438-39.526s-8.41-33.802-5.011-50.886c3.398-17.085 11.786-32.778 24.102-45.094 12.317-12.32 28.013-20.707 45.098-24.106 17.082-3.398 34.79-1.654 50.886 5.011 16.093 6.666 29.846 17.955 39.523 32.438 9.68 14.483 14.845 31.514 14.845 48.931 0 23.36-9.28 45.76-25.795 62.278-16.518 16.515-38.918 25.795-62.278 25.795zM852.867 336.147c-5.808 0-11.482 1.722-16.31 4.947s-8.592 7.811-10.813 13.174c-2.221 5.366-2.803 11.267-1.67 16.963s3.93 10.925 8.035 15.030c4.106 4.106 9.334 6.902 15.030 8.035s11.597 0.554 16.963-1.67c5.363-2.221 9.949-5.984 13.174-10.813s4.947-10.502 4.947-16.31c0-7.786-3.091-15.254-8.598-20.758-5.504-5.507-12.973-8.598-20.758-8.598z" />
<glyph unicode="&#xe909;" glyph-name="Vector-7" d="M923.698 255.386c-16.486 12.75-38.757 21.966-70.349 21.966-61.133 60.928-122.008 89.24-178.586 89.24-48.997 0-94.72-21.197-134.296-60.826-9.114-9.114-15.667-12.595-21.402-12.595-19.968 0-32.821 41.062-120.832 41.062-67.379 0-85.352 45.313-85.352 85.299 0 56.934 113.766 0 170.651 56.934 56.934 56.832 61.797 85.299 142.234 85.299 56.882 0 103.322 145.152 85.349 199.168-20.582 61.44-85.349 108.134-141.312 108.134-21.656 0-41.931-6.963-57.803-22.835-28.467-28.467-85.352-42.701-142.234-42.701-40.705 0-81.050 7.68-111.309 22.118 74.86 50.607 163.182 77.592 253.542 77.466 250.93 0 455.115-204.186 455.115-455.117-0.108-66.619-14.933-132.391-43.418-192.614zM699.749 33.845c-13.157 31.13-37.733 60.006-62.207 84.582-16.027 16.024-34.714 25.343-49.562 32.768-6.305 3.107-12.586 6.267-18.842 9.471 0 0-0.257 0.922-0.257 2.867 0 24.321-9.421 51.61-25.343 76.902 16.282 5.837 28.365 16.384 37.119 25.088 29.237 29.184 60.981 44.187 94.106 44.187 43.008 0 90.829-25.088 138.342-72.602l16.691-16.641h23.552c20.737 0 33.587-6.808 42.291-16.229-47.514-74.486-115.539-133.658-195.891-170.394zM512-7.115c-250.931 0-455.117 204.186-455.117 455.115 0 79.258 20.48 153.907 56.32 218.779 46.848-13.107 103.168-46.899 85.914-133.427-37.018-184.832 85.35-256 199.117-256 56.832 0 113.766-73.576 113.766-113.819 0-56.832 56.882-56.832 85.349-85.299 28.467-28.517 42.856-49.254 49.819-64.869-43.763-13.616-89.337-20.521-135.168-20.48zM200.397 778.24c57.651-18.022 146.33-31.59 169.37-31.59 36.966 0 128.819 5.683 182.477 59.392 2.867 2.816 7.525 6.144 17.56 6.144 30.363 0 74.088-29.645 87.245-69.325 8.040-25.498-16.998-105.933-37.733-124.262-78.336-1.483-108.646-28.467-148.328-72.602-7.935-8.549-16.741-18.432-27.648-29.336-11.776-11.776-40.858-11.776-66.458-11.776-32.818 0-119.858 0-120.882-83.713-8.755 27.496-9.062 61.338-1.126 100.864 13.773 69.222-8.499 114.586-29.696 140.288-11.264 13.824-50.483 37.222-80.384 53.658 16.604 22.4 35.215 43.239 55.603 62.259zM512 960c-282.778 0-512-229.325-512-512 0-282.776 229.222-512 512-512 55.012 0.056 109.653 9.032 161.792 26.574 122.122 40.691 224.458 125.847 286.667 238.539 41.729 75.595 63.59 160.54 63.541 246.886 0 282.675-229.326 512-512 512z" />
<glyph unicode="&#xe90a;" glyph-name="Vector-8" horiz-adv-x="1280" d="M102.592 960h1074.818c28.237 0 53.903-12.289 72.485-32.073 18.549-19.749 30.106-47.114 30.106-77.179v-794.83c0-30.065-11.557-57.428-30.106-77.177-18.582-19.785-44.248-32.073-72.485-32.073h-1074.818c-28.237 0-53.905 12.288-72.486 32.073-18.548 19.749-30.106 47.111-30.106 77.177v794.83c0 30.065 11.558 57.43 30.106 77.179 18.581 19.784 44.249 32.073 72.486 32.073zM491.129 640.777c-11.396 0-20.648 9.849-20.648 21.982s9.253 21.982 20.648 21.982h297.713c11.392 0 20.645-9.849 20.645-21.982s-9.253-21.982-20.645-21.982h-297.713zM450.161 780.406c-11.396 0-20.645 9.849-20.645 21.982s9.249 21.982 20.645 21.982h379.677c11.396 0 20.645-9.849 20.645-21.982s-9.249-21.982-20.645-21.982h-379.677zM1163.769-9.37l-402.516 428.581-51.156-54.455c-19.767-20.37-45.484-30.585-71.153-30.585-26.236 0-52.506 10.609-72.437 31.832l-49.108 52.29-401.655-427.663h1048.026zM790.451 450.297l421.175-448.45c3.269 2.355 6.294 5.018 9.073 7.98 11.103 11.82 18.011 28.16 18.011 46.091v794.83c0 17.932-6.908 34.271-18.011 46.093-1.788 1.904-3.69 3.704-5.691 5.366l-424.558-451.91zM68.080 2.055l420.123 447.323-424.365 451.824c-1.577-1.367-3.089-2.821-4.536-4.362-11.103-11.822-18.012-28.161-18.012-46.093v-794.83c0-17.931 6.909-34.271 18.012-46.091 2.682-2.856 5.625-5.471 8.778-7.771zM108.298 916.036l487.37-518.914c11.9-12.668 27.589-18.984 43.275-18.984 15.312 0 30.61 5.987 42.364 17.949l488.313 519.949h-1061.322z" />
<glyph unicode="&#xe90b;" glyph-name="Vector-9" horiz-adv-x="874" d="M788.465 960h-453.625c-5.020 0-9.561-2.032-12.905-5.378l-241.392-241.391c-3.346-3.347-5.377-7.888-5.377-12.905v-209.485h-12.308c-34.655 0-62.857-28.202-62.857-62.856v-166.825c0-34.654 28.202-62.856 62.857-62.856h12.308v-168.495c0-47.324 38.479-85.681 85.682-85.681h627.617c47.321 0 85.681 38.477 85.681 85.681v844.51c0 47.203-38.48 85.682-85.681 85.682zM316.676 897.74v-129.897c0-27.127-22.106-49.234-49.234-49.234h-130.016l179.25 179.131zM62.857 234.871c-14.579 0-26.41 11.831-26.41 26.409v166.705c0 14.578 11.83 26.409 26.41 26.409h401.881c14.578 0 26.409-11.831 26.409-26.409v-166.825c0-14.578-11.831-26.409-26.409-26.409l-401.881 0.12zM837.699 29.928c0-27.129-22.108-49.234-49.234-49.234h-627.498c-27.127 0-49.234 22.106-49.234 49.234v168.495h353.006c34.654 0 62.856 28.202 62.856 62.856v166.705c0 34.654-28.202 62.856-62.856 62.856h-353.006v191.321h155.708c47.324 0 85.684 38.479 85.684 85.682v155.709h435.34c27.126 0 49.234-22.108 49.234-49.234v-844.39zM166.357 407.667c-4.899 1.316-15.296 1.913-31.19 1.913h-42.064v-130.016h26.29v48.995h17.089c11.831 0 20.913 0.597 27.246 1.911 4.66 0.957 9.202 3.107 13.623 6.214s8.126 7.41 10.994 12.788c2.868 5.497 4.302 12.188 4.302 20.075 0 10.397-2.51 18.762-7.529 25.335-5.019 6.571-11.233 10.874-18.762 12.785zM162.652 359.152c-2.032-2.87-4.66-5.020-8.246-6.334-3.465-1.316-10.396-2.033-20.793-2.033h-14.34v36.807h12.667c9.441 0 15.774-0.24 18.881-0.837 4.302-0.717 7.768-2.747 10.516-5.734 2.748-3.107 4.182-6.933 4.182-11.711 0.12-3.826-0.956-7.29-2.868-10.158zM306.398 395.119c-5.497 5.737-11.951 9.681-19.598 11.951-5.617 1.673-13.861 2.51-24.736 2.51h-47.92v-130.016h49.354c9.681 0 17.448 0.954 23.182 2.747 7.767 2.51 13.864 5.974 18.405 10.397 5.974 5.854 10.635 13.502 13.861 22.943 2.63 7.767 3.944 16.971 3.944 27.606 0 12.188-1.434 22.466-4.303 30.713-2.627 8.484-6.811 15.415-12.188 21.149zM293.254 320.792c-1.793-5.857-4.064-10.038-6.931-12.548-2.75-2.51-6.334-4.303-10.637-5.377-3.224-0.837-8.484-1.196-15.892-1.196h-19.599v86.041h11.831c10.754 0 17.925-0.36 21.509-1.196 4.9-1.074 8.964-3.107 12.191-6.094 3.224-2.987 5.615-7.17 7.408-12.548s2.63-13.145 2.63-23.182c0.12-10.158-0.717-18.165-2.51-23.899zM345.478 279.682h26.289v55.211h54.255v21.986h-54.255v30.713h62.859v21.989h-89.148v-129.898z" />
<glyph unicode="&#xe90c;" glyph-name="Vector-10" d="M941.706 877.43c-53.263 53.255-123.939 82.57-199.224 82.57-75.159 0-145.832-29.316-198.969-82.442l-195.382-195.224c-12.036-12.162-22.917-25.218-32.265-38.916-13.444-9.219-26.375-19.716-38.283-31.75l-195.255-195.095c-53.263-53.254-82.583-123.919-82.327-198.937-0.128-75.144 29.192-145.809 82.455-199.194 53.135-53.125 123.81-82.441 199.095-82.441s145.962 29.316 199.096 82.441l195.128 195.227c12.162 12.159 22.788 25.217 32.007 38.66 13.572 9.345 26.633 19.971 38.666 32.004l195.256 195.224c109.726 109.708 109.726 288.291 0 398.129v-0.256zM293.332 361.782c13.698-28.678 32.265-55.176 54.927-77.707 22.534-22.531 48.909-40.966 77.59-54.79l-78.231-78.219c-17.668-17.665-41.1-27.396-66.194-27.396s-48.526 9.731-66.195 27.396-27.4 41.22-27.4 66.311c0 25.094 9.731 48.52 27.271 66.186l78.23 78.219zM664.763 287.018c-7.937-12.033-17.414-23.681-28.169-34.436l-195.125-195.095c-42.765-42.756-99.483-66.186-159.917-66.186-60.433 0-117.153 23.555-159.917 66.186-42.892 42.885-66.451 99.597-66.322 160.019 0 60.296 23.43 117.008 66.194 159.893l147.241 147.219c-1.92-13.569-2.945-27.396-2.945-41.349 0-21.381 2.561-42.631 7.298-63.497l-97.051-97.037c-28.168-28.163-43.532-65.545-43.532-105.358 0-39.81 15.492-77.192 43.66-105.355 28.040-28.037 65.426-43.526 105.246-43.526s77.207 15.489 105.373 43.526l195.128 195.095c15.363 15.234 26.759 33.157 33.801 52.742 20.869 54.664 7.683 116.751-33.672 158.1-24.585 24.579-56.592 39.175-89.881 42.631l63.889 63.88c30.088-11.267 57.745-29.061 80.662-51.975 26.633-26.627 46.349-59.784 56.975-95.756 19.079-64.775 8.578-133.904-28.935-189.721zM481.16 416.955c-22.791 22.788-32.007 55.688-25.094 86.797 30.983 7.168 64.018-2.051 86.935-24.965 22.791-22.785 31.882-55.685 24.839-86.794-30.983-6.913-63.889 2.177-86.68 24.962zM730.703 534.092c-13.701 28.675-32.265 55.044-54.802 77.575-22.534 22.531-49.038 41.095-77.716 54.919l78.228 78.219c36.492 36.485 95.899 36.485 132.517 0 36.492-36.485 36.492-95.885 0-132.368l-78.228-78.219v-0.126zM902.653 518.6l-147.239-147.219c5.12 34.439 3.713 70.027-4.353 104.846l96.923 96.908c58.128 58.119 58.128 152.595 0 210.586-58.128 58.119-152.62 58.247-210.748 0l-195.382-195.223c-15.363-15.363-26.887-33.286-33.93-52.871-20.615-54.664-7.171-116.625 34.058-157.845 24.582-24.579 56.463-39.172 89.752-42.628l-63.76-63.754c-30.091 11.267-57.745 28.932-80.536 51.847-26.759 26.756-46.478 59.913-57.104 95.884-6.144 20.74-9.219 42.373-9.219 64.263 0 44.038 12.42 86.54 36.364 123.152l1.407 2.177c8.066 12.162 17.543 23.809 28.298 34.564l195.253 195.224c42.765 42.629 99.483 66.184 159.917 66.184s117.28-23.555 160.045-66.312c42.762-42.757 66.194-99.468 66.194-159.892s-23.558-117.136-66.194-159.892h0.255z" />
<glyph unicode="&#xe90d;" glyph-name="Vector-11" horiz-adv-x="969" d="M961.578 759.199l-193.73 193.73c-2.253 2.247-4.926 4.029-7.868 5.242s-6.094 1.835-9.277 1.829h-466.017c-24.107-0.026-47.22-9.61-64.27-26.652s-26.647-40.149-26.686-64.256v-393.417h-130.768c-16.699 0-32.713-6.634-44.521-18.44-11.808-11.809-18.441-27.822-18.441-44.522v-213.103c0-16.7 6.633-32.713 18.441-44.522 11.808-11.806 27.822-18.44 44.521-18.44h130.768v-102.821c0.038-24.108 9.635-47.215 26.686-64.257s40.163-26.627 64.27-26.652h593.007c24.106 0.025 47.22 9.609 64.271 26.652s26.646 40.149 26.685 64.257v708.226c0.006 3.182-0.617 6.334-1.829 9.276s-2.995 5.616-5.242 7.869zM774.919 877.326l111.054-111.056h-111.054v111.056zM48.432 199.611v213.103c0 3.852 1.531 7.55 4.256 10.273 2.725 2.726 6.42 4.257 10.274 4.257h552.13c3.852 0 7.55-1.53 10.273-4.257 2.726-2.723 4.257-6.421 4.257-10.273v-213.103c0-3.852-1.53-7.55-4.257-10.273-2.723-2.726-6.421-4.257-10.273-4.257h-552.13c-1.908 0-3.797 0.376-5.56 1.107-1.763 0.728-3.365 1.799-4.714 3.149-1.349 1.348-2.419 2.95-3.15 4.713s-1.106 3.653-1.106 5.56zM877.693-8.649h-593.007c-11.266 0.014-22.067 4.492-30.038 12.451-7.971 7.962-12.46 18.759-12.486 30.025v102.821h372.93c8.269 0 16.456 1.627 24.094 4.793 7.638 3.163 14.58 7.802 20.427 13.647 5.845 5.848 10.484 12.789 13.647 20.427 3.166 7.638 4.793 15.825 4.793 24.094v213.103c0 16.7-6.634 32.713-18.44 44.522-11.809 11.806-27.822 18.44-44.522 18.44h-372.93v393.417c0.026 11.266 4.516 22.062 12.486 30.023s18.772 12.439 30.038 12.452h441.801v-169.514c0-6.423 2.552-12.582 7.093-17.123s10.699-7.093 17.123-7.093h169.514v-684.010c-0.025-11.267-4.517-22.063-12.487-30.025-7.971-7.96-18.77-12.437-30.036-12.451zM605.405 766.27h-242.162c-6.424 0-12.581-2.551-17.123-7.093s-7.093-10.701-7.093-17.123c0-6.422 2.552-12.582 7.093-17.123s10.699-7.093 17.123-7.093h242.162c6.424 0 12.581 2.551 17.123 7.093s7.093 10.701 7.093 17.123c0 6.423-2.552 12.582-7.093 17.123s-10.699 7.093-17.123 7.093zM605.405 620.973h-242.162c-6.424 0-12.581-2.552-17.123-7.093s-7.093-10.699-7.093-17.123c0-6.424 2.552-12.581 7.093-17.123s10.699-7.093 17.123-7.093h242.162c6.424 0 12.581 2.552 17.123 7.093s7.093 10.699 7.093 17.123c0 6.424-2.552 12.581-7.093 17.123s-10.699 7.093-17.123 7.093zM254.932 306.162c0 19.268-7.654 37.747-21.278 51.372-13.624 13.622-32.103 21.277-51.37 21.277h-48.432c-6.423 0-12.582-2.552-17.123-7.093s-7.093-10.699-7.093-17.123v-96.865c0-6.424 2.551-12.581 7.093-17.123s10.701-7.093 17.123-7.093h48.432c19.268 0 37.746 7.655 51.37 21.277 13.624 13.625 21.278 32.104 21.278 51.372zM182.284 281.946h-24.216v48.432h24.216c6.422 0 12.582-2.552 17.123-7.093s7.093-10.699 7.093-17.123c0-6.424-2.551-12.581-7.093-17.123s-10.701-7.093-17.123-7.093zM352.461 233.514c14.366 0 28.412 4.262 40.359 12.244s21.26 19.329 26.757 32.605c5.499 13.273 6.938 27.88 4.135 41.973s-9.722 27.036-19.882 37.199c-10.16 10.16-23.104 17.079-37.196 19.882-14.092 2.801-28.7 1.364-41.976-4.135-13.273-5.499-24.62-14.809-32.605-26.757-7.982-11.948-12.241-25.993-12.241-40.362 0-19.268 7.652-37.747 21.277-51.372 13.625-13.622 32.104-21.277 51.372-21.277zM352.461 330.378c4.788 0 9.471-1.42 13.453-4.082 3.983-2.66 7.085-6.443 8.917-10.868 1.835-4.423 2.314-9.293 1.378-13.99-0.933-4.697-3.241-9.011-6.626-12.399-3.388-3.388-7.702-5.693-12.399-6.628-4.699-0.933-9.567-0.454-13.993 1.378s-8.206 4.937-10.868 8.92c-2.66 3.983-4.079 8.662-4.079 13.453 0 6.424 2.549 12.581 7.091 17.123s10.702 7.093 17.126 7.093zM521.786 233.505c11.881 0.122 23.541 3.235 33.903 9.055 2.959 1.403 5.602 3.39 7.769 5.845 2.17 2.452 3.816 5.319 4.846 8.427s1.417 6.393 1.14 9.653c-0.277 3.263-1.212 6.435-2.748 9.327-1.536 2.889-3.645 5.438-6.194 7.492-2.552 2.054-5.491 3.567-8.643 4.453s-6.451 1.121-9.698 0.695c-3.246-0.426-6.371-1.506-9.188-3.174-3.678-2.161-7.863-3.316-12.13-3.34s-8.466 1.077-12.169 3.197c-3.703 2.117-6.783 5.178-8.923 8.87-2.142 3.689-3.268 7.882-3.268 12.15s1.126 8.458 3.268 12.15c2.139 3.692 5.22 6.75 8.923 8.87s7.901 3.221 12.169 3.197c4.268-0.028 8.452-1.179 12.13-3.343 2.817-1.669 5.942-2.748 9.188-3.174s6.545-0.188 9.698 0.695c3.152 0.886 6.091 2.402 8.643 4.453 2.549 2.054 4.658 4.602 6.194 7.495 1.536 2.889 2.471 6.061 2.748 9.324s-0.111 6.548-1.14 9.656c-1.030 3.108-2.676 5.975-4.846 8.427-2.167 2.452-4.81 4.439-7.769 5.842-10.996 6.025-23.375 9.072-35.909 8.842-12.534-0.232-24.792-3.733-35.558-10.157-10.766-6.426-19.666-15.554-25.821-26.475-6.152-10.924-9.346-23.264-9.263-35.801 0-19.268 7.652-37.747 21.277-51.372s32.104-21.277 51.372-21.277z" />
<glyph unicode="&#xe90e;" glyph-name="Vector-12" d="M512 960c-282.315 0-512-229.685-512-512s229.685-512 512-512c282.314 0 512 229.686 512 512 0 282.315-229.686 512-512 512zM512-41.738c-270.043 0-489.739 219.695-489.739 489.738s219.696 489.739 489.739 489.739c270.043 0 489.738-219.696 489.738-489.739s-219.695-489.738-489.738-489.738zM856.822 347.279c-5.843 1.902-12.133-1.299-14.035-7.13-46.77-143.538-179.706-239.973-330.787-239.973-191.792 0-347.826 156.031-347.826 347.826 0 151.081 96.435 284.015 239.973 330.787 5.843 1.902 9.038 8.185 7.13 14.033-1.902 5.837-8.157 9.027-14.032 7.131-152.723-49.766-255.332-191.202-255.332-351.95 0-204.066 166.021-370.088 370.087-370.088 160.75 0 302.185 102.608 351.952 255.33 1.908 5.849-1.287 12.133-7.13 14.035zM619.862 778.79c105.314-34.277 188.65-117.613 222.928-222.93 1.527-4.702 5.892-7.689 10.582-7.689 1.141 0 2.3 0.178 3.446 0.553 5.843 1.902 9.043 8.18 7.136 14.029-36.469 112.059-125.142 200.733-237.202 237.2-5.837 1.897-12.124-1.293-14.026-7.136-1.908-5.848 1.293-12.125 7.136-14.027zM870.956 459.129h-347.826v347.827c0 6.147-4.982 11.131-11.129 11.131s-11.129-4.984-11.129-11.131v-358.956c0-6.147 4.982-11.129 11.129-11.129h358.956c6.147 0 11.132 4.982 11.132 11.129s-4.985 11.129-11.132 11.129z" />
<glyph unicode="&#xe90f;" glyph-name="Vector-13" horiz-adv-x="629" d="M303.077 837.363h107.991c9.22 0 16.727 7.507 16.727 16.727s-7.508 16.727-16.727 16.727h-107.991c-9.221 0-16.727-7.507-16.727-16.727s7.506-16.727 16.727-16.727zM217.246 837.363h22.562c9.22 0 16.727 7.507 16.727 16.727s-7.508 16.727-16.727 16.727h-22.562c-9.22 0-16.727-7.507-16.727-16.727s7.508-16.727 16.727-16.727zM340.906 74.328h-44.264c-9.221 0-16.727-7.506-16.727-16.727s7.506-16.727 16.727-16.727h44.264c9.221 0 16.727 7.506 16.727 16.727s-7.506 16.727-16.727 16.727zM628.772 769.475c0 1.247-0.147 2.458-0.406 3.629v93.714c0 51.364-41.819 93.182-93.184 93.182h-442c-51.364 0-93.182-41.818-93.182-93.182v-833c0-51.363 41.818-93.182 93.182-93.182h442c51.365 0 93.184 41.819 93.184 93.182v732.032c0.259 1.168 0.406 2.38 0.406 3.625zM33.455 752.75h561.455v-578.14h-561.455v578.14zM93.182 926.545h442c32.924 0 59.728-26.805 59.728-59.728v-80.615h-561.455v80.615c0 32.925 26.805 59.728 59.728 59.728zM535.182-25.911h-442c-32.923 0-59.728 26.805-59.728 59.728v107.339h561.455v-107.339c0-32.924-26.804-59.728-59.728-59.728z" />
<glyph unicode="&#xe910;" glyph-name="Vector-14" d="M512 960c-282.315 0-512-229.685-512-512 0-282.317 229.685-512 512-512 282.317 0 512 229.683 512 512 0 282.315-229.683 512-512 512zM98.192 448c0 96.437 33.245 185.189 88.752 255.635l580.679-580.679c-70.434-55.518-159.185-88.763-255.623-88.763-228.184 0-413.808 185.625-413.808 413.807zM837.056 192.366l-580.691 580.691c70.446 55.506 159.198 88.752 255.635 88.752 228.182 0 413.807-185.625 413.807-413.808 0-96.437-33.245-185.189-88.752-255.634z" />
<glyph unicode="&#xe911;" glyph-name="Vector-15" d="M512-64c-282.319 0-512 229.68-512 512s229.681 512 512 512c282.32 0 512-229.681 512-512s-229.68-512-512-512zM512 938.009c-270.19 0-490.009-219.819-490.009-490.009 0-270.201 219.819-490.010 490.009-490.010 270.201 0 490.010 219.821 490.010 490.010s-219.809 490.009-490.010 490.009zM647.227 567.112l-16.115 16.115-119.112-119.123-119.109 119.123-16.115-16.115 119.12-119.112-119.12-119.112 16.115-16.115 119.109 119.123 119.112-119.123 16.115 16.115-119.123 119.112 119.123 119.112z" />
<glyph unicode="&#xe912;" glyph-name="Vector-16" horiz-adv-x="1378" d="M38.436 297.807c-111.724 106.142 44.69 273.727 156.414 173.174l251.381-234.622 737.378 692.693c111.726 100.552 268.138-67.035 156.416-173.173l-815.588-759.726c-44.69-44.69-111.726-44.69-156.415 0l-329.587 301.655z" />
<glyph unicode="&#xe913;" glyph-name="Vector-17" horiz-adv-x="1156" d="M1055.704 689.347h-111.514l-163.387 253.355c-11.34 17.517-34.697 22.564-52.27 11.282-17.52-11.282-22.62-34.695-11.284-52.27l136.912-212.37h-552.355l136.911 212.37c11.281 17.517 6.236 40.931-11.281 52.27-17.52 11.282-40.934 6.236-52.274-11.282l-163.271-253.355h-111.513c-30.784 0-59.414-13.833-78.576-37.927s-26.135-55.105-19.162-85.095l123.192-530.918c10.601-45.75 50.796-77.669 97.737-77.669h708.995c46.939 0 87.132 31.975 97.736 77.669l123.191 530.977c6.973 29.99-0.056 61.001-19.162 85.094-19.218 24.037-47.9 37.869-78.627 37.869zM1079.798 583.389l-123.191-530.977c-2.61-11.281-12.529-19.159-24.153-19.159h-708.935c-11.565 0-21.487 7.878-24.152 19.159l-123.191 530.977c-2.381 10.148 1.927 17.517 4.705 21.032 2.778 3.518 9.014 9.355 19.388 9.355h955.309c10.432 0 16.612-5.837 19.39-9.355 2.89-3.515 7.211-10.884 4.829-21.032zM578.018 514.392c-20.863 0-37.812-16.896-37.812-37.812v-306.14c0-20.863 16.893-37.815 37.812-37.815 20.863 0 37.815 16.896 37.815 37.815v306.14c0 20.86-16.952 37.812-37.815 37.812zM842.551 513.827c-20.579 3.343-40.081-10.375-43.596-30.898l-52.158-306.14c-3.515-20.579 10.319-40.081 30.898-43.596 2.154-0.34 4.307-0.509 6.405-0.509 18.085 0 34.073 13.038 37.247 31.463l52.155 306.14c3.458 20.523-10.372 40.025-30.951 43.54zM357.085 482.928c-3.515 20.579-23.129 34.297-43.595 30.895-20.58-3.515-34.412-23.017-30.897-43.596l52.159-306.14c3.115-18.422 19.103-31.463 37.244-31.463 2.098 0 4.255 0.172 6.408 0.512 20.579 3.515 34.41 23.014 30.895 43.593l-52.214 306.199z" />
</font>
</defs>
</svg>
