<svg width="46" height="46" viewBox="0 0 46 46" fill="none" xmlns="http://www.w3.org/2000/svg">
<path d="M23 46C10.3177 46 0 35.6823 0 23C0 10.3177 10.3177 0 23 0C35.6823 0 46 10.3177 46 23C46 35.6823 35.6823 46 23 46ZM23 0.987878C10.8626 0.987878 0.987878 10.8626 0.987878 23C0.987878 35.138 10.8626 45.0121 23 45.0121C35.138 45.0121 45.0121 35.1374 45.0121 23C45.0121 10.8626 35.138 0.987878 23 0.987878Z" fill="#B6C5D7"/>
<path d="M29.0747 17.6493L28.3508 16.9254L23.0001 22.2766L17.6494 16.9254L16.9255 17.6493L22.2768 23L16.9255 28.3507L17.6494 29.0746L23.0001 23.7234L28.3508 29.0746L29.0747 28.3507L23.7235 23L29.0747 17.6493Z" fill="#B6C5D7"/>
</svg>
