<svg width="194" height="153" viewBox="0 0 194 153" fill="none" xmlns="http://www.w3.org/2000/svg">
<path d="M48.8407 122.725C48.8144 123.407 48.5251 124.053 48.0337 124.527C47.5422 125.001 46.8866 125.266 46.2044 125.266H46.1023C38.4647 124.97 31.0095 122.844 24.3629 119.065C17.7162 115.286 12.0721 109.966 7.9046 103.55C3.73708 97.1344 1.1678 89.8111 0.412522 82.1953C-0.342753 74.5794 0.738035 66.8932 3.56412 59.7823C6.3902 52.6713 10.8791 46.3432 16.6537 41.3293C22.4284 36.3154 29.3203 32.7621 36.7506 30.968C44.1809 29.1738 51.9327 29.191 59.355 31.0182C66.7772 32.8455 73.6533 36.4294 79.4056 41.4689C79.9324 41.9305 80.2544 42.5827 80.3009 43.282C80.3475 43.9814 80.1146 44.6706 79.6536 45.198C79.1927 45.7254 78.5413 46.0479 77.8429 46.0945C77.1445 46.1411 76.4562 45.9079 75.9294 45.4463C70.8129 40.9635 64.6969 37.7755 58.0949 36.1499C51.493 34.5243 44.5978 34.5087 37.9886 36.1043C31.3794 37.6999 25.249 40.8602 20.1123 45.3198C14.9755 49.7793 10.9825 55.4079 8.46838 61.7329C5.95429 68.0579 4.99258 74.8946 5.66403 81.6689C6.33547 88.4432 8.62046 94.9572 12.3271 100.664C16.0337 106.371 21.0538 111.104 26.9657 114.465C32.8777 117.827 39.5088 119.719 46.3023 119.983C47.0021 120.009 47.6626 120.313 48.1386 120.827C48.6147 121.342 48.8672 122.024 48.8407 122.725ZM48.0967 80.2834H47.9529C47.4646 80.2833 46.9846 80.156 46.5603 79.9139C46.1359 79.6718 45.7818 79.3233 45.5328 78.9026C45.2838 78.4819 45.1485 78.0035 45.1401 77.5146C45.1317 77.0257 45.2506 76.5429 45.485 76.1139C45.7194 75.6849 46.0613 75.3244 46.4771 75.0679C46.8929 74.8113 47.3682 74.6675 47.8563 74.6507C48.3443 74.6338 48.8284 74.7445 49.2608 74.9718C49.6933 75.1991 50.0591 75.5352 50.3225 75.947C50.7074 76.5235 51.303 76.9254 51.9811 77.0663C52.6591 77.2072 53.3653 77.0758 53.9475 76.7003C54.5297 76.3248 54.9412 75.7353 55.0935 75.0589C55.2458 74.3824 55.1266 73.6732 54.7616 73.0839C53.7802 71.553 52.3116 70.3987 50.5934 69.8076V54.1984C50.5741 53.5103 50.2876 52.8569 49.7947 52.377C49.3018 51.8971 48.6414 51.6287 47.954 51.6287C47.2665 51.6287 46.6061 51.8971 46.1133 52.377C45.6204 52.8569 45.3338 53.5103 45.3145 54.1984V69.8243C43.5055 70.4489 41.9762 71.6955 40.9985 73.3426C40.0207 74.9896 39.6578 76.9305 39.9743 78.8201C40.2907 80.7098 41.266 82.4259 42.7268 83.6636C44.1877 84.9012 46.0394 85.5801 47.9529 85.5797C48.0842 85.5797 48.2113 85.5797 48.3406 85.5692C48.6868 85.5532 49.0264 85.4691 49.3402 85.3216C49.6539 85.1741 49.9355 84.9662 50.169 84.7097C50.4025 84.4533 50.5833 84.1533 50.701 83.8269C50.8187 83.5005 50.871 83.154 50.855 82.8074C50.839 82.4607 50.7549 82.1206 50.6077 81.8064C50.4604 81.4923 50.2527 81.2103 49.9966 80.9765C49.7405 80.7427 49.4409 80.5617 49.1149 80.4439C48.7889 80.326 48.4429 80.2736 48.0967 80.2896V80.2834ZM71.0402 49.5594C70.0949 49.5626 69.1716 49.8455 68.3864 50.3728C67.6013 50.9 66.9894 51.6479 66.6276 52.5224C66.2659 53.3969 66.1705 54.3591 66.3534 55.2878C66.5363 56.2164 66.9894 57.0702 67.6557 57.7418C68.0138 58.1009 68.4676 58.3491 68.9629 58.4568C69.4582 58.5645 69.9739 58.5271 70.4485 58.349C70.9231 58.171 71.3365 57.8598 71.6391 57.4527C71.9418 57.0456 72.1209 56.5599 72.1552 56.0535C72.6325 56.2219 73.1482 56.2494 73.6407 56.1327C74.1332 56.016 74.5819 55.76 74.9332 55.3952C75.2846 55.0305 75.5238 54.5722 75.6225 54.0752C75.7211 53.5781 75.675 53.0631 75.4897 52.5915C75.1363 51.6982 74.5233 50.9317 73.7301 50.3911C72.9368 49.8506 71.9997 49.5608 71.0402 49.5594ZM28.2523 97.1969C29.0719 98.1108 29.5103 99.3046 29.4774 100.533C29.4445 101.76 28.9426 102.929 28.0752 103.797C27.2078 104.666 26.0408 105.169 24.8145 105.202C23.5882 105.235 22.396 104.795 21.4832 103.975C20.9987 103.539 20.608 103.009 20.3348 102.417C20.0616 101.826 19.9116 101.184 19.8942 100.533C19.8767 99.8808 19.992 99.2323 20.2331 98.6266C20.4741 98.021 20.8359 97.4708 21.2964 97.0098C21.7568 96.5488 22.3062 96.1865 22.9111 95.9451C23.5159 95.7037 24.1636 95.5882 24.8145 95.6057C25.4654 95.6232 26.1059 95.7734 26.697 96.0469C27.288 96.3205 27.8172 96.7118 28.2523 97.1969ZM24.5197 100.934L25.2158 100.237C25.1235 100.145 24.9983 100.093 24.8677 100.093C24.7372 100.093 24.612 100.145 24.5197 100.237C24.4274 100.33 24.3755 100.455 24.3755 100.586C24.3755 100.717 24.4274 100.842 24.5197 100.934ZM25.3533 100.586C25.353 100.455 25.3014 100.33 25.2095 100.237L24.5135 100.934C24.5825 101.001 24.6697 101.046 24.7641 101.064C24.8585 101.082 24.9561 101.072 25.0448 101.035C25.1334 100.998 25.2093 100.935 25.263 100.856C25.3168 100.776 25.346 100.682 25.3471 100.586H25.3533ZM28.2523 57.7418C27.5825 58.4144 26.7284 58.8729 25.7982 59.0592C24.868 59.2455 23.9035 59.1513 23.0268 58.7884C22.1502 58.4255 21.4007 57.8104 20.8734 57.0208C20.3461 56.2312 20.0646 55.3027 20.0646 54.3528C20.0646 53.4029 20.3461 52.4744 20.8734 51.6848C21.4007 50.8952 22.1502 50.2801 23.0268 49.9172C23.9035 49.5543 24.868 49.4601 25.7982 49.6464C26.7284 49.8327 27.5825 50.2912 28.2523 50.9638C28.6984 51.4079 29.0524 51.936 29.294 52.5176C29.5356 53.0992 29.66 53.7229 29.66 54.3528C29.66 54.9827 29.5356 55.6064 29.294 56.188C29.0524 56.7696 28.6984 57.2976 28.2523 57.7418ZM25.3596 54.3528C25.3593 54.2222 25.3076 54.097 25.2158 54.0043C25.147 53.9355 25.0593 53.8887 24.9639 53.8697C24.8686 53.8508 24.7697 53.8606 24.6799 53.8979C24.59 53.9352 24.5133 53.9983 24.4593 54.0793C24.4052 54.1602 24.3764 54.2554 24.3764 54.3528C24.3764 54.4502 24.4052 54.5454 24.4593 54.6263C24.5133 54.7073 24.59 54.7704 24.6799 54.8077C24.7697 54.845 24.8686 54.8548 24.9639 54.8359C25.0593 54.8169 25.147 54.7701 25.2158 54.7013C25.3076 54.6086 25.3593 54.4834 25.3596 54.3528ZM45.3145 42.7147V46.8403C45.3338 47.5284 45.6204 48.1818 46.1133 48.6617C46.6061 49.1416 47.2665 49.41 47.954 49.41C48.6414 49.41 49.3018 49.1416 49.7947 48.6617C50.2876 48.1818 50.5741 47.5284 50.5934 46.8403V42.7147C50.5741 42.0266 50.2876 41.3732 49.7947 40.8933C49.3018 40.4135 48.6414 40.145 47.954 40.145C47.2665 40.145 46.6061 40.4135 46.1133 40.8933C45.6204 41.3732 45.3338 42.0266 45.3145 42.7147ZM13.2449 74.8326C12.5577 74.852 11.9052 75.1389 11.4259 75.6325C10.9467 76.126 10.6786 76.7872 10.6786 77.4756C10.6786 78.1639 10.9467 78.8252 11.4259 79.3187C11.9052 79.8122 12.5577 80.0992 13.2449 80.1185H17.3651C18.0523 80.0992 18.7049 79.8122 19.1841 79.3187C19.6633 78.8252 19.9315 78.1639 19.9315 77.4756C19.9315 76.7872 19.6633 76.126 19.1841 75.6325C18.7049 75.1389 18.0523 74.852 17.3651 74.8326H13.2449ZM106.692 86.1577V87.5621C105.114 87.8306 103.672 88.6235 102.599 89.8131C101.526 91.0026 100.884 92.5195 100.778 94.1189V97.8292C100.778 103.046 105.488 104.384 108.605 105.271C112.057 106.252 112.609 106.702 112.609 107.641V111.352C112.609 111.898 111.333 112.946 109.333 112.946C107.332 112.946 106.057 111.903 106.057 111.352V108.305C106.067 107.952 106.006 107.6 105.877 107.271C105.749 106.941 105.556 106.641 105.31 106.388C105.064 106.134 104.77 105.933 104.445 105.795C104.12 105.658 103.77 105.587 103.417 105.587C103.064 105.587 102.715 105.658 102.39 105.795C102.064 105.933 101.77 106.134 101.524 106.388C101.278 106.641 101.085 106.941 100.957 107.271C100.829 107.6 100.768 107.952 100.778 108.305V111.352C100.884 112.951 101.526 114.468 102.599 115.657C103.672 116.847 105.114 117.64 106.692 117.908V119.327C106.692 120.029 106.97 120.701 107.466 121.197C107.961 121.693 108.632 121.971 109.333 121.971C110.033 121.971 110.705 121.693 111.2 121.197C111.695 120.701 111.973 120.029 111.973 119.327V117.908C113.552 117.64 114.994 116.847 116.067 115.657C117.14 114.468 117.781 112.951 117.888 111.352V107.641C117.888 102.424 113.17 101.072 110.048 100.185C106.607 99.2065 106.057 98.7599 106.057 97.8292V94.1251C106.057 93.5784 107.332 92.5329 109.333 92.5329C111.333 92.5329 112.609 93.5763 112.609 94.1251V97.1614C112.628 97.8495 112.915 98.5029 113.408 98.9828C113.901 99.4626 114.561 99.7311 115.248 99.7311C115.936 99.7311 116.596 99.4626 117.089 98.9828C117.582 98.5029 117.869 97.8495 117.888 97.1614V94.1251C117.783 92.5246 117.142 91.0063 116.068 89.8155C114.995 88.6247 113.553 87.8308 111.973 87.5621V86.1452C111.973 85.444 111.695 84.7715 111.2 84.2756C110.705 83.7798 110.033 83.5012 109.333 83.5012C108.632 83.5012 107.961 83.7798 107.466 84.2756C106.97 84.7715 106.692 85.444 106.692 86.1452V86.1577ZM194 110.419V119.999C193.999 121.294 193.485 122.534 192.571 123.45C191.657 124.365 190.418 124.879 189.125 124.88H181.806V134.062C181.806 134.841 181.618 135.609 181.258 136.299C181.618 136.991 181.806 137.759 181.806 138.538V148.119C181.804 149.413 181.29 150.654 180.377 151.569C179.463 152.484 178.224 152.998 176.931 153H130.307C129.44 152.999 128.589 152.766 127.842 152.326C127.094 151.886 126.478 151.254 126.055 150.496C120.314 151.607 114.473 152.123 108.626 152.038C108.318 152.038 108.001 152.038 107.701 152.038C92.0267 152.038 79.1055 148.432 69.2812 141.312C60.4365 135.005 54.3675 125.52 52.342 114.839C50.1947 102.955 52.3306 90.6937 58.3691 80.2395C64.391 69.6345 73.6036 61.2044 84.6929 56.1516C83.889 53.5413 83.8026 50.7623 84.4428 48.107C84.7806 46.1815 85.8493 44.4615 87.4251 43.3074C87.1855 41.3127 87.4729 39.2899 88.2587 37.4414C88.3918 37.1531 88.5443 36.8742 88.7151 36.6066C86.1358 33.2929 82.5807 30.8757 78.5532 29.6973C76.9796 29.4867 75.5188 28.7638 74.3958 27.6401C73.2728 26.5164 72.5499 25.0541 72.3386 23.4786C72.2512 22.0919 72.6242 20.7151 73.3996 19.5628C74.175 18.4105 75.3091 17.5473 76.6255 17.1076C79.8245 16.1652 82.7206 14.3986 85.0243 11.9845C86.2747 10.5941 87.7553 9.43 89.4008 8.54336C89.5983 8.43735 89.8084 8.35672 90.026 8.30338C90.3303 8.22825 90.6325 8.17608 90.9347 8.13226C91.1223 7.44524 91.4216 6.79381 91.8204 6.20406C94.2963 2.49373 101.047 0 108.614 0C116.181 0 122.933 2.49373 125.409 6.20614C125.807 6.79586 126.106 7.44639 126.295 8.13226C126.597 8.17608 126.899 8.22825 127.202 8.30338C127.419 8.35653 127.629 8.43717 127.827 8.54336C129.472 9.43084 130.952 10.5948 132.203 11.9845C134.507 14.3986 137.403 16.1652 140.602 17.1076C141.925 17.5451 143.065 18.4099 143.844 19.5664C144.623 20.7228 144.996 22.1055 144.906 23.4974C144.694 25.0727 143.971 26.5347 142.848 27.658C141.725 28.7814 140.264 29.5038 138.691 29.7139C134.664 30.8932 131.109 33.3102 128.529 36.6233C128.701 36.8904 128.855 37.1693 128.988 37.4581C129.774 39.3073 130.061 41.3308 129.821 43.3261C131.4 44.4783 132.47 46.1991 132.806 48.1258C133.444 50.7813 133.358 53.5598 132.556 56.1704C139.908 59.5378 146.486 64.3918 151.875 70.4274L178.63 77.606C179.878 77.942 180.943 78.7603 181.589 79.8813C182.235 81.0022 182.411 82.3342 182.077 83.5847L179.601 92.8376C179.436 93.4569 179.15 94.0376 178.76 94.5463C178.371 95.0551 177.885 95.4819 177.33 95.8025C176.776 96.123 176.163 96.331 175.529 96.4145C174.894 96.498 174.249 96.4554 173.63 96.2891L164.252 93.785C165.218 97.6388 165.723 101.594 165.757 105.567H189.119C190.408 105.566 191.644 106.076 192.559 106.985C193.473 107.894 193.991 109.129 194 110.419ZM158.325 92.1635L132.341 85.1915C136.483 90.3867 138.737 96.8385 138.733 103.487C138.731 104.915 138.627 106.341 138.42 107.754C138.862 107.074 139.467 106.515 140.179 106.128C140.891 105.741 141.688 105.538 142.499 105.538H160.482C160.434 100.997 159.707 96.4887 158.325 92.1635ZM137.624 119.595V111.473C136.812 114.353 135.563 117.092 133.923 119.595H137.624ZM109.333 79.3339C104.562 79.3339 99.8986 80.7504 95.9319 83.4043C91.9652 86.0583 88.8736 89.8304 87.0479 94.2437C85.2223 98.657 84.7446 103.513 85.6753 108.198C86.606 112.884 88.9033 117.187 92.2767 120.565C95.6501 123.943 99.948 126.243 104.627 127.175C109.306 128.107 114.156 127.629 118.563 125.801C122.971 123.973 126.738 120.877 129.389 116.905C132.039 112.933 133.454 108.263 133.454 103.487C133.447 97.083 130.903 90.9439 126.381 86.416C121.859 81.888 115.728 79.3411 109.333 79.3339ZM176.881 82.5893L132.624 70.7154L130.357 79.1857L174.618 91.0596L176.881 82.5893ZM90.1261 55.1896C95.8569 58.1159 102.198 59.6415 108.632 59.6415C115.065 59.6415 121.406 58.1159 127.137 55.1896C127.682 54.4191 127.962 53.4916 127.933 52.5477C128.063 51.1078 127.859 49.6574 127.337 48.3094C121.496 51.1097 115.102 52.5633 108.626 52.5633C102.15 52.5633 95.7566 51.1097 89.9156 48.3094C89.3937 49.6574 89.1897 51.1078 89.3195 52.5477C89.292 53.493 89.5754 54.4212 90.1261 55.1896ZM92.8999 39.9998C92.5163 41.2551 92.5163 42.5967 92.8999 43.852C97.8399 46.0946 103.201 47.2546 108.625 47.2546C114.049 47.2546 119.411 46.0946 124.351 43.852C124.734 42.5967 124.734 41.2551 124.351 39.9998C119.41 42.2389 114.049 43.3971 108.625 43.3971C103.202 43.3971 97.8409 42.2389 92.8999 39.9998ZM125.668 13.3889C125.609 13.3889 125.551 13.3764 125.493 13.368C124.407 16.525 123.995 19.8747 124.282 23.201C124.662 27.2619 124.013 31.3532 122.394 35.0958C122.754 34.933 123.115 34.7661 123.471 34.5908C123.504 34.5741 123.54 34.5616 123.575 34.547C126.89 29.6199 131.877 26.0645 137.611 24.5408C138.958 24.2591 139.602 23.6017 139.643 23.08C139.677 22.6752 139.335 22.2975 138.733 22.0658C134.804 20.8644 131.254 18.6644 128.427 15.6802C127.633 14.7761 126.702 14.0029 125.668 13.3889ZM96.074 9.87056C97.8746 14.1343 98.6189 18.7707 98.2435 23.3847C97.7455 28.3972 99.1412 33.4146 102.155 37.4476C106.423 38.3137 110.821 38.3137 115.089 37.4476C118.105 33.4153 119.501 28.3975 119.003 23.3847C118.627 18.7707 119.372 14.1343 121.172 9.87056C121.233 9.72657 121.302 9.56172 121.029 9.1527C119.764 7.25789 114.776 5.2963 108.622 5.2963C102.468 5.2963 97.4828 7.25789 96.2178 9.1527C95.9489 9.56172 96.0177 9.72449 96.0781 9.87056H96.074ZM93.6794 34.5365C93.7127 34.5511 93.7482 34.5637 93.7815 34.5804C94.14 34.7557 94.4984 34.9226 94.859 35.0854C93.2434 31.3454 92.5941 27.2584 92.9708 23.201C93.2588 19.8746 92.8463 16.5248 91.76 13.368C91.7016 13.368 91.6453 13.3785 91.587 13.3889C90.5532 13.9992 89.6219 14.7689 88.8277 15.6698C86.0006 18.6535 82.4502 20.8534 78.522 22.0554C77.9176 22.2849 77.5779 22.6647 77.6092 23.0696C77.6529 23.5954 78.2969 24.2528 79.6432 24.5303C85.3779 26.0532 90.3656 29.6088 93.6794 34.5365ZM108.651 146.752C114.282 146.841 119.907 146.331 125.43 145.231V138.532C125.43 137.753 125.618 136.984 125.978 136.293C125.62 135.602 125.433 134.835 125.434 134.056V128.1C121.016 131.005 115.898 132.663 110.618 132.9C105.338 133.137 100.092 131.945 95.4322 129.449C90.772 126.953 86.87 123.245 84.1367 118.715C81.4035 114.186 79.9401 109.003 79.9007 103.711C79.8612 98.419 81.2471 93.2143 83.9124 88.6446C86.5778 84.0748 90.4241 80.309 95.0466 77.7434C99.669 75.1778 104.897 73.9074 110.179 74.0657C115.462 74.224 120.604 75.8053 125.065 78.6432C125.09 78.5013 125.12 78.3593 125.157 78.2258L127.633 68.9729C127.969 67.7235 128.787 66.6587 129.906 66.0117C131.025 65.3647 132.355 65.1884 133.604 65.5213L141.184 67.5539C137.393 64.5724 133.217 62.1176 128.769 60.2564C122.499 63.3405 115.607 64.9443 108.621 64.9443C101.636 64.9443 94.7431 63.3405 88.4734 60.2564C66.5866 69.5071 53.3256 92.3305 57.5229 113.829C61.5598 134.488 80.308 146.756 107.749 146.756H108.603L108.651 146.752ZM176.527 138.937H130.709V147.702H176.527V138.937ZM176.527 124.88H130.709V133.645H176.527V124.88ZM188.721 110.824H142.903V119.588H188.721V110.824Z" fill="#E1EEFF"/>
</svg>
