<svg width="222" height="175" viewBox="0 0 222 175" fill="none" xmlns="http://www.w3.org/2000/svg">
<path d="M55.7368 140.371C55.7065 141.152 55.3753 141.891 54.8123 142.433C54.2494 142.975 53.4986 143.278 52.7171 143.279H52.6002C43.8522 142.94 35.3132 140.508 27.7002 136.185C20.0872 131.863 13.6225 125.778 8.84912 118.44C4.0757 111.101 1.13288 102.725 0.267803 94.0142C-0.597277 85.3032 0.640641 76.5119 3.8776 68.3784C7.11455 60.245 12.256 53.0069 18.8703 47.272C25.4845 41.5372 33.3783 37.473 41.8889 35.4209C50.3995 33.3687 59.2782 33.3884 67.7796 35.4784C76.2809 37.5684 84.1567 41.6676 90.7453 47.4317C91.3487 47.9597 91.7175 48.7057 91.7708 49.5056C91.8241 50.3055 91.5574 51.0938 91.0294 51.6971C90.5014 52.3004 89.7554 52.6692 88.9554 52.7225C88.1554 52.7757 87.3671 52.5091 86.7637 51.9811C80.9034 46.8537 73.8981 43.2072 66.3364 41.3479C58.7746 39.4886 50.877 39.4707 43.3069 41.2958C35.7368 43.1208 28.7151 46.7355 22.8316 51.8363C16.9481 56.9371 12.3745 63.3751 9.49486 70.6096C6.61526 77.844 5.51374 85.6638 6.2828 93.4122C7.05186 101.161 9.66905 108.611 13.9146 115.139C18.1601 121.666 23.91 127.079 30.6815 130.924C37.4529 134.769 45.0481 136.933 52.8293 137.235C53.6308 137.266 54.3874 137.613 54.9326 138.201C55.4778 138.789 55.7671 139.57 55.7368 140.371ZM54.8846 91.8274H54.7199C54.1605 91.8273 53.6108 91.6817 53.1247 91.4048C52.6387 91.1279 52.2332 90.7292 51.948 90.248C51.6627 89.7669 51.5077 89.2197 51.4981 88.6605C51.4885 88.1012 51.6246 87.5491 51.8931 87.0584C52.1616 86.5677 52.5533 86.1554 53.0295 85.8619C53.5057 85.5685 54.0501 85.404 54.6092 85.3848C55.1682 85.3655 55.7226 85.4921 56.2179 85.7521C56.7132 86.012 57.1323 86.3965 57.434 86.8675C57.8748 87.5268 58.557 87.9866 59.3337 88.1478C60.1103 88.3089 60.9192 88.1586 61.586 87.7291C62.2528 87.2996 62.7242 86.6254 62.8986 85.8517C63.073 85.078 62.9365 84.2667 62.5184 83.5927C61.3944 81.8417 59.7122 80.5213 57.7443 79.8453V61.9916C57.7222 61.2046 57.3939 60.4572 56.8294 59.9083C56.2648 59.3595 55.5085 59.0524 54.7211 59.0524C53.9337 59.0524 53.1773 59.3595 52.6128 59.9083C52.0482 60.4572 51.72 61.2046 51.6979 61.9916V79.8644C49.6258 80.5788 47.8742 82.0047 46.7543 83.8886C45.6344 85.7725 45.2188 87.9924 45.5812 90.1538C45.9437 92.3152 47.0608 94.2781 48.734 95.6936C50.4072 97.1092 52.5281 97.8857 54.7199 97.8852C54.8703 97.8852 55.0159 97.8853 55.1639 97.8733C55.5604 97.855 55.9495 97.7587 56.3088 97.59C56.6681 97.4214 56.9907 97.1836 57.2582 96.8902C57.5256 96.5969 57.7326 96.2537 57.8674 95.8804C58.0022 95.5071 58.0622 95.1108 58.0439 94.7143C58.0255 94.3178 57.9293 93.9288 57.7606 93.5695C57.5919 93.2102 57.354 92.8876 57.0607 92.6202C56.7673 92.3528 56.4242 92.1458 56.0508 92.011C55.6774 91.8762 55.2811 91.8162 54.8846 91.8345V91.8274ZM81.1637 56.6856C80.0809 56.6892 79.0234 57.0129 78.1241 57.6159C77.2248 58.2189 76.5239 59.0744 76.1096 60.0747C75.6953 61.0749 75.586 62.1754 75.7955 63.2376C76.005 64.2999 76.524 65.2764 77.2871 66.0445C77.6973 66.4553 78.2171 66.7392 78.7844 66.8624C79.3517 66.9856 79.9424 66.9428 80.486 66.7391C81.0296 66.5354 81.5031 66.1795 81.8497 65.7139C82.1964 65.2483 82.4016 64.6927 82.4408 64.1135C82.9875 64.3061 83.5781 64.3376 84.1423 64.2041C84.7064 64.0706 85.2203 63.7778 85.6227 63.3606C86.0251 62.9433 86.2992 62.4192 86.4122 61.8507C86.5251 61.2822 86.4724 60.6931 86.2601 60.1537C85.8553 59.132 85.1532 58.2552 84.2446 57.6369C83.336 57.0186 82.2627 56.6872 81.1637 56.6856ZM32.155 111.173C33.0938 112.218 33.596 113.584 33.5583 114.988C33.5205 116.393 32.9457 117.729 31.9522 118.723C30.9587 119.716 29.622 120.291 28.2175 120.329C26.8129 120.366 25.4473 119.864 24.4019 118.925C23.847 118.427 23.3994 117.821 23.0865 117.144C22.7735 116.467 22.6018 115.734 22.5818 114.988C22.5618 114.243 22.6938 113.501 22.97 112.808C23.2461 112.115 23.6605 111.486 24.1879 110.959C24.7152 110.432 25.3445 110.017 26.0373 109.741C26.7301 109.465 27.4719 109.333 28.2175 109.353C28.963 109.373 29.6966 109.545 30.3736 109.858C31.0506 110.17 31.6567 110.618 32.155 111.173ZM27.8798 115.448L28.6771 114.651C28.5714 114.545 28.428 114.485 28.2785 114.485C28.1289 114.485 27.9855 114.545 27.8798 114.651C27.7741 114.756 27.7147 114.9 27.7147 115.049C27.7147 115.199 27.7741 115.342 27.8798 115.448ZM28.8346 115.049C28.8343 114.9 28.7751 114.757 28.6699 114.651L27.8727 115.448C27.9518 115.524 28.0516 115.576 28.1597 115.596C28.2679 115.617 28.3797 115.605 28.4812 115.563C28.5828 115.52 28.6697 115.449 28.7312 115.358C28.7928 115.266 28.8262 115.159 28.8275 115.049H28.8346ZM32.155 66.0445C31.3878 66.8138 30.4096 67.3383 29.3442 67.5514C28.2787 67.7645 27.174 67.6567 26.1699 67.2417C25.1658 66.8266 24.3074 66.123 23.7034 65.2198C23.0994 64.3167 22.777 63.2547 22.777 62.1682C22.777 61.0818 23.0994 60.0198 23.7034 59.1166C24.3074 58.2135 25.1658 57.5099 26.1699 57.0948C27.174 56.6798 28.2787 56.572 29.3442 56.7851C30.4096 56.9982 31.3878 57.5226 32.155 58.292C32.666 58.7999 33.0715 59.4039 33.3482 60.0691C33.625 60.7344 33.7674 61.4478 33.7674 62.1682C33.7674 62.8887 33.625 63.6021 33.3482 64.2673C33.0715 64.9326 32.666 65.5365 32.155 66.0445ZM28.8418 62.1682C28.8414 62.0189 28.7823 61.8757 28.6771 61.7696C28.5983 61.6909 28.4979 61.6374 28.3886 61.6157C28.2794 61.594 28.1662 61.6052 28.0633 61.6479C27.9604 61.6906 27.8724 61.7627 27.8106 61.8554C27.7487 61.948 27.7157 62.0569 27.7157 62.1682C27.7157 62.2796 27.7487 62.3885 27.8106 62.4811C27.8724 62.5737 27.9604 62.6459 28.0633 62.6886C28.1662 62.7312 28.2794 62.7424 28.3886 62.7208C28.4979 62.6991 28.5983 62.6455 28.6771 62.5668C28.7823 62.4608 28.8414 62.3176 28.8418 62.1682ZM51.6979 48.8567V53.5755C51.72 54.3626 52.0482 55.1099 52.6128 55.6588C53.1773 56.2077 53.9337 56.5147 54.7211 56.5147C55.5085 56.5147 56.2648 56.2077 56.8294 55.6588C57.3939 55.1099 57.7222 54.3626 57.7443 53.5755V48.8567C57.7222 48.0697 57.3939 47.3223 56.8294 46.7734C56.2648 46.2246 55.5085 45.9175 54.7211 45.9175C53.9337 45.9175 53.1773 46.2246 52.6128 46.7734C52.0482 47.3223 51.72 48.0697 51.6979 48.8567ZM14.9658 85.5929C14.1787 85.615 13.4313 85.9432 12.8824 86.5077C12.3335 87.0722 12.0264 87.8285 12.0264 88.6159C12.0264 89.4032 12.3335 90.1595 12.8824 90.724C13.4313 91.2885 14.1787 91.6167 14.9658 91.6388H19.6851C20.4722 91.6167 21.2196 91.2885 21.7685 90.724C22.3174 90.1595 22.6245 89.4032 22.6245 88.6159C22.6245 87.8285 22.3174 87.0722 21.7685 86.5077C21.2196 85.9432 20.4722 85.615 19.6851 85.5929H14.9658ZM121.999 98.5464V100.153C120.191 100.46 118.54 101.367 117.311 102.727C116.082 104.088 115.347 105.823 115.225 107.652V111.896C115.225 117.863 120.619 119.393 124.19 120.408C128.143 121.53 128.776 122.045 128.776 123.119V127.363C128.776 127.988 127.315 129.187 125.023 129.187C122.732 129.187 121.271 127.993 121.271 127.363V123.878C121.282 123.474 121.213 123.072 121.066 122.695C120.919 122.318 120.698 121.975 120.416 121.685C120.134 121.395 119.797 121.165 119.425 121.007C119.052 120.85 118.652 120.769 118.248 120.769C117.843 120.769 117.443 120.85 117.071 121.007C116.698 121.165 116.361 121.395 116.079 121.685C115.798 121.975 115.577 122.318 115.43 122.695C115.283 123.072 115.213 123.474 115.225 123.878V127.363C115.347 129.192 116.082 130.927 117.311 132.288C118.54 133.649 120.191 134.555 121.999 134.863V136.486C121.999 137.288 122.318 138.057 122.885 138.624C123.452 139.191 124.221 139.51 125.023 139.51C125.826 139.51 126.595 139.191 127.162 138.624C127.729 138.057 128.048 137.288 128.048 136.486V134.863C129.856 134.555 131.507 133.649 132.736 132.288C133.965 130.927 134.7 129.192 134.822 127.363V123.119C134.822 117.152 129.418 115.605 125.842 114.591C121.901 113.471 121.271 112.961 121.271 111.896V107.659C121.271 107.034 122.732 105.838 125.023 105.838C127.315 105.838 128.776 107.032 128.776 107.659V111.132C128.798 111.919 129.126 112.667 129.691 113.216C130.255 113.764 131.012 114.072 131.799 114.072C132.587 114.072 133.343 113.764 133.907 113.216C134.472 112.667 134.8 111.919 134.822 111.132V107.659C134.702 105.829 133.968 104.092 132.738 102.73C131.509 101.368 129.857 100.46 128.048 100.153V98.5321C128.048 97.73 127.729 96.9608 127.162 96.3937C126.595 95.8265 125.826 95.5079 125.023 95.5079C124.221 95.5079 123.452 95.8265 122.885 96.3937C122.318 96.9608 121.999 97.73 121.999 98.5321V98.5464ZM222 126.296V137.254C221.999 138.734 221.41 140.154 220.363 141.2C219.316 142.247 217.897 142.836 216.417 142.837H208.033V153.339C208.033 154.23 207.818 155.108 207.406 155.898C207.818 156.689 208.033 157.567 208.033 158.459V169.417C208.031 170.897 207.443 172.316 206.396 173.363C205.349 174.409 203.93 174.998 202.45 175H149.047C148.054 174.999 147.079 174.732 146.223 174.229C145.367 173.725 144.661 173.003 144.177 172.136C137.601 173.406 130.911 173.997 124.214 173.9C123.861 173.9 123.498 173.9 123.154 173.9C105.201 173.9 90.4016 169.775 79.149 161.631C69.0184 154.418 62.0671 143.569 59.747 131.351C57.2876 117.759 59.734 103.735 66.6504 91.7773C73.5478 79.6473 84.0998 70.0051 96.8013 64.2257C95.8805 61.2401 95.7815 58.0615 96.5149 55.0244C96.9017 52.822 98.1258 50.8547 99.9307 49.5346C99.6562 47.2531 99.9855 44.9395 100.886 42.8251C101.038 42.4954 101.213 42.1764 101.408 41.8703C98.4539 38.0802 94.382 35.3153 89.769 33.9674C87.9666 33.7266 86.2934 32.8998 85.0071 31.6145C83.7209 30.3292 82.8929 28.6567 82.6508 26.8546C82.5507 25.2685 82.978 23.6938 83.8661 22.3758C84.7542 21.0578 86.0533 20.0704 87.561 19.5675C91.2252 18.4896 94.5423 16.469 97.1808 13.7078C98.6131 12.1174 100.309 10.7859 102.194 9.77182C102.42 9.65056 102.66 9.55834 102.91 9.49733C103.258 9.4114 103.604 9.35173 103.951 9.30161C104.165 8.5158 104.508 7.77069 104.965 7.09614C107.801 2.8523 115.533 0 124.2 0C132.867 0 140.601 2.8523 143.437 7.09853C143.893 7.77305 144.235 8.51712 144.452 9.30161C144.798 9.35173 145.144 9.4114 145.49 9.49733C145.739 9.55812 145.98 9.65035 146.206 9.77182C148.09 10.7869 149.786 12.1183 151.219 13.7078C153.858 16.469 157.175 18.4896 160.839 19.5675C162.354 20.0679 163.66 21.0571 164.552 22.3798C165.444 23.7026 165.872 25.284 165.768 26.8761C165.526 28.6779 164.698 30.3501 163.412 31.635C162.125 32.9199 160.452 33.7462 158.65 33.9865C154.037 35.3353 149.966 38.1 147.011 41.8894C147.208 42.1949 147.383 42.514 147.536 42.8442C148.436 44.9593 148.766 47.2738 148.491 49.556C150.299 50.8739 151.524 52.8421 151.909 55.0458C152.64 58.0832 152.541 61.2612 151.622 64.2472C160.044 68.0987 167.578 73.6508 173.75 80.5542L204.395 88.765C205.825 89.1493 207.044 90.0853 207.784 91.3675C208.525 92.6496 208.726 94.1731 208.344 95.6034L205.508 106.187C205.318 106.895 204.991 107.559 204.545 108.141C204.098 108.723 203.542 109.211 202.907 109.578C202.272 109.945 201.57 110.183 200.843 110.278C200.116 110.374 199.377 110.325 198.669 110.135L187.927 107.27C189.033 111.678 189.612 116.202 189.651 120.747H216.41C217.885 120.746 219.302 121.329 220.349 122.369C221.396 123.409 221.99 124.82 222 126.296ZM181.138 105.416L151.377 97.4413C156.121 103.384 158.703 110.763 158.698 118.367C158.696 120 158.576 121.632 158.34 123.248C158.846 122.47 159.538 121.831 160.354 121.389C161.17 120.946 162.083 120.714 163.011 120.713H183.609C183.555 115.519 182.722 110.363 181.138 105.416ZM157.428 136.791V127.501C156.497 130.796 155.068 133.929 153.188 136.791H157.428ZM125.023 90.7414C119.559 90.7414 114.218 92.3616 109.674 95.3971C105.131 98.4327 101.59 102.747 99.4987 107.795C97.4076 112.843 96.8605 118.398 97.9265 123.756C98.9926 129.115 101.624 134.038 105.488 137.901C109.351 141.765 114.274 144.396 119.634 145.462C124.993 146.528 130.548 145.981 135.596 143.89C140.644 141.799 144.959 138.258 147.995 133.715C151.031 129.172 152.651 123.831 152.651 118.367C152.643 111.043 149.73 104.021 144.55 98.8418C139.371 93.6628 132.348 90.7496 125.023 90.7414ZM202.393 94.4649L151.701 80.8836L149.104 90.5719L199.8 104.153L202.393 94.4649ZM103.024 63.1254C109.588 66.4724 116.852 68.2174 124.22 68.2174C131.589 68.2174 138.852 66.4724 145.416 63.1254C146.041 62.244 146.361 61.1832 146.328 60.1036C146.477 58.4567 146.243 56.7977 145.645 55.2559C138.955 58.4588 131.632 60.1214 124.214 60.1214C116.797 60.1214 109.474 58.4588 102.783 55.2559C102.186 56.7977 101.952 58.4567 102.101 60.1036C102.069 61.1849 102.394 62.2465 103.024 63.1254ZM106.202 45.7514C105.762 47.1872 105.762 48.7217 106.202 50.1575C111.86 52.7225 118.001 54.0494 124.213 54.0494C130.426 54.0494 136.566 52.7225 142.225 50.1575C142.664 48.7217 142.664 47.1872 142.225 45.7514C136.565 48.3125 130.425 49.6372 124.213 49.6372C118.001 49.6372 111.861 48.3125 106.202 45.7514ZM143.733 15.3141C143.666 15.3141 143.6 15.2998 143.533 15.2902C142.29 18.9011 141.817 22.7325 142.146 26.5371C142.582 31.1819 141.838 35.8615 139.983 40.1423C140.396 39.9561 140.809 39.7651 141.217 39.5646C141.255 39.5455 141.296 39.5312 141.337 39.5145C145.133 33.879 150.845 29.8123 157.413 28.0695C158.955 27.7473 159.693 26.9954 159.741 26.3987C159.779 25.9357 159.388 25.5036 158.698 25.2387C154.198 23.8646 150.131 21.3482 146.894 17.9349C145.984 16.9008 144.918 16.0164 143.733 15.3141ZM109.837 11.2899C111.899 16.1667 112.752 21.4698 112.322 26.7472C111.752 32.4804 113.35 38.2193 116.802 42.8323C121.691 43.8228 126.728 43.8228 131.617 42.8323C135.07 38.2201 136.67 32.4808 136.099 26.7472C135.669 21.4698 136.522 16.1667 138.584 11.2899C138.654 11.1252 138.732 10.9366 138.42 10.4688C136.971 8.30151 131.258 6.05786 124.209 6.05786C117.161 6.05786 111.451 8.30151 110.002 10.4688C109.694 10.9366 109.773 11.1228 109.842 11.2899H109.837ZM107.094 39.5026C107.132 39.5193 107.173 39.5336 107.211 39.5527C107.622 39.7532 108.032 39.9442 108.445 40.1303C106.595 35.8526 105.851 31.1779 106.283 26.5371C106.613 22.7324 106.14 18.9009 104.896 15.2902C104.829 15.2902 104.765 15.3022 104.698 15.3141C103.514 16.0121 102.447 16.8926 101.537 17.923C98.2991 21.3357 94.2325 23.8519 89.7332 25.2268C89.041 25.4893 88.6519 25.9237 88.6877 26.3868C88.7378 26.9883 89.4754 27.7401 91.0175 28.0576C97.5859 29.7994 103.299 33.8663 107.094 39.5026ZM124.243 167.854C130.693 167.956 137.135 167.373 143.461 166.114V158.452C143.461 157.56 143.677 156.682 144.089 155.891C143.678 155.1 143.465 154.223 143.466 153.332V146.52C138.405 149.842 132.543 151.738 126.496 152.01C120.448 152.281 114.44 150.918 109.102 148.062C103.764 145.207 99.2949 140.966 96.1643 135.786C93.0337 130.605 91.3576 124.676 91.3124 118.624C91.2671 112.571 92.8545 106.618 95.9074 101.391C98.9603 96.164 103.366 91.8567 108.66 88.9222C113.955 85.9877 119.942 84.5346 125.993 84.7157C132.044 84.8968 137.934 86.7054 143.043 89.9513C143.072 89.789 143.105 89.6267 143.148 89.4739L145.984 78.8906C146.37 77.4616 147.306 76.2436 148.588 75.5036C149.87 74.7636 151.393 74.5619 152.823 74.9427L161.505 77.2675C157.163 73.8573 152.38 71.0496 147.285 68.9207C140.104 72.4483 132.209 74.2827 124.208 74.2827C116.207 74.2827 108.313 72.4483 101.131 68.9207C76.0626 79.5016 60.8737 105.607 65.6812 130.196C70.305 153.826 91.7789 167.859 123.209 167.859H124.188L124.243 167.854ZM201.987 158.915H149.508V168.94H201.987V158.915ZM201.987 142.837H149.508V152.862H201.987V142.837ZM215.954 126.759H163.474V136.784H215.954V126.759Z" fill="#E1EEFF"/>
</svg>
