<svg width="60" height="59" viewBox="0 0 60 59" fill="none" xmlns="http://www.w3.org/2000/svg">
<path d="M54 16.16C54 16.4252 53.8946 16.6796 53.7071 16.8671C53.5196 17.0546 53.2652 17.16 53 17.16H50C49.7716 17.1667 49.5477 17.0949 49.3658 16.9566C49.1838 16.8183 49.0548 16.6219 49 16.4L48.75 15.4L47.9 17.53C47.8263 17.7165 47.6982 17.8766 47.5323 17.9893C47.3665 18.1021 47.1706 18.1624 46.97 18.1624C46.7694 18.1624 46.5735 18.1021 46.4077 17.9893C46.2418 17.8766 46.1137 17.7165 46.04 17.53L45 14.77L43 19.55C42.917 19.742 42.7759 19.9032 42.5965 20.0109C42.4171 20.1185 42.2085 20.1672 42 20.15C41.7675 20.1552 41.5404 20.0791 41.3579 19.9349C41.1753 19.7907 41.0488 19.5874 41 19.36L39.7 12.86L36.92 20.5C36.8469 20.7032 36.71 20.8774 36.5298 20.9963C36.3495 21.1153 36.1356 21.1727 35.92 21.16C35.7006 21.1414 35.4935 21.051 35.3308 20.9028C35.1681 20.7545 35.0588 20.5567 35.02 20.34L33.87 14.06L31 26.39C30.9472 26.6137 30.819 26.8124 30.6368 26.9527C30.4547 27.0929 30.2298 27.1661 30 27.16C29.7665 27.1453 29.5456 27.0491 29.3757 26.8884C29.2058 26.7276 29.0976 26.5123 29.07 26.28L26.84 8.21L23 31.32C22.9617 31.5566 22.8396 31.7716 22.6561 31.9258C22.4725 32.08 22.2397 32.1631 22 32.16H21.94C21.6853 32.1447 21.4461 32.0326 21.2714 31.8467C21.0966 31.6608 20.9995 31.4151 21 31.16L20.25 11.57L17 23.43C16.9395 23.6463 16.808 23.8359 16.6266 23.9684C16.4452 24.1008 16.2244 24.1683 16 24.16C15.7603 24.1631 15.5275 24.08 15.3439 23.9258C15.1604 23.7716 15.0383 23.5566 15 23.32L13.67 15.32L13 17.48C12.9304 17.687 12.795 17.8655 12.6144 17.9883C12.4339 18.1111 12.2181 18.1714 12 18.16H7C6.73478 18.16 6.48043 18.0546 6.29289 17.8671C6.10536 17.6796 6 17.4252 6 17.16C6 16.8948 6.10536 16.6404 6.29289 16.4529C6.48043 16.2654 6.73478 16.16 7 16.16H11.28L13.05 10.84C13.1196 10.633 13.255 10.4545 13.4356 10.3317C13.6161 10.2089 13.8319 10.1486 14.05 10.16C14.274 10.1774 14.4856 10.2698 14.6507 10.4222C14.8158 10.5746 14.9247 10.7781 14.96 11L16.21 18.54L20 4.89C20.0358 4.62478 20.1755 4.38465 20.3884 4.22243C20.6012 4.06022 20.8698 3.9892 21.135 4.025C21.4002 4.0608 21.6403 4.2005 21.8026 4.41335C21.9648 4.62621 22.0358 4.89478 22 5.16L22.62 21.38L26 1C26 0.734784 26.1054 0.48043 26.2929 0.292893C26.4804 0.105357 26.7348 0 27 0C27.2652 0 27.5196 0.105357 27.7071 0.292893C27.8946 0.48043 28 0.734784 28 1L30.33 20.39L33 8.93C33.0557 8.71011 33.1846 8.5157 33.3654 8.3787C33.5462 8.2417 33.7682 8.17024 33.995 8.17605C34.2217 8.18186 34.4398 8.26461 34.6133 8.4107C34.7869 8.55679 34.9056 8.75754 34.95 8.98L36.29 16.35L39.03 8.82C39.1031 8.61675 39.24 8.44262 39.4202 8.32365C39.6005 8.20468 39.8144 8.14727 40.03 8.16C40.2466 8.17748 40.4515 8.26501 40.6139 8.40935C40.7763 8.55369 40.8873 8.74699 40.93 8.96L42.3 15.81L44.03 11.81C44.0931 11.6072 44.2238 11.4321 44.4003 11.3138C44.5768 11.1955 44.7884 11.1413 45 11.16C45.1986 11.1618 45.3921 11.2227 45.556 11.3349C45.7198 11.4471 45.8465 11.6055 45.92 11.79L47 14.47L48.07 11.79C48.1481 11.5924 48.2872 11.4247 48.467 11.3115C48.6468 11.1982 48.858 11.1451 49.07 11.16C49.2811 11.1751 49.482 11.2568 49.6438 11.3934C49.8055 11.53 49.9197 11.7144 49.97 11.92L50.78 15.16H53C53.2652 15.16 53.5196 15.2654 53.7071 15.4529C53.8946 15.6404 54 15.8948 54 16.16Z" fill="#035CB8"/>
<path d="M11.2 48L14.51 44.47C14.6633 44.3033 14.7933 44.14 14.9 43.98C15.0133 43.8133 15.0967 43.6467 15.15 43.48C15.21 43.3067 15.24 43.1267 15.24 42.94C15.24 42.7867 15.21 42.6367 15.15 42.49C15.09 42.3433 15 42.21 14.88 42.09C14.7667 41.97 14.6267 41.8733 14.46 41.8C14.2933 41.7267 14.1033 41.69 13.89 41.69C13.59 41.69 13.33 41.76 13.11 41.9C12.8967 42.0333 12.7333 42.23 12.62 42.49C12.5067 42.7433 12.45 43.0467 12.45 43.4H11.6C11.6 42.9 11.69 42.4633 11.87 42.09C12.05 41.71 12.31 41.4167 12.65 41.21C12.9967 40.9967 13.41 40.89 13.89 40.89C14.2767 40.89 14.61 40.9567 14.89 41.09C15.17 41.2167 15.4 41.3833 15.58 41.59C15.76 41.79 15.8933 42.0067 15.98 42.24C16.0667 42.4733 16.11 42.6967 16.11 42.91C16.11 43.27 16.0233 43.6267 15.85 43.98C15.6767 44.3333 15.4533 44.65 15.18 44.93L12.95 47.2H16.14V48H11.2ZM17.3934 46V45.25H23.3934V46H17.3934ZM24.8957 42.38V41.5L27.2957 40.9V48H26.4457V41.92L24.8957 42.38ZM29.8477 44.5C29.8477 44.9067 29.8877 45.2833 29.9677 45.63C30.0477 45.97 30.1643 46.2667 30.3177 46.52C30.471 46.7667 30.6543 46.96 30.8677 47.1C31.0877 47.2333 31.331 47.3 31.5977 47.3C31.871 47.3 32.1143 47.2333 32.3277 47.1C32.541 46.96 32.7243 46.7667 32.8777 46.52C33.031 46.2667 33.1477 45.97 33.2277 45.63C33.3077 45.2833 33.3477 44.9067 33.3477 44.5C33.3477 44.0933 33.3077 43.72 33.2277 43.38C33.1477 43.0333 33.031 42.7367 32.8777 42.49C32.7243 42.2367 32.541 42.0433 32.3277 41.91C32.1143 41.77 31.871 41.7 31.5977 41.7C31.331 41.7 31.0877 41.77 30.8677 41.91C30.6543 42.0433 30.471 42.2367 30.3177 42.49C30.1643 42.7367 30.0477 43.0333 29.9677 43.38C29.8877 43.72 29.8477 44.0933 29.8477 44.5ZM28.9977 44.5C28.9977 43.8 29.1077 43.18 29.3277 42.64C29.5477 42.1 29.851 41.6767 30.2377 41.37C30.631 41.0567 31.0843 40.9 31.5977 40.9C32.111 40.9 32.561 41.0567 32.9477 41.37C33.341 41.6767 33.6477 42.1 33.8677 42.64C34.0877 43.18 34.1977 43.8 34.1977 44.5C34.1977 45.2 34.0877 45.82 33.8677 46.36C33.6477 46.9 33.341 47.3267 32.9477 47.64C32.561 47.9467 32.111 48.1 31.5977 48.1C31.0843 48.1 30.631 47.9467 30.2377 47.64C29.851 47.3267 29.5477 46.9 29.3277 46.36C29.1077 45.82 28.9977 45.2 28.9977 44.5ZM38.3918 41H41.8418V41.8H39.2418V48H38.3918V41ZM43.5875 47.2H47.4375V41H48.2875V47.2H49.1375V49.1H48.3875V48H42.7375V41H43.5875V47.2Z" fill="#0C54A0"/>
</svg>
