<svg width="60" height="59" viewBox="0 0 60 59" fill="none" xmlns="http://www.w3.org/2000/svg">
<path d="M54 16.16C54 16.4252 53.8946 16.6796 53.7071 16.8671C53.5196 17.0546 53.2652 17.16 53 17.16H50C49.7716 17.1667 49.5477 17.0949 49.3658 16.9566C49.1838 16.8183 49.0548 16.6219 49 16.4L48.75 15.4L47.9 17.53C47.8263 17.7165 47.6982 17.8766 47.5323 17.9893C47.3665 18.1021 47.1706 18.1624 46.97 18.1624C46.7694 18.1624 46.5735 18.1021 46.4077 17.9893C46.2418 17.8766 46.1137 17.7165 46.04 17.53L45 14.77L43 19.55C42.917 19.742 42.7759 19.9032 42.5965 20.0109C42.4171 20.1185 42.2085 20.1672 42 20.15C41.7675 20.1552 41.5404 20.0791 41.3579 19.9349C41.1753 19.7907 41.0488 19.5874 41 19.36L39.7 12.86L36.92 20.5C36.8469 20.7032 36.71 20.8774 36.5298 20.9963C36.3495 21.1153 36.1356 21.1727 35.92 21.16C35.7006 21.1414 35.4935 21.051 35.3308 20.9028C35.1681 20.7545 35.0588 20.5567 35.02 20.34L33.87 14.06L31 26.39C30.9472 26.6137 30.819 26.8124 30.6368 26.9527C30.4547 27.0929 30.2298 27.1661 30 27.16C29.7665 27.1453 29.5456 27.0491 29.3757 26.8884C29.2058 26.7276 29.0976 26.5123 29.07 26.28L26.84 8.21L23 31.32C22.9617 31.5566 22.8396 31.7716 22.6561 31.9258C22.4725 32.08 22.2397 32.1631 22 32.16H21.94C21.6853 32.1447 21.4461 32.0326 21.2714 31.8467C21.0966 31.6608 20.9995 31.4151 21 31.16L20.25 11.57L17 23.43C16.9395 23.6463 16.808 23.8359 16.6266 23.9684C16.4452 24.1008 16.2244 24.1683 16 24.16C15.7603 24.1631 15.5275 24.08 15.3439 23.9258C15.1604 23.7716 15.0383 23.5566 15 23.32L13.67 15.32L13 17.48C12.9304 17.687 12.795 17.8655 12.6144 17.9883C12.4339 18.1111 12.2181 18.1714 12 18.16H7C6.73478 18.16 6.48043 18.0546 6.29289 17.8671C6.10536 17.6796 6 17.4252 6 17.16C6 16.8948 6.10536 16.6404 6.29289 16.4529C6.48043 16.2654 6.73478 16.16 7 16.16H11.28L13.05 10.84C13.1196 10.633 13.255 10.4545 13.4356 10.3317C13.6161 10.2089 13.8319 10.1486 14.05 10.16C14.274 10.1774 14.4856 10.2698 14.6507 10.4222C14.8158 10.5746 14.9247 10.7781 14.96 11L16.21 18.54L20 4.89C20.0358 4.62478 20.1755 4.38465 20.3884 4.22243C20.6012 4.06022 20.8698 3.9892 21.135 4.025C21.4002 4.0608 21.6403 4.2005 21.8026 4.41335C21.9648 4.62621 22.0358 4.89478 22 5.16L22.62 21.38L26 1C26 0.734784 26.1054 0.48043 26.2929 0.292893C26.4804 0.105357 26.7348 0 27 0C27.2652 0 27.5196 0.105357 27.7071 0.292893C27.8946 0.48043 28 0.734784 28 1L30.33 20.39L33 8.93C33.0557 8.71011 33.1846 8.5157 33.3654 8.3787C33.5462 8.2417 33.7682 8.17024 33.995 8.17605C34.2217 8.18186 34.4398 8.26461 34.6133 8.4107C34.7869 8.55679 34.9056 8.75754 34.95 8.98L36.29 16.35L39.03 8.82C39.1031 8.61675 39.24 8.44262 39.4202 8.32365C39.6005 8.20468 39.8144 8.14727 40.03 8.16C40.2466 8.17748 40.4515 8.26501 40.6139 8.40935C40.7763 8.55369 40.8873 8.74699 40.93 8.96L42.3 15.81L44.03 11.81C44.0931 11.6072 44.2238 11.4321 44.4003 11.3138C44.5768 11.1955 44.7884 11.1413 45 11.16C45.1986 11.1618 45.3921 11.2227 45.556 11.3349C45.7198 11.4471 45.8465 11.6055 45.92 11.79L47 14.47L48.07 11.79C48.1481 11.5924 48.2872 11.4247 48.467 11.3115C48.6468 11.1982 48.858 11.1451 49.07 11.16C49.2811 11.1751 49.482 11.2568 49.6438 11.3934C49.8055 11.53 49.9197 11.7144 49.97 11.92L50.78 15.16H53C53.2652 15.16 53.5196 15.2654 53.7071 15.4529C53.8946 15.6404 54 15.8948 54 16.16Z" fill="#035CB8"/>
<path d="M2.8 42.38V41.5L5.2 40.9V48H4.35V41.92L2.8 42.38ZM6.70195 48L10.012 44.47C10.1653 44.3033 10.2953 44.14 10.402 43.98C10.5153 43.8133 10.5986 43.6467 10.652 43.48C10.712 43.3067 10.742 43.1267 10.742 42.94C10.742 42.7867 10.712 42.6367 10.652 42.49C10.592 42.3433 10.502 42.21 10.382 42.09C10.2686 41.97 10.1286 41.8733 9.96195 41.8C9.79529 41.7267 9.60529 41.69 9.39195 41.69C9.09195 41.69 8.83195 41.76 8.61195 41.9C8.39862 42.0333 8.23529 42.23 8.12195 42.49C8.00862 42.7433 7.95195 43.0467 7.95195 43.4H7.10195C7.10195 42.9 7.19195 42.4633 7.37195 42.09C7.55195 41.71 7.81195 41.4167 8.15195 41.21C8.49862 40.9967 8.91195 40.89 9.39195 40.89C9.77862 40.89 10.112 40.9567 10.392 41.09C10.672 41.2167 10.902 41.3833 11.082 41.59C11.262 41.79 11.3953 42.0067 11.482 42.24C11.5686 42.4733 11.612 42.6967 11.612 42.91C11.612 43.27 11.5253 43.6267 11.352 43.98C11.1786 44.3333 10.9553 44.65 10.682 44.93L8.45195 47.2H11.642V48H6.70195ZM13.4453 44.5C13.4453 44.9067 13.4853 45.2833 13.5653 45.63C13.6453 45.97 13.762 46.2667 13.9153 46.52C14.0686 46.7667 14.252 46.96 14.4653 47.1C14.6853 47.2333 14.9286 47.3 15.1953 47.3C15.4686 47.3 15.712 47.2333 15.9253 47.1C16.1386 46.96 16.322 46.7667 16.4753 46.52C16.6286 46.2667 16.7453 45.97 16.8253 45.63C16.9053 45.2833 16.9453 44.9067 16.9453 44.5C16.9453 44.0933 16.9053 43.72 16.8253 43.38C16.7453 43.0333 16.6286 42.7367 16.4753 42.49C16.322 42.2367 16.1386 42.0433 15.9253 41.91C15.712 41.77 15.4686 41.7 15.1953 41.7C14.9286 41.7 14.6853 41.77 14.4653 41.91C14.252 42.0433 14.0686 42.2367 13.9153 42.49C13.762 42.7367 13.6453 43.0333 13.5653 43.38C13.4853 43.72 13.4453 44.0933 13.4453 44.5ZM12.5953 44.5C12.5953 43.8 12.7053 43.18 12.9253 42.64C13.1453 42.1 13.4486 41.6767 13.8353 41.37C14.2286 41.0567 14.682 40.9 15.1953 40.9C15.7086 40.9 16.1586 41.0567 16.5453 41.37C16.9386 41.6767 17.2453 42.1 17.4653 42.64C17.6853 43.18 17.7953 43.8 17.7953 44.5C17.7953 45.2 17.6853 45.82 17.4653 46.36C17.2453 46.9 16.9386 47.3267 16.5453 47.64C16.1586 47.9467 15.7086 48.1 15.1953 48.1C14.682 48.1 14.2286 47.9467 13.8353 47.64C13.4486 47.3267 13.1453 46.9 12.9253 46.36C12.7053 45.82 12.5953 45.2 12.5953 44.5ZM18.8914 46V45.25H24.8914V46H18.8914ZM26.3938 42.38V41.5L28.7938 40.9V48H27.9438V41.92L26.3938 42.38ZM30.2957 46.6L34.1757 41H34.5257V48H33.6757V46.24V46.13V42.89L31.6957 45.85H34.0257H34.1957H35.6257V46.6H30.2957ZM37.1758 44.5C37.1758 44.9067 37.2158 45.2833 37.2958 45.63C37.3758 45.97 37.4924 46.2667 37.6458 46.52C37.7991 46.7667 37.9824 46.96 38.1958 47.1C38.4158 47.2333 38.6591 47.3 38.9258 47.3C39.1991 47.3 39.4424 47.2333 39.6558 47.1C39.8691 46.96 40.0524 46.7667 40.2058 46.52C40.3591 46.2667 40.4758 45.97 40.5558 45.63C40.6358 45.2833 40.6758 44.9067 40.6758 44.5C40.6758 44.0933 40.6358 43.72 40.5558 43.38C40.4758 43.0333 40.3591 42.7367 40.2058 42.49C40.0524 42.2367 39.8691 42.0433 39.6558 41.91C39.4424 41.77 39.1991 41.7 38.9258 41.7C38.6591 41.7 38.4158 41.77 38.1958 41.91C37.9824 42.0433 37.7991 42.2367 37.6458 42.49C37.4924 42.7367 37.3758 43.0333 37.2958 43.38C37.2158 43.72 37.1758 44.0933 37.1758 44.5ZM36.3258 44.5C36.3258 43.8 36.4358 43.18 36.6558 42.64C36.8758 42.1 37.1791 41.6767 37.5658 41.37C37.9591 41.0567 38.4124 40.9 38.9258 40.9C39.4391 40.9 39.8891 41.0567 40.2758 41.37C40.6691 41.6767 40.9758 42.1 41.1958 42.64C41.4158 43.18 41.5258 43.8 41.5258 44.5C41.5258 45.2 41.4158 45.82 41.1958 46.36C40.9758 46.9 40.6691 47.3267 40.2758 47.64C39.8891 47.9467 39.4391 48.1 38.9258 48.1C38.4124 48.1 37.9591 47.9467 37.5658 47.64C37.1791 47.3267 36.8758 46.9 36.6558 46.36C36.4358 45.82 36.3258 45.2 36.3258 44.5ZM45.7199 41H49.1699V41.8H46.5699V48H45.7199V41ZM50.9156 47.2H54.7656V41H55.6156V47.2H56.4656V49.1H55.7156V48H50.0656V41H50.9156V47.2Z" fill="#0C54A0"/>
</svg>
