<svg width="60" height="59" viewBox="0 0 60 59" fill="none" xmlns="http://www.w3.org/2000/svg">
<path d="M52.758 16.0796C52.758 16.3435 52.6468 16.5965 52.4487 16.7831C52.2507 16.9698 51.9821 17.0746 51.702 17.0746H48.5339C48.2926 17.0812 48.0563 17.0098 47.8641 16.8722C47.672 16.7346 47.5357 16.5391 47.4778 16.3184L47.2138 15.3233L46.3162 17.4427C46.2384 17.6283 46.1031 17.7876 45.9279 17.8998C45.7528 18.012 45.5459 18.072 45.3341 18.072C45.1223 18.072 44.9154 18.012 44.7402 17.8998C44.5651 17.7876 44.4298 17.6283 44.352 17.4427L43.2537 14.6965L41.1416 19.4527C41.054 19.6438 40.905 19.8042 40.7155 19.9113C40.5261 20.0184 40.3058 20.0668 40.0856 20.0497C39.84 20.0548 39.6002 19.9792 39.4075 19.8357C39.2147 19.6922 39.0811 19.4899 39.0296 19.2636L37.6567 12.796L34.7209 20.398C34.6438 20.6002 34.4992 20.7735 34.3089 20.8918C34.1185 21.0102 33.8926 21.0673 33.6649 21.0547C33.4333 21.0362 33.2146 20.9462 33.0427 20.7987C32.8709 20.6512 32.7555 20.4544 32.7145 20.2388L31.5 13.99L28.4692 26.2586C28.4135 26.4813 28.278 26.679 28.0857 26.8185C27.8933 26.9581 27.6559 27.0309 27.4132 27.0248C27.1666 27.0101 26.9333 26.9145 26.7539 26.7545C26.5745 26.5945 26.4602 26.3803 26.4311 26.1492L24.0761 8.16913L20.0209 31.1641C19.9805 31.3995 19.8516 31.6135 19.6577 31.7669C19.4639 31.9203 19.218 32.003 18.9649 31.9999H18.9015C18.6326 31.9847 18.38 31.8732 18.1955 31.6882C18.0109 31.5032 17.9084 31.2588 17.9089 31.0049L17.1169 11.5124L13.6847 23.3134C13.6209 23.5286 13.4819 23.7173 13.2904 23.8491C13.0988 23.9808 12.8657 24.048 12.6287 24.0397C12.3756 24.0428 12.1297 23.9601 11.9359 23.8067C11.742 23.6533 11.6132 23.4394 11.5727 23.2039L10.1681 15.2437L9.4606 17.393C9.38712 17.5989 9.24412 17.7766 9.05343 17.8987C8.86274 18.0209 8.63485 18.0809 8.40457 18.0696H3.12439C2.84432 18.0696 2.57571 17.9648 2.37766 17.7782C2.17962 17.5916 2.06836 17.3385 2.06836 17.0746C2.06836 16.8107 2.17962 16.5576 2.37766 16.371C2.57571 16.1844 2.84432 16.0796 3.12439 16.0796H7.64422L9.5134 10.786C9.58688 10.5801 9.72988 10.4025 9.92057 10.2803C10.1113 10.1581 10.3392 10.0981 10.5694 10.1094C10.806 10.1268 11.0294 10.2187 11.2038 10.3703C11.3781 10.5219 11.4932 10.7245 11.5304 10.9452L12.8505 18.4477L16.8528 4.86566C16.8907 4.60176 17.0382 4.36283 17.263 4.20142C17.4877 4.04 17.7714 3.96934 18.0514 4.00496C18.3315 4.04059 18.5851 4.17959 18.7564 4.39138C18.9277 4.60318 19.0027 4.87042 18.9649 5.13431L19.6197 21.2736L23.189 0.995022C23.189 0.731126 23.3003 0.478038 23.4984 0.291435C23.6964 0.104833 23.965 0 24.2451 0C24.5252 0 24.7938 0.104833 24.9918 0.291435C25.1899 0.478038 25.3011 0.731126 25.3011 0.995022L27.7617 20.2885L30.5813 8.88555C30.6402 8.66675 30.7762 8.47332 30.9672 8.33699C31.1581 8.20067 31.3925 8.12957 31.632 8.13535C31.8715 8.14114 32.1018 8.22347 32.285 8.36883C32.4683 8.51419 32.5937 8.71395 32.6406 8.9353L34.0556 16.2686L36.9492 8.7761C37.0263 8.57386 37.1709 8.4006 37.3613 8.28222C37.5516 8.16384 37.7775 8.10671 38.0052 8.11938C38.2339 8.13677 38.4504 8.22387 38.6218 8.36749C38.7933 8.51111 38.9105 8.70345 38.9556 8.9154L40.4024 15.7313L42.2293 11.7512C42.296 11.5494 42.434 11.3751 42.6204 11.2575C42.8067 11.1398 43.0302 11.0858 43.2537 11.1044C43.4634 11.1062 43.6678 11.1668 43.8408 11.2784C44.0138 11.3901 44.1477 11.5477 44.2253 11.7313L45.3658 14.398L46.4957 11.7313C46.5782 11.5347 46.7251 11.3679 46.9149 11.2551C47.1048 11.1424 47.3279 11.0896 47.5518 11.1044C47.7747 11.1195 47.9869 11.2008 48.1577 11.3367C48.3285 11.4726 48.4491 11.6561 48.5022 11.8607L49.3576 15.0845H51.702C51.9821 15.0845 52.2507 15.1894 52.4487 15.376C52.6468 15.5626 52.758 15.8157 52.758 16.0796Z" fill="#035CB8"/>
<path d="M6.31 45.7C6.31 46.02 6.37667 46.3033 6.51 46.55C6.65 46.79 6.83667 46.98 7.07 47.12C7.31 47.26 7.58 47.33 7.88 47.33C8.18 47.33 8.44667 47.26 8.68 47.12C8.92 46.98 9.10667 46.79 9.24 46.55C9.38 46.3033 9.45 46.02 9.45 45.7C9.45 45.38 9.38 45.0967 9.24 44.85C9.10667 44.5967 8.92 44.4 8.68 44.26C8.44667 44.12 8.18 44.05 7.88 44.05C7.58 44.05 7.31 44.12 7.07 44.26C6.83667 44.4 6.65 44.5967 6.51 44.85C6.37667 45.0967 6.31 45.38 6.31 45.7ZM8.3 41H9.37L7.18 43.89L7.12 43.84C7.25333 43.6733 7.40667 43.5633 7.58 43.51C7.76 43.4567 7.96333 43.43 8.19 43.43C8.47667 43.43 8.74333 43.4867 8.99 43.6C9.24333 43.7133 9.46333 43.8733 9.65 44.08C9.84333 44.2867 9.99333 44.53 10.1 44.81C10.2067 45.0833 10.26 45.38 10.26 45.7C10.26 46.18 10.1533 46.6 9.94 46.96C9.73333 47.32 9.45 47.6 9.09 47.8C8.73667 48 8.33333 48.1 7.88 48.1C7.43333 48.1 7.03 48 6.67 47.8C6.31 47.6 6.02333 47.32 5.81 46.96C5.60333 46.6 5.5 46.18 5.5 45.7C5.5 45.4133 5.54 45.1467 5.62 44.9C5.7 44.6533 5.80667 44.4367 5.94 44.25L8.3 41ZM12.0117 44.5C12.0117 44.9067 12.0517 45.2833 12.1317 45.63C12.2117 45.97 12.3284 46.2667 12.4817 46.52C12.6351 46.7667 12.8184 46.96 13.0317 47.1C13.2517 47.2333 13.4951 47.3 13.7617 47.3C14.0351 47.3 14.2784 47.2333 14.4917 47.1C14.7051 46.96 14.8884 46.7667 15.0417 46.52C15.1951 46.2667 15.3117 45.97 15.3917 45.63C15.4717 45.2833 15.5117 44.9067 15.5117 44.5C15.5117 44.0933 15.4717 43.72 15.3917 43.38C15.3117 43.0333 15.1951 42.7367 15.0417 42.49C14.8884 42.2367 14.7051 42.0433 14.4917 41.91C14.2784 41.77 14.0351 41.7 13.7617 41.7C13.4951 41.7 13.2517 41.77 13.0317 41.91C12.8184 42.0433 12.6351 42.2367 12.4817 42.49C12.3284 42.7367 12.2117 43.0333 12.1317 43.38C12.0517 43.72 12.0117 44.0933 12.0117 44.5ZM11.1617 44.5C11.1617 43.8 11.2717 43.18 11.4917 42.64C11.7117 42.1 12.0151 41.6767 12.4017 41.37C12.7951 41.0567 13.2484 40.9 13.7617 40.9C14.2751 40.9 14.7251 41.0567 15.1117 41.37C15.5051 41.6767 15.8117 42.1 16.0317 42.64C16.2517 43.18 16.3617 43.8 16.3617 44.5C16.3617 45.2 16.2517 45.82 16.0317 46.36C15.8117 46.9 15.5051 47.3267 15.1117 47.64C14.7251 47.9467 14.2751 48.1 13.7617 48.1C13.2484 48.1 12.7951 47.9467 12.4017 47.64C12.0151 47.3267 11.7117 46.9 11.4917 46.36C11.2717 45.82 11.1617 45.2 11.1617 44.5ZM17.4578 46V45.25H23.4578V46H17.4578ZM24.9602 42.38V41.5L27.3602 40.9V48H26.5102V41.92L24.9602 42.38ZM29.9121 44.5C29.9121 44.9067 29.9521 45.2833 30.0321 45.63C30.1121 45.97 30.2288 46.2667 30.3821 46.52C30.5354 46.7667 30.7188 46.96 30.9321 47.1C31.1521 47.2333 31.3954 47.3 31.6621 47.3C31.9354 47.3 32.1788 47.2333 32.3921 47.1C32.6054 46.96 32.7888 46.7667 32.9421 46.52C33.0954 46.2667 33.2121 45.97 33.2921 45.63C33.3721 45.2833 33.4121 44.9067 33.4121 44.5C33.4121 44.0933 33.3721 43.72 33.2921 43.38C33.2121 43.0333 33.0954 42.7367 32.9421 42.49C32.7888 42.2367 32.6054 42.0433 32.3921 41.91C32.1788 41.77 31.9354 41.7 31.6621 41.7C31.3954 41.7 31.1521 41.77 30.9321 41.91C30.7188 42.0433 30.5354 42.2367 30.3821 42.49C30.2288 42.7367 30.1121 43.0333 30.0321 43.38C29.9521 43.72 29.9121 44.0933 29.9121 44.5ZM29.0621 44.5C29.0621 43.8 29.1721 43.18 29.3921 42.64C29.6121 42.1 29.9154 41.6767 30.3021 41.37C30.6954 41.0567 31.1488 40.9 31.6621 40.9C32.1754 40.9 32.6254 41.0567 33.0121 41.37C33.4054 41.6767 33.7121 42.1 33.9321 42.64C34.1521 43.18 34.2621 43.8 34.2621 44.5C34.2621 45.2 34.1521 45.82 33.9321 46.36C33.7121 46.9 33.4054 47.3267 33.0121 47.64C32.6254 47.9467 32.1754 48.1 31.6621 48.1C31.1488 48.1 30.6954 47.9467 30.3021 47.64C29.9154 47.3267 29.6121 46.9 29.3921 46.36C29.1721 45.82 29.0621 45.2 29.0621 44.5ZM35.9082 44.5C35.9082 44.9067 35.9482 45.2833 36.0282 45.63C36.1082 45.97 36.2249 46.2667 36.3782 46.52C36.5315 46.7667 36.7149 46.96 36.9282 47.1C37.1482 47.2333 37.3915 47.3 37.6582 47.3C37.9315 47.3 38.1749 47.2333 38.3882 47.1C38.6015 46.96 38.7849 46.7667 38.9382 46.52C39.0915 46.2667 39.2082 45.97 39.2882 45.63C39.3682 45.2833 39.4082 44.9067 39.4082 44.5C39.4082 44.0933 39.3682 43.72 39.2882 43.38C39.2082 43.0333 39.0915 42.7367 38.9382 42.49C38.7849 42.2367 38.6015 42.0433 38.3882 41.91C38.1749 41.77 37.9315 41.7 37.6582 41.7C37.3915 41.7 37.1482 41.77 36.9282 41.91C36.7149 42.0433 36.5315 42.2367 36.3782 42.49C36.2249 42.7367 36.1082 43.0333 36.0282 43.38C35.9482 43.72 35.9082 44.0933 35.9082 44.5ZM35.0582 44.5C35.0582 43.8 35.1682 43.18 35.3882 42.64C35.6082 42.1 35.9115 41.6767 36.2982 41.37C36.6915 41.0567 37.1449 40.9 37.6582 40.9C38.1715 40.9 38.6215 41.0567 39.0082 41.37C39.4015 41.6767 39.7082 42.1 39.9282 42.64C40.1482 43.18 40.2582 43.8 40.2582 44.5C40.2582 45.2 40.1482 45.82 39.9282 46.36C39.7082 46.9 39.4015 47.3267 39.0082 47.64C38.6215 47.9467 38.1715 48.1 37.6582 48.1C37.1449 48.1 36.6915 47.9467 36.2982 47.64C35.9115 47.3267 35.6082 46.9 35.3882 46.36C35.1682 45.82 35.0582 45.2 35.0582 44.5ZM44.4523 41H47.9023V41.8H45.3023V48H44.4523V41ZM49.648 47.2H53.498V41H54.348V47.2H55.198V49.1H54.448V48H48.798V41H49.648V47.2Z" fill="#0C54A0"/>
</svg>
