<svg width="134" height="138" viewBox="0 0 134 138" fill="none" xmlns="http://www.w3.org/2000/svg">
<path d="M45.7339 47.5157C56.0807 47.5157 64.4917 39.1046 64.4917 28.7578C64.4917 18.411 56.0807 10 45.7339 10C35.3871 10 26.9761 18.411 26.9761 28.7578C26.9761 39.1046 35.3871 47.5157 45.7339 47.5157ZM45.7339 13.2036C54.3085 13.2036 61.2882 20.1832 61.2882 28.7578C61.2882 37.3325 54.3085 44.3121 45.7339 44.3121C37.1593 44.3121 30.1796 37.3325 30.1796 28.7578C30.1796 20.1832 37.1593 13.2036 45.7339 13.2036Z" fill="#B6C5D7"/>
<path d="M92.9425 54.7551C102.076 54.7551 109.492 47.3256 109.492 38.2057C109.492 29.0858 102.062 21.6562 92.9425 21.6562C83.8226 21.6562 76.3931 29.0858 76.3931 38.2057C76.3931 47.3256 83.8226 54.7551 92.9425 54.7551ZM92.9425 24.8598C100.304 24.8598 106.288 30.8443 106.288 38.2057C106.288 45.567 100.304 51.5515 92.9425 51.5515C85.5811 51.5515 79.5966 45.567 79.5966 38.2057C79.5966 30.8443 85.5811 24.8598 92.9425 24.8598Z" fill="#B6C5D7"/>
<path d="M125.141 73.6896C123.941 70.745 122.196 68.1004 119.974 65.8238C117.725 63.5336 115.094 61.7342 112.163 60.48C109.109 59.1713 105.879 58.5034 102.539 58.5034H82.554C79.9503 58.5034 77.3874 58.926 74.9336 59.7439C74.0884 60.0302 73.6386 60.9435 73.9248 61.7751C74.1566 62.4431 74.77 62.8657 75.4517 62.8657C75.6152 62.8657 75.7925 62.8384 75.9697 62.7839C78.0827 62.075 80.3047 61.7069 82.5676 61.7069H102.552C105.442 61.7069 108.264 62.2795 110.909 63.4109C113.458 64.5015 115.748 66.0692 117.698 68.0595C119.633 70.0362 121.147 72.3264 122.183 74.8892C123.26 77.5475 123.791 80.3421 123.737 83.2321C123.573 91.7794 121.487 99.0181 117.52 104.744C114.971 108.438 111.645 111.451 107.664 113.7C103.384 116.126 98.2719 117.68 92.4782 118.335C92.2465 118.362 92.0147 118.376 91.783 118.376C90.5697 118.376 89.4519 118.021 88.4976 117.408C88.4567 117.381 88.4158 117.353 88.3749 117.326C86.9572 116.358 85.962 114.804 85.7576 112.977C85.3759 109.651 87.7887 106.638 91.115 106.257C98.8444 105.384 104.202 102.631 107.528 97.8185C110.105 94.0969 111.468 89.1075 111.59 82.9867C111.604 82.1006 110.909 81.3645 110.023 81.3508C109.137 81.3372 108.401 82.0324 108.387 82.9185C108.278 88.3987 107.105 92.7882 104.897 95.9918C102.13 99.986 97.5085 102.303 90.7606 103.067C90.0108 103.149 89.3019 103.326 88.6203 103.571C87.1208 98.9363 82.7585 95.651 77.7146 95.651H62.133C56.8301 95.651 52.3588 99.2362 51.0501 104.157C50.164 103.803 49.2234 103.558 48.2555 103.449C40.4307 102.562 35.0732 99.8769 31.856 95.2284C29.2932 91.5204 27.93 86.422 27.8073 80.0967C27.7937 79.2242 27.0712 78.5154 26.1987 78.5154H26.1714C25.2854 78.529 24.5765 79.2651 24.6037 80.1512C24.7401 87.1309 26.2941 92.8155 29.225 97.0414C33.0011 102.494 39.1083 105.63 47.9011 106.625C49.8096 106.843 51.5272 107.784 52.7269 109.297C53.9265 110.796 54.4718 112.691 54.2537 114.6C54.0219 116.644 52.9586 118.417 51.4182 119.562C51.3637 119.589 51.3091 119.63 51.2682 119.671C50.0959 120.502 48.6509 120.993 47.1104 120.993C46.8378 120.993 46.5651 120.979 46.2925 120.952C39.6127 120.202 33.7237 118.403 28.7752 115.608C24.1675 113.005 20.3233 109.515 17.3787 105.248C12.8119 98.6364 10.3991 90.2799 10.2082 80.4239C10.14 77.084 10.7535 73.8259 12.0076 70.7587C13.2073 67.8005 14.9658 65.1422 17.2151 62.852C19.4781 60.5482 22.1227 58.7351 25.0809 57.4673C28.1481 56.145 31.4062 55.4907 34.7597 55.4907H57.3754C60.7698 55.4907 64.0552 56.1723 67.136 57.5355C67.3405 57.6309 67.5586 57.6718 67.7768 57.6718C68.3902 57.6718 68.9764 57.3174 69.249 56.7176C69.6035 55.8996 69.249 54.959 68.4311 54.6046C64.9413 53.0778 61.2197 52.2871 57.3891 52.2871H34.7733C30.9836 52.2871 27.2893 53.0369 23.8267 54.5228C20.4732 55.9542 17.4878 57.999 14.9249 60.6164C12.3893 63.2065 10.3991 66.2192 9.03584 69.559C7.61809 73.0352 6.93649 76.7159 7.00465 80.492C7.20913 90.9888 9.81287 99.9451 14.7477 107.075C17.4741 111.014 20.8958 114.354 24.9173 116.999V126.923C24.9173 127.809 25.6398 128.532 26.5259 128.532C27.412 128.532 28.1345 127.809 28.1345 126.923V118.907C33.2602 121.62 39.2447 123.392 45.9517 124.142C46.347 124.183 46.7424 124.21 47.1377 124.21C48.3918 124.21 49.5915 123.992 50.7093 123.583V126.937C50.7093 127.823 51.4318 128.545 52.3179 128.545C53.204 128.545 53.9265 127.823 53.9265 126.937V121.702C55.8623 120.039 57.1846 117.68 57.4845 114.968C57.798 112.2 57.0074 109.474 55.2761 107.306C54.8807 106.816 54.4581 106.366 53.9947 105.97C54.5536 101.922 58.0025 98.8681 62.1603 98.8681H77.7418C81.627 98.8681 84.926 101.567 85.7848 105.262C83.5355 107.197 82.2541 110.183 82.6085 113.345C82.8948 115.854 84.1626 118.035 86.0029 119.534V126.964C86.0029 127.85 86.7254 128.573 87.6115 128.573C88.4976 128.573 89.2201 127.85 89.2201 126.964V121.225C90.0517 121.47 90.9241 121.607 91.8375 121.607C92.1919 121.607 92.5327 121.593 92.8872 121.552C98.6399 120.898 103.779 119.412 108.21 117.108V126.978C108.21 127.864 108.932 128.586 109.818 128.586C110.704 128.586 111.427 127.864 111.427 126.978V115.213C114.903 112.896 117.848 110.006 120.22 106.598C124.541 100.34 126.831 92.5156 126.995 83.3275C127.063 80.0149 126.463 76.7704 125.209 73.7168L125.141 73.6896Z" fill="#B6C5D7"/>
<path d="M56.6938 78.4068C56.6938 85.6864 62.6238 91.6164 69.9034 91.6164C77.183 91.6164 83.1129 85.6864 83.1129 78.4068C83.1129 71.1273 77.183 65.1973 69.9034 65.1973C62.6238 65.1973 56.6938 71.1273 56.6938 78.4068ZM69.9034 68.4145C75.4108 68.4145 79.8958 72.8994 79.8958 78.4068C79.8958 83.9142 75.4108 88.3992 69.9034 88.3992C64.396 88.3992 59.911 83.9142 59.911 78.4068C59.911 72.8994 64.396 68.4145 69.9034 68.4145Z" fill="#B6C5D7"/>
</svg>
