<svg width="134" height="138" viewBox="0 0 134 138" fill="none" xmlns="http://www.w3.org/2000/svg">
<path d="M32.0009 111.994C39.0665 116.017 57.5333 126.031 66.3063 126.029C66.5056 126.029 66.7012 126.024 66.8896 126.014C82.3387 125.153 118.763 99.7092 121.174 98.0129C123.536 96.6507 125 94.1302 125 91.4113C125 88.7803 123.665 86.3694 121.43 84.9629C119.173 83.5455 116.391 83.3879 113.991 84.5408L91.5115 95.3221C91.401 91.1414 87.9467 87.7741 83.7153 87.7741L70.8057 87.7777C64.4297 82.2802 56.2876 78.9129 48.8846 78.7381C41.6036 78.5655 35.0668 78.5171 32.0009 78.5035V74.8428H10V117.025H32.0009V111.994ZM32.0063 82.2132C35.0711 82.2268 41.5739 82.2757 48.7976 82.446C55.5522 82.6063 63.0567 85.8097 68.8694 91.0146C69.2099 91.319 69.6501 91.4874 70.1066 91.4874L83.7153 91.4838C85.9705 91.4838 87.8054 93.2988 87.8054 95.5295C87.8054 96.3129 87.579 97.0456 87.1877 97.666C87.1678 97.695 87.1478 97.7249 87.1298 97.7556C86.398 98.8515 85.1409 99.5761 83.7153 99.5761H57.4216C56.3963 99.5761 55.5667 100.407 55.5667 101.431C55.5667 102.455 56.3963 103.286 57.4216 103.286H83.7153C86.2603 103.286 88.5245 102.067 89.9501 100.187L115.597 87.8855C116.842 87.2841 118.283 87.3675 119.454 88.1038C120.622 88.8374 121.29 90.0429 121.29 91.4113C121.29 92.8224 120.519 94.1302 119.274 94.8249C119.218 94.8566 119.164 94.891 119.111 94.9281C118.734 95.1935 81.2754 121.497 66.6831 122.31C59.2728 122.705 39.969 112.383 32.0063 107.718V82.2132ZM28.2912 113.315H13.7097V78.5525H28.2912V113.315Z" fill="#B6C5D7"/>
<path d="M20.9996 108.758C22.799 108.758 24.2458 107.293 24.2458 105.493C24.2458 103.712 22.799 102.266 20.9996 102.266C19.2189 102.266 17.7534 103.712 17.7534 105.493C17.7534 107.293 19.2189 108.758 20.9996 108.758Z" fill="#B6C5D7"/>
<path d="M65.6453 73.5111C82.8786 73.5111 96.9004 59.4903 96.9004 42.256C96.9004 25.0218 82.8786 11 65.6453 11C48.4119 11 34.3901 25.0218 34.3901 42.256C34.3901 59.4903 48.4119 73.5111 65.6453 73.5111ZM65.6453 14.7097C80.8336 14.7097 93.1907 27.0668 93.1907 42.256C93.1907 57.4443 80.8336 69.8015 65.6453 69.8015C50.457 69.8015 38.0998 57.4443 38.0998 42.256C38.0998 27.0668 50.457 14.7097 65.6453 14.7097Z" fill="#B6C5D7"/>
<path d="M65.6454 20.3829C66.7648 20.3829 67.6742 19.4736 67.6742 18.3569C67.6742 17.2384 66.7648 16.3291 65.6454 16.3291C64.526 16.3291 63.6167 17.2384 63.6167 18.3569C63.6167 19.4736 64.526 20.3829 65.6454 20.3829Z" fill="#B6C5D7"/>
<path d="M65.6454 64.127C64.526 64.127 63.6167 65.0363 63.6167 66.1548C63.6167 67.2715 64.526 68.1799 65.6454 68.1799C68.329 68.1799 68.329 64.127 65.6454 64.127Z" fill="#B6C5D7"/>
<path d="M50.1884 26.7802C50.9691 25.9895 50.9655 24.708 50.1721 23.9146C49.4838 23.2326 48.0257 23.2281 47.3319 23.9065C46.5409 24.6754 46.5219 25.9889 47.3048 26.782C48.0911 27.5807 49.4144 27.5664 50.1884 26.7802Z" fill="#B6C5D7"/>
<path d="M83.9675 60.5959C84.7859 59.7891 84.75 58.5041 83.9875 57.7294C83.1679 56.9001 81.8602 56.9602 81.102 57.7304C80.3267 58.5156 80.3267 59.7944 81.102 60.5796C81.8718 61.3615 83.1801 61.3751 83.9675 60.5959Z" fill="#B6C5D7"/>
<path d="M41.748 40.2285C40.6285 40.2285 39.7192 41.1378 39.7192 42.2563C39.7192 43.3749 40.6285 44.2842 41.748 44.2842C42.8637 44.2842 43.7731 43.3749 43.7731 42.2563C43.7731 41.1378 42.8637 40.2285 41.748 40.2285Z" fill="#B6C5D7"/>
<path d="M89.5444 44.2842C92.221 44.2842 92.2247 40.2285 89.5444 40.2285C88.4249 40.2285 87.5156 41.1378 87.5156 42.2563C87.5156 43.3749 88.4249 44.2842 89.5444 44.2842Z" fill="#B6C5D7"/>
<path d="M47.3009 57.7279C46.5256 58.5132 46.5256 59.792 47.319 60.5953C48.1054 61.3735 49.4172 61.3603 50.1882 60.5772C50.9617 59.7929 50.9617 58.515 50.1683 57.7116C49.3578 56.9107 48.071 56.9458 47.3009 57.7279Z" fill="#B6C5D7"/>
<path d="M83.9692 26.7982C84.7805 25.9965 84.7543 24.7117 83.9855 23.9327C83.1742 23.1097 81.8775 23.1551 81.1108 23.9218C80.3247 24.707 80.3211 25.9895 81.1198 26.7982C81.8933 27.5636 83.1842 27.5709 83.9692 26.7982Z" fill="#B6C5D7"/>
<path d="M55.2805 55.5711L63.9642 46.887V57.2132C63.9642 58.2375 64.7938 59.068 65.819 59.068C66.8443 59.068 67.6739 58.2375 67.6739 57.2132V45.7221C69.114 44.9032 69.9661 43.217 69.4504 41.4004L71.1481 39.7027C71.8726 38.9781 71.8726 37.8044 71.1481 37.0798C70.4235 36.3553 69.2498 36.3553 68.5252 37.0798L67.6739 37.9312V25.5296C67.6739 24.5053 66.8443 23.6748 65.819 23.6748C64.7938 23.6748 63.9642 24.5053 63.9642 25.5296V39.1337C62.5302 39.9469 61.682 41.625 62.1756 43.4298L52.6577 52.9483C51.9331 53.6728 51.9331 54.8466 52.6577 55.5711C53.3822 56.2957 54.556 56.2957 55.2805 55.5711Z" fill="#B6C5D7"/>
</svg>
