<svg width="154" height="154" viewBox="0 0 154 154" fill="none" xmlns="http://www.w3.org/2000/svg">
<path d="M54.2446 45.4775C53.9474 45.4775 53.7641 45.4712 53.7008 45.468C52.6955 45.4206 51.921 44.567 51.9684 43.5648C52.0158 42.5627 52.8599 41.7881 53.8684 41.8324C54.0265 41.8387 70.058 42.3382 83.0735 26.9959C83.6078 26.3668 84.4962 26.1771 85.2391 26.528C85.9852 26.8789 86.3993 27.6882 86.2539 28.5007C86.2476 28.5418 85.4731 33.2586 88.429 36.9796C90.74 39.885 94.7392 41.5194 100.316 41.8356C101.321 41.8925 102.086 42.7524 102.029 43.7577C101.972 44.763 101.119 45.5281 100.107 45.4712C93.4208 45.0918 88.5207 42.9831 85.5394 39.1989C83.8449 37.046 83.0641 34.7066 82.7321 32.7117C70.4911 44.7883 57.1278 45.4775 54.2446 45.4775Z" fill="#B6C5D7"/>
<path d="M47.6686 112.555C46.6601 112.555 45.8413 111.736 45.8413 110.728V91.8605C45.8413 90.852 46.6601 90.0332 47.6686 90.0332C48.6771 90.0332 49.4959 90.852 49.4959 91.8605V110.728C49.4991 111.736 48.6803 112.555 47.6686 112.555Z" fill="#B6C5D7"/>
<path d="M47.6683 126.245C42.8851 126.245 38.9966 122.353 38.9966 117.573C38.9966 112.793 42.8883 108.901 47.6683 108.901C52.4516 108.901 56.3401 112.79 56.3401 117.573C56.3401 122.356 52.4516 126.245 47.6683 126.245ZM47.6683 112.556C44.9021 112.556 42.6512 114.807 42.6512 117.573C42.6512 120.339 44.9021 122.59 47.6683 122.59C50.4346 122.59 52.6855 120.339 52.6855 117.573C52.6855 114.807 50.4346 112.556 47.6683 112.556Z" fill="#B6C5D7"/>
<path d="M113.172 126.244H109.752C108.743 126.244 107.924 125.425 107.924 124.417C107.924 123.408 108.743 122.59 109.752 122.59H111.345V117.573C111.345 113.864 108.326 110.845 104.617 110.845C100.909 110.845 97.8899 113.864 97.8899 117.573V122.59H99.4833C100.492 122.59 101.311 123.408 101.311 124.417C101.311 125.425 100.492 126.244 99.4833 126.244H96.0626C95.0542 126.244 94.2354 125.425 94.2354 124.417V117.573C94.2354 111.847 98.8921 107.19 104.617 107.19C110.343 107.19 115 111.847 115 117.573V124.417C115.003 125.425 114.184 126.244 113.172 126.244Z" fill="#B6C5D7"/>
<path d="M104.618 110.845C103.61 110.845 102.791 110.027 102.791 109.018V91.3332C102.791 90.3247 103.61 89.5059 104.618 89.5059C105.627 89.5059 106.446 90.3247 106.446 91.3332V109.018C106.449 110.027 105.63 110.845 104.618 110.845Z" fill="#B6C5D7"/>
<path d="M110.593 95.1024C109.588 95.1024 108.772 94.2867 108.772 93.2814V42.3068C108.772 24.7862 94.5207 10.5345 77.0001 10.5345C68.5496 10.5345 60.5829 13.8509 54.5635 19.8702C48.5442 25.8895 45.2279 33.8595 45.2279 42.3068V93.2814C45.2279 94.2867 44.4122 95.1024 43.4069 95.1024C42.4016 95.1024 41.5859 94.2867 41.5859 93.2814V42.3068C41.5859 22.7787 57.472 6.89258 77.0001 6.89258C96.5282 6.89258 112.414 22.7787 112.414 42.3068V93.2814C112.414 94.2899 111.599 95.1024 110.593 95.1024Z" fill="#B6C5D7"/>
<path d="M132.78 147.107H21.22C18.6181 147.107 16.5 144.985 16.5 142.38V115.404C16.5 106.628 22.0262 98.6802 30.249 95.6295C30.2743 95.62 30.2964 95.6136 30.3217 95.6042L61.2182 85.6046V76.6989C61.2182 75.6936 62.0339 74.8779 63.0392 74.8779C64.0445 74.8779 64.8602 75.6936 64.8602 76.6989V86.8881C64.8633 87.0209 64.8507 87.1505 64.8254 87.2802C64.7748 87.5394 64.6705 87.7797 64.5219 87.9852C64.3638 88.2065 64.1552 88.3961 63.9054 88.5321C63.7948 88.5921 63.681 88.6396 63.5577 88.6775L31.4788 99.0533C24.6944 101.589 20.1388 108.152 20.1388 115.401V142.377C20.1388 142.975 20.6225 143.462 21.2168 143.462H132.78C133.374 143.462 133.858 142.975 133.858 142.377V115.401C133.858 108.152 129.302 101.586 122.518 99.0533L90.4392 88.6743C90.3159 88.6364 90.1957 88.589 90.0851 88.5258C89.8448 88.393 89.6425 88.2128 89.4876 87.9978C89.3327 87.786 89.2252 87.5394 89.1714 87.2707C89.1462 87.1442 89.1367 87.0178 89.1398 86.8881V76.7685C89.1398 75.7631 89.9555 74.9475 90.9608 74.9475C91.9661 74.9475 92.7818 75.7631 92.7818 76.7685V85.6046L123.678 95.601C123.704 95.6105 123.726 95.6168 123.751 95.6263C131.974 98.6771 137.5 106.625 137.5 115.401V142.377C137.503 144.985 135.385 147.107 132.78 147.107Z" fill="#B6C5D7"/>
<path d="M76.9964 83.187C63.3391 83.187 52.1098 72.0778 51.9644 58.4236V43.6472C51.9644 42.6418 52.78 41.8262 53.7853 41.8262C54.7907 41.8262 55.6063 42.6418 55.6063 43.6472V58.4046C55.7296 70.0544 65.3245 79.545 76.9964 79.545C88.6684 79.545 98.2664 70.0513 98.3929 58.3857V43.6503C98.3929 42.645 99.2085 41.8293 100.214 41.8293C101.219 41.8293 102.035 42.645 102.035 43.6503V58.4078C101.962 65.0562 99.3255 71.2779 94.6118 75.9442C89.8918 80.6136 83.6354 83.187 76.9964 83.187Z" fill="#B6C5D7"/>
<path d="M77.0001 104.867C76.4721 104.867 75.9695 104.636 75.6249 104.238L61.6609 88.1208C61.0033 87.362 61.0855 86.2113 61.8443 85.5505C62.603 84.893 63.7537 84.9752 64.4145 85.7339L77.0032 100.264L89.592 85.7371C90.2496 84.9783 91.4003 84.8961 92.1622 85.5537C92.9241 86.2113 93.0032 87.362 92.3456 88.1239L78.3816 104.238C78.0307 104.636 77.528 104.867 77.0001 104.867Z" fill="#B6C5D7"/>
<path d="M76.9997 147.107C75.9944 147.107 75.1787 146.292 75.1787 145.286V103.047C75.1787 102.041 75.9944 101.226 76.9997 101.226C78.005 101.226 78.8207 102.041 78.8207 103.047V145.286C78.8207 146.292 78.005 147.107 76.9997 147.107Z" fill="#B6C5D7"/>
</svg>
