<svg width="154" height="154" viewBox="0 0 154 154" fill="none" xmlns="http://www.w3.org/2000/svg">
<rect width="154" height="154" fill="white"/>
<path d="M110.873 143.003L108.579 126.368C108.308 124.387 106.597 122.893 104.598 122.893H96.8462C104.792 112.762 109.826 99.679 109.826 86.4086C109.826 59.7367 89.5472 36.1236 65.1884 32.8828C62.9947 30.5367 59.8836 29.0608 56.4254 29.0608C55.5256 29.0608 54.6493 29.1666 53.8024 29.3548V21.1051C53.8024 18.6473 52.0086 16.607 49.6562 16.2189V7.25203C49.6562 6.00549 48.6446 5 47.3978 5H29.7373C28.4905 5 27.4848 6.01136 27.4848 7.25203L27.4789 16.213C25.1323 16.607 23.3327 18.6473 23.3327 21.0993V79.9808C23.3327 82.715 25.5617 84.9435 28.2964 84.9435H48.8341C51.5689 84.9435 53.7979 82.715 53.7979 79.9808V52.7626C54.6448 52.9507 55.521 53.0566 56.4209 53.0566C59.832 53.0566 62.9137 51.616 65.1015 49.3227C80.5925 52.5684 93.5721 68.7738 93.5721 86.402C93.5721 99.8023 85.3149 116.477 72.8884 122.887H51.6521V118.929C56.4512 118.471 60.2269 114.419 60.2269 109.498C60.2269 108.251 59.2153 107.246 57.9685 107.246H19.159C17.9122 107.246 16.9065 108.257 16.9065 109.498C16.9065 114.419 20.6764 118.471 25.4813 118.929V122.887H14.3776C12.378 122.887 10.6606 124.38 10.3902 126.362L8.03774 143.425C7.87895 144.584 8.22594 145.742 8.99049 146.612C9.74917 147.494 10.8549 148 12.0251 148H106.954C109.183 148 111 146.195 111 143.972C110.994 143.643 110.959 143.32 110.876 143.002L110.873 143.003ZM31.9875 9.50991H45.132V16.1365H31.9875V9.50991ZM49.2837 79.9865C49.2837 80.2334 49.0837 80.4392 48.8308 80.4392L28.2932 80.4334C28.0462 80.4334 27.8403 80.2334 27.8403 79.9806V21.1051C27.8403 20.8582 28.0462 20.6524 28.2932 20.6524H48.8308C49.0778 20.6524 49.2837 20.8523 49.2837 21.1051V31.4303C46.3373 33.6176 44.414 37.1162 44.414 41.0616C44.414 45.0071 46.3371 48.5056 49.2837 50.6929V79.9865ZM56.4176 48.552C52.289 48.552 48.9249 45.1945 48.9249 41.0609C48.9249 36.9273 52.2831 33.5698 56.4176 33.5698C60.5462 33.5698 63.9103 36.9273 63.9103 41.0609C63.9103 45.1886 60.5462 48.552 56.4176 48.552ZM98.0801 86.4019C98.0801 76.0943 93.9868 65.5404 86.8647 57.4376C81.407 51.2342 74.7731 47.0713 67.6444 45.2543C68.1326 43.9489 68.4208 42.5377 68.4208 41.0559C68.4208 39.974 68.262 38.9392 67.9973 37.9454C88.6645 42.5142 105.301 63.1993 105.301 86.4015C105.301 99.9313 99.6846 113.255 91.057 122.886H81.0119C91.5745 114.219 98.0801 99.2193 98.0801 86.4019ZM21.9593 111.763H55.171C54.3476 113.368 52.6714 114.467 50.7483 114.467H26.3759C24.4528 114.467 22.7827 113.368 21.9593 111.763ZM47.1372 118.983V122.894H29.9871V118.983H47.1372ZM12.5795 143.491L14.8026 127.402H104.167L106.39 143.491H12.5795Z" fill="#0C54A0"/>
</svg>
