<svg width="134" height="138" viewBox="0 0 134 138" fill="none" xmlns="http://www.w3.org/2000/svg">
<path d="M122.311 94.9008C120.568 91.0315 116.036 89.2885 112.167 91.0141C113.369 87.8593 113.997 84.3734 113.997 80.6087C113.997 65.5845 104.079 43.8326 90.6065 35.972L98.4149 15.353C98.624 14.8127 98.5369 14.2201 98.2231 13.7495C97.8922 13.2789 97.3517 13 96.7765 13H79.8525C79.1902 13 78.5976 13.366 78.3013 13.9412L75.4952 19.3617L73.8917 14.2201C73.6651 13.488 72.9853 13 72.2185 13H62.9111C62.336 13 61.8131 13.2789 61.4819 13.7495C61.1508 14.2201 61.0811 14.8127 61.2902 15.353L67.8587 32.689C64.3702 30.8794 59.508 29.0143 55.6722 30.0986C54.7446 30.359 54.2067 31.3223 54.4689 32.2483C54.7293 33.1777 55.7029 33.719 56.6186 33.4517C59.4085 32.6626 63.688 34.4031 66.8699 36.1182C62.9038 37.0812 56.7397 38.3277 52.3958 38.0234C51.4358 37.9826 50.6053 38.6821 50.5371 39.6438C50.4725 40.6038 51.1958 41.4361 52.1575 41.5025C52.675 41.5382 53.2145 41.5536 53.7677 41.5536C56.7356 41.5536 60.128 41.0737 63.1677 40.4912C52.8 50.3399 45.7085 67.8699 45.7085 80.6087C45.7085 82.5434 45.8653 84.4083 46.1965 86.1861C44.0875 85.6807 41.9263 85.4366 39.7476 85.4366H39.6779V80.1904C39.6779 79.2143 38.911 78.4474 37.935 78.4474H13.7429C12.7843 78.4474 12 79.2143 12 80.1904V119.581C12 120.539 12.7843 121.324 13.7429 121.324H37.935C38.911 121.324 39.6779 120.539 39.6779 119.581V115.624L56.4624 121.951C60.9941 123.659 65.7349 124.531 70.5803 124.531C76.8026 124.531 83.0249 123.049 88.6023 120.243L118.738 105.027C122.45 103.162 124.019 98.7004 122.311 94.9008ZM36.192 117.838H15.4859V81.9333H36.192V117.838ZM70.9463 16.4859L73.4387 24.4511C73.6478 25.1309 74.2404 25.6015 74.9376 25.6712C75.6522 25.7409 76.3145 25.3575 76.6457 24.73L80.9159 16.4859H94.2668L87.2253 35.0308C84.1229 35.048 75.5651 35.048 72.4801 35.0308L65.4386 16.4859H70.9463ZM49.1944 80.6087C49.1944 66.1946 58.7978 45.2793 71.6957 38.4992C72.9453 38.6381 87.7294 38.4476 87.9051 38.4469C100.873 45.1921 110.511 66.1771 110.511 80.6087C110.511 85.6632 109.291 89.8289 107.234 93.2102L88.2537 101.663C88.306 101.263 88.3408 100.844 88.3408 100.426C88.3408 96.0686 84.8201 92.5304 80.4976 92.5304H66.3275C58.0689 92.5304 54.5156 89.0919 49.9961 87.3539C49.4731 85.3146 49.1944 83.0662 49.1944 80.6087ZM117.169 101.907L87.0336 117.123C78.0052 121.69 67.1467 122.265 57.6825 118.692L39.6953 111.894V88.9225H39.7476C51.4867 88.9225 53.3373 96.0163 66.3275 96.0163H80.4976C82.9029 96.0163 84.8549 97.9858 84.8549 100.426C84.8549 102.796 82.9691 104.818 80.4976 104.818C75.7324 104.818 63.9025 104.818 59.53 104.818C58.5714 104.818 57.7871 105.602 57.7871 106.561C57.7871 107.52 58.5714 108.304 59.53 108.304C66.9121 108.304 73.2151 108.304 80.4976 108.304C82.8324 108.304 113.4 94.285 113.579 94.2036C115.688 93.245 118.18 94.2036 119.138 96.33C120.08 98.439 119.208 100.879 117.169 101.907Z" fill="#B6C5D7"/>
<path d="M25.8517 91.0565C27.5181 91.0565 28.8906 89.7036 28.8906 88.0175C28.8906 86.3314 27.5181 84.9785 25.8517 84.9785C24.1655 84.9785 22.793 86.3314 22.793 88.0175C22.793 89.7036 24.1655 91.0565 25.8517 91.0565Z" fill="#B6C5D7"/>
<path d="M67.6907 73.3364C66.7274 73.3364 65.9478 74.116 65.9478 75.0794C65.9478 76.0427 66.7274 76.8223 67.6907 76.8223H72.6523V83.4537C72.6523 84.417 73.4319 85.1966 74.3953 85.1966C75.3586 85.1966 76.1382 84.417 76.1382 83.4537V76.8223H85.3397C86.303 76.8223 87.0827 76.0427 87.0827 75.0794C87.0827 74.116 86.303 73.3364 85.3397 73.3364H76.1382V70.1334H84.8027C89.7352 70.1334 93.7614 66.1072 93.7614 61.1747C93.7614 56.2422 89.7352 52.2334 84.8027 52.2334H74.3974C74.012 52.2334 73.673 52.3847 73.3835 52.5985C72.9512 52.9156 72.6523 53.4024 72.6523 53.9802V66.6404H67.6907C66.7274 66.6404 65.9478 67.42 65.9478 68.3833C65.9478 69.3466 66.7274 70.1263 67.6907 70.1263H72.6523V73.3364H67.6907ZM76.1401 55.7193H84.8025C87.8178 55.7193 90.2754 58.1768 90.2754 61.1747C90.2754 64.19 87.8178 66.6475 84.8025 66.6475H76.1401V55.7193Z" fill="#B6C5D7"/>
</svg>
