<svg width="134" height="138" viewBox="0 0 134 138" fill="none" xmlns="http://www.w3.org/2000/svg">
<path d="M104.217 37.5333L104.216 37.5342L35.5519 106.216C35.5519 106.216 35.5518 106.217 35.5518 106.217C34.7503 107.018 33.8729 107.293 33.0595 107.239C32.2331 107.184 31.4339 106.787 30.8234 106.177C30.2129 105.566 29.8157 104.767 29.761 103.941C29.7072 103.127 29.982 102.25 30.7835 101.448L99.4481 32.7835C100.25 31.982 101.127 31.7072 101.941 31.7608C102.767 31.8152 103.566 32.212 104.177 32.8215C104.787 33.431 105.184 34.2285 105.239 35.0521C105.293 35.8626 105.018 36.7363 104.217 37.5333ZM93.8672 81.2344C101.936 81.2344 108.5 87.832 108.5 95.8672C108.5 103.919 101.919 110.5 93.8672 110.5C85.7969 110.5 79.2344 103.954 79.2344 95.8672C79.2344 87.7977 85.8146 81.2344 93.8672 81.2344ZM41.1328 57.7656C33.0636 57.7656 26.5 51.168 26.5 43.1328C26.5 35.0632 33.0802 28.5 41.1328 28.5C49.2197 28.5 55.7479 35.0444 55.7479 43.1328C55.7479 51.2031 49.1846 57.7656 41.1328 57.7656ZM49.022 43.1328C49.022 38.7641 45.4853 35.2259 41.1328 35.2259C36.7634 35.2259 33.2259 38.7634 33.2259 43.1328C33.2259 47.4845 36.7456 51.022 41.1328 51.022C45.4837 51.022 49.022 47.503 49.022 43.1328ZM85.978 95.8672C85.978 100.236 89.5147 103.774 93.8672 103.774C98.2366 103.774 101.774 100.237 101.774 95.8672C101.774 91.517 98.2559 87.9603 93.8672 87.9603C89.4962 87.9603 85.978 91.4993 85.978 95.8672Z" fill="#B6C5D7" stroke="white"/>
</svg>
