<svg width="154" height="154" viewBox="0 0 154 154" fill="none" xmlns="http://www.w3.org/2000/svg">
<path d="M122.147 140.501H31.8553C27.4594 140.501 23.8823 136.496 23.8823 131.574V81.239C23.8823 76.3174 27.4594 72.3125 31.8553 72.3125H122.147C126.543 72.3125 130.12 76.3174 130.12 81.239V131.574C130.12 136.496 126.546 140.501 122.147 140.501ZM31.8553 76.2092C29.3779 76.2092 27.3628 78.4653 27.3628 81.239V131.574C27.3628 134.348 29.3779 136.604 31.8553 136.604H122.147C124.625 136.604 126.64 134.348 126.64 131.574V81.239C126.64 78.4653 124.625 76.2092 122.147 76.2092H31.8553Z" fill="#B6C5D7"/>
<path d="M93.3219 131.025H34.0849C33.1242 131.025 32.3447 130.153 32.3447 129.077V83.7345C32.3447 82.6588 33.1242 81.7861 34.0849 81.7861H93.3219C94.2826 81.7861 95.0621 82.6588 95.0621 83.7345V129.077C95.0621 130.153 94.2826 131.025 93.3219 131.025ZM35.8252 127.129H91.5817V85.6828H35.8252V127.129Z" fill="#B6C5D7"/>
<path d="M109.963 76.2087H44.04C43.0793 76.2087 42.2998 75.336 42.2998 74.2604V68.0839C42.2998 61.7856 46.8769 56.6611 52.5024 56.6611H101.504C107.129 56.6611 111.706 61.7856 111.706 68.0839V74.2604C111.703 75.336 110.927 76.2087 109.963 76.2087ZM45.7802 72.312H108.223V68.0839C108.223 63.9335 105.208 60.5578 101.501 60.5578H52.5024C48.7954 60.5578 45.7802 63.9335 45.7802 68.0839V72.312Z" fill="#B6C5D7"/>
<path d="M121.713 86.7814H99.9902C99.0295 86.7814 98.25 85.9087 98.25 84.8331C98.25 83.7574 99.0295 82.8848 99.9902 82.8848H121.713C122.673 82.8848 123.453 83.7574 123.453 84.8331C123.453 85.9087 122.673 86.7814 121.713 86.7814Z" fill="#B6C5D7"/>
<path d="M121.713 97.5685H99.9902C99.0295 97.5685 98.25 96.6958 98.25 95.6202C98.25 94.5446 99.0295 93.6719 99.9902 93.6719H121.713C122.673 93.6719 123.453 94.5446 123.453 95.6202C123.453 96.6958 122.673 97.5685 121.713 97.5685Z" fill="#B6C5D7"/>
<path d="M121.713 108.352H99.9902C99.0295 108.352 98.25 107.479 98.25 106.403C98.25 105.328 99.0295 104.455 99.9902 104.455H121.713C122.673 104.455 123.453 105.328 123.453 106.403C123.453 107.479 122.673 108.352 121.713 108.352Z" fill="#B6C5D7"/>
<path d="M121.713 119.14H99.9902C99.0295 119.14 98.25 118.267 98.25 117.191C98.25 116.116 99.0295 115.243 99.9902 115.243H121.713C122.673 115.243 123.453 116.116 123.453 117.191C123.453 118.267 122.673 119.14 121.713 119.14Z" fill="#B6C5D7"/>
<path d="M121.713 129.927H99.9902C99.0295 129.927 98.25 129.054 98.25 127.979C98.25 126.903 99.0295 126.03 99.9902 126.03H121.713C122.673 126.03 123.453 126.903 123.453 127.979C123.453 129.054 122.673 129.927 121.713 129.927Z" fill="#B6C5D7"/>
<path d="M128.38 108.129C127.537 108.129 126.8 107.445 126.664 106.485C126.513 105.423 127.162 104.425 128.111 104.256C135.187 103.004 140.519 96.0192 140.519 88.006V47.2906C140.519 38.2187 133.927 30.8381 125.827 30.8381H109.392C108.431 30.8381 107.651 29.9654 107.651 28.8897C107.651 27.8141 108.431 26.9414 109.392 26.9414H125.827C135.848 26.9414 144 36.0708 144 47.2872V88.0026C144 97.9134 137.401 106.556 128.652 108.102C128.561 108.122 128.471 108.129 128.38 108.129Z" fill="#B6C5D7"/>
<path d="M25.6227 108.129C25.5321 108.129 25.4414 108.122 25.3478 108.105C16.5983 106.56 10 97.9173 10 88.0065V47.2912C10 36.0713 18.1543 26.9453 28.1726 26.9453H44.608C45.5688 26.9453 46.3482 27.818 46.3482 28.8936C46.3482 29.9693 45.5688 30.842 44.608 30.842H28.1726C20.0697 30.842 13.4774 38.2226 13.4774 47.2945V88.0099C13.4774 96.0231 18.8129 103.011 25.8855 104.26C26.8342 104.429 27.4838 105.426 27.3327 106.489C27.2058 107.446 26.4656 108.129 25.6227 108.129Z" fill="#B6C5D7"/>
<path d="M64.9738 120.607C64.2396 120.607 63.581 120.089 63.3333 119.311L60.0099 108.849H41.1304C40.1696 108.849 39.3901 107.977 39.3901 106.901C39.3901 105.825 40.1696 104.953 41.1304 104.953H61.2396C61.9767 104.953 62.6323 105.47 62.8801 106.248L64.7442 112.11L69.1672 93.6448C69.3666 92.8127 70.0313 92.2275 70.7987 92.2004C71.5631 92.1869 72.261 92.7214 72.4996 93.5399L75.9045 105.115L77.2701 101.719C77.5511 101.019 78.1735 100.572 78.8563 100.572H86.2764C87.2371 100.572 88.0166 101.445 88.0166 102.521C88.0166 103.596 87.2371 104.469 86.2764 104.469H79.9802L77.2369 111.291C76.9408 112.025 76.2731 112.482 75.5601 112.438C74.8441 112.394 74.2217 111.866 73.9982 111.102L71.0162 100.965L66.6566 119.166C66.4602 119.991 65.8076 120.573 65.0463 120.607C65.0191 120.607 64.9949 120.607 64.9738 120.607Z" fill="#B6C5D7"/>
<path d="M96.7032 44.2877H93.5309C89.8239 44.2877 86.8057 40.9085 86.8057 36.7582V21.0295C86.8057 16.8791 89.8239 13.5 93.5309 13.5H96.7032C100.41 13.5 103.428 16.8791 103.428 21.0295V36.7582C103.428 40.9085 100.41 44.2877 96.7032 44.2877ZM93.5309 17.3967C91.7423 17.3967 90.2861 19.027 90.2861 21.0295V36.7582C90.2861 38.7606 91.7423 40.391 93.5309 40.391H96.7032C98.4917 40.391 99.9479 38.7606 99.9479 36.7582V21.0295C99.9479 19.027 98.4917 17.3967 96.7032 17.3967H93.5309Z" fill="#B6C5D7"/>
<path d="M102.537 38.517H101.688C100.728 38.517 99.9482 37.6443 99.9482 36.5687V21.2188C99.9482 20.1432 100.728 19.2705 101.688 19.2705H102.537C107.278 19.2705 111.133 23.5866 111.133 28.8938C111.133 34.1976 107.278 38.517 102.537 38.517ZM103.429 23.2551V34.5324C105.825 34.0589 107.652 31.7114 107.652 28.8938C107.652 26.0761 105.825 23.7287 103.429 23.2551Z" fill="#B6C5D7"/>
<path d="M60.4722 44.2877H57.2999C53.5929 44.2877 50.5747 40.9085 50.5747 36.7582V21.0295C50.5747 16.8791 53.5929 13.5 57.2999 13.5H60.4722C64.1792 13.5 67.1974 16.8791 67.1974 21.0295V36.7582C67.1974 40.9085 64.1823 44.2877 60.4722 44.2877ZM57.2999 17.3967C55.5114 17.3967 54.0551 19.027 54.0551 21.0295V36.7582C54.0551 38.7606 55.5114 40.391 57.2999 40.391H60.4722C62.2608 40.391 63.717 38.7606 63.717 36.7582V21.0295C63.717 19.027 62.2608 17.3967 60.4722 17.3967H57.2999Z" fill="#B6C5D7"/>
<path d="M52.3149 38.517H51.466C46.7257 38.517 42.8706 34.2009 42.8706 28.8938C42.8706 23.5866 46.7257 19.2705 51.466 19.2705H52.3149C53.2757 19.2705 54.0551 20.1432 54.0551 21.2188V36.5687C54.0551 37.6443 53.2757 38.517 52.3149 38.517ZM50.5747 23.2551C48.1789 23.7287 46.351 26.0761 46.351 28.8938C46.351 31.7114 48.1789 34.0589 50.5747 34.5324V23.2551Z" fill="#B6C5D7"/>
</svg>
