<svg width="154" height="154" viewBox="0 0 154 154" fill="none" xmlns="http://www.w3.org/2000/svg">
<path d="M125.975 23.6035H112.371V27.0045H125.975V23.6035Z" fill="#B6C5D7"/>
<path d="M136.858 23.6035H131.416V27.0045H136.858V23.6035Z" fill="#B6C5D7"/>
<path d="M20.8827 30.7465H24.2837V27.0054H28.0248V23.6044H24.2837V19.8633H20.8827V23.6044H17.1416V27.0054H20.8827V30.7465Z" fill="#B6C5D7"/>
<path d="M129.954 62.1376C120.897 53.079 108.856 48.0914 96.0457 48.0914H57.9543C57.6142 48.0914 57.2741 48.0965 56.934 48.1033V35.1675H82.4416C83.0861 35.1675 83.6745 34.8036 83.9619 34.2271C84.2493 33.6507 84.188 32.962 83.802 32.4467L76.4048 22.5838L83.802 12.7208C84.188 12.2056 84.251 11.5169 83.9619 10.9404C83.6745 10.3639 83.0844 10 82.4416 10H55.2335C54.2948 10 53.533 10.7618 53.533 11.7005V33.467V48.2937C42.393 49.3055 32.0522 54.1299 24.0462 62.1359C14.9876 71.1945 10 83.2358 10 96.0457C10 108.856 14.9876 120.897 24.0462 129.954C33.1048 139.011 45.1444 144 57.9543 144H96.0457C108.854 144 120.897 139.012 129.954 129.954C139.011 120.895 144 108.856 144 96.0457C144 83.2358 139.012 71.1945 129.954 62.1376ZM72.9188 21.5635C72.4647 22.1688 72.4647 22.9987 72.9188 23.6041L79.0406 31.7665H56.934V13.401H79.0406L72.9188 21.5635ZM96.0457 140.599H57.9543C33.3871 140.599 13.401 120.613 13.401 96.0457C13.401 72.9715 31.0336 53.9377 53.533 51.7118V59.2365C45.3042 60.2075 37.6894 63.884 31.741 69.8341C24.74 76.835 20.8832 86.1436 20.8832 96.0457C20.8832 105.948 24.74 115.256 31.741 122.259C38.742 129.262 48.0523 133.117 57.9543 133.117H96.0457C105.948 133.117 115.256 129.26 122.259 122.259C129.262 115.258 133.117 105.948 133.117 96.0457C133.117 86.1436 129.26 76.835 122.259 69.8324C115.258 62.8297 105.948 58.9746 96.0457 58.9746H57.9543C57.6142 58.9746 57.2741 58.9797 56.934 58.9899V51.506C57.2741 51.4992 57.6125 51.4924 57.9543 51.4924H96.0457C120.613 51.4924 140.599 71.4784 140.599 96.0457C140.599 120.613 120.613 140.599 96.0457 140.599ZM96.0457 84.1421C102.61 84.1421 107.949 89.4817 107.949 96.0457C107.949 102.61 102.61 107.949 96.0457 107.949H57.9543C51.3904 107.949 46.0508 102.61 46.0508 96.0457C46.0508 89.4817 51.3904 84.1421 57.9543 84.1421H96.0457ZM57.9543 80.7411C49.5147 80.7411 42.6497 87.6061 42.6497 96.0457C42.6497 104.485 49.5147 111.35 57.9543 111.35H96.0457C104.485 111.35 111.35 104.485 111.35 96.0457C111.35 87.6061 104.485 80.7411 96.0457 80.7411H78.7005V73.2589H96.0457C108.611 73.2589 118.832 83.4806 118.832 96.0457C118.832 108.611 108.611 118.832 96.0457 118.832H57.9543C45.3893 118.832 35.1675 108.611 35.1675 96.0457C35.1675 83.4806 45.3893 73.2589 57.9543 73.2589H75.2995V80.7411H57.9543ZM57.9543 69.8579C43.5136 69.8579 31.7665 81.605 31.7665 96.0457C31.7665 110.486 43.5136 122.233 57.9543 122.233H96.0457C110.486 122.233 122.233 110.486 122.233 96.0457C122.233 81.605 110.486 69.8579 96.0457 69.8579H67.8173V62.3756H96.0457C114.612 62.3756 129.716 77.4795 129.716 96.0457C129.716 114.612 114.612 129.716 96.0457 129.716H57.9543C39.3882 129.716 24.2843 114.612 24.2843 96.0457C24.2843 77.4795 39.3882 62.3756 57.9543 62.3756H64.4162V69.8579H57.9543Z" fill="#B6C5D7"/>
</svg>
