<svg width="154" height="154" viewBox="0 0 154 154" fill="none" xmlns="http://www.w3.org/2000/svg">
<path d="M136.968 53.532H131.697C131.227 51.4829 130.644 49.4593 129.942 47.468C127.906 41.6897 124.948 36.3076 121.147 31.4696C113.556 21.809 102.858 14.8115 91.0275 11.7676C86.4718 10.5942 81.7529 9.99902 77 9.99902C76.4065 9.99902 75.813 10.0075 75.2196 10.0262C74.2996 10.0551 73.3813 10.1062 72.4664 10.181C69.2542 10.4378 66.0742 10.9683 62.9725 11.7693C51.1404 14.8149 40.4425 21.8125 32.8514 31.4713C29.0508 36.3076 26.0919 41.6914 24.0564 47.468C23.3558 49.4576 22.7725 51.4812 22.3032 53.532H17.0316C13.1544 53.532 10 56.6865 10 60.5636V136.969C10 140.846 13.1544 144.001 17.0316 144.001H55.2335H98.7665H136.968C140.846 144.001 144 140.846 144 136.969V60.5636C144 56.6865 140.846 53.532 136.968 53.532ZM77.7975 13.4068C77.886 13.4085 77.9727 13.4102 78.0611 13.4119C78.2397 13.4153 78.4165 13.4187 78.5951 13.4238C78.7005 13.4272 78.8042 13.4306 78.9097 13.4358C79.0712 13.4409 79.2328 13.4477 79.3926 13.4545C79.5031 13.4596 79.6137 13.4647 79.7242 13.4715C79.8807 13.48 80.0354 13.4885 80.1902 13.497C80.3024 13.5038 80.4146 13.5106 80.5286 13.5191C80.6816 13.5293 80.8363 13.5395 80.9894 13.5514C81.1016 13.5599 81.2139 13.5684 81.3261 13.5769C81.4808 13.5888 81.6373 13.6024 81.792 13.6177C81.9009 13.6279 82.0114 13.6381 82.1202 13.6483C82.2801 13.6636 82.4399 13.6806 82.5998 13.6976C82.7035 13.7078 82.8072 13.7197 82.911 13.7316C83.0844 13.7503 83.2579 13.7724 83.4313 13.7929C83.5214 13.8031 83.6099 13.8133 83.7 13.8252C83.9415 13.8558 84.1812 13.8881 84.421 13.9221C84.4431 13.9255 84.4635 13.9272 84.4856 13.9306C84.7475 13.968 85.0094 14.0071 85.2696 14.0479C85.3529 14.0615 85.4345 14.0751 85.5178 14.0887C85.6964 14.1177 85.8732 14.1466 86.0518 14.1772C86.1538 14.1942 86.2542 14.2129 86.3562 14.2316C86.516 14.2605 86.6742 14.2894 86.8323 14.3183C86.9395 14.3387 87.0466 14.3591 87.1537 14.3812C87.3051 14.4101 87.4581 14.4408 87.6095 14.4714C87.72 14.4935 87.8305 14.5173 87.9394 14.5394C88.089 14.5717 88.2387 14.6023 88.3866 14.6363C88.4971 14.6601 88.6077 14.6856 88.7165 14.7094C88.7777 14.723 88.8372 14.7383 88.8984 14.7519V15.5784C88.8984 17.0017 87.7404 18.1615 86.3154 18.1615H67.6795C66.2562 18.1615 65.0964 17.0034 65.0964 15.5784V14.7519C65.1577 14.7383 65.2172 14.723 65.2784 14.7094C65.3889 14.6839 65.4995 14.6601 65.6117 14.6346C65.7596 14.6023 65.9093 14.57 66.0572 14.5377C66.1678 14.5139 66.2783 14.4918 66.3888 14.468C66.5402 14.4373 66.6915 14.4067 66.8429 14.3778C66.9517 14.3574 67.0588 14.3353 67.1677 14.3149C67.3258 14.2843 67.484 14.2571 67.6421 14.2282C67.7441 14.2095 67.8462 14.1908 67.9482 14.1738C68.125 14.1432 68.3002 14.1143 68.4771 14.0853C68.5604 14.0717 68.6454 14.0564 68.7287 14.0445C68.9889 14.0037 69.2508 13.9646 69.511 13.9272C69.5365 13.9238 69.5603 13.9204 69.5858 13.917C69.8222 13.883 70.0602 13.8524 70.2983 13.8218C70.3884 13.8099 70.4785 13.7997 70.5687 13.7895C70.7421 13.769 70.9139 13.7469 71.0873 13.7282C71.1911 13.7163 71.2948 13.7061 71.4002 13.6942C71.5601 13.6772 71.7199 13.6602 71.8798 13.6449C71.9903 13.6347 72.0991 13.6245 72.2097 13.6143C72.3644 13.6007 72.5192 13.5871 72.6739 13.5735C72.7861 13.565 72.9001 13.5565 73.0123 13.548C73.1654 13.5361 73.3184 13.5259 73.4731 13.5157C73.5854 13.5089 73.6976 13.5004 73.8115 13.4936C73.968 13.4851 74.1227 13.4766 74.2792 13.4681C74.3897 13.463 74.5003 13.4562 74.6108 13.4511C74.7723 13.4443 74.9339 13.4375 75.0937 13.4323C75.1992 13.4289 75.3029 13.4238 75.4083 13.4204C75.5869 13.4153 75.7637 13.4119 75.9423 13.4085C76.0307 13.4068 76.1174 13.4051 76.2059 13.4034C76.4711 13.4 76.7381 13.3966 77.0034 13.3966C77.2687 13.3966 77.5323 13.4017 77.7975 13.4068ZM61.6971 15.6566C61.7379 18.9199 64.406 21.5625 67.6795 21.5625H86.3222C89.5957 21.5625 92.2621 18.9199 92.3046 15.6566C114.44 22.343 129.716 42.7848 129.716 66.1158C129.716 69.6681 129.36 73.2154 128.661 76.6606C126.145 89.0522 119.314 100.009 109.325 107.761L100.644 77.3816C102.331 73.8548 103.188 70.0695 103.188 66.1141C103.188 51.6734 91.4407 39.9263 77 39.9263C62.5593 39.9263 50.8122 51.6734 50.8122 66.1141C50.8122 70.0678 51.6675 73.8548 53.3561 77.3799L44.6768 107.758C34.6863 100.009 27.8553 89.0522 25.3386 76.6606C24.6397 73.2154 24.2843 69.6681 24.2843 66.1158C24.2843 42.7848 39.5599 22.3447 61.6971 15.6566ZM98.7665 126.994H55.2335H47.0558C46.5014 126.994 46.0508 126.543 46.0508 125.989V116.791H57.9543H96.0457H107.949V125.989C107.949 126.543 107.499 126.994 106.944 126.994H98.7665ZM107.395 113.39H97.4197L89.9868 78.6995H97.4843L107.395 113.39ZM46.6051 113.39L47.27 111.06C47.27 111.058 47.2717 111.057 47.2717 111.053L56.5157 78.6995H64.0132L56.5803 113.39H46.6051ZM67.4908 78.6995H86.5075L93.9405 113.39H60.0578L67.4908 78.6995ZM97.8618 75.2985H87.8832H66.1167H56.1382C54.8594 72.4094 54.2132 69.3263 54.2132 66.1158C54.2132 53.5507 64.4349 43.329 77 43.329C89.565 43.329 99.7868 53.5507 99.7868 66.1158C99.7868 69.3263 99.1389 72.4094 97.8618 75.2985ZM13.401 136.967V130.395H33.467V126.994H13.401V60.5636C13.401 58.5621 15.0301 56.933 17.0316 56.933H21.6332C21.1366 59.9531 20.8832 63.0192 20.8832 66.1158C20.8832 69.8943 21.2608 73.6711 22.0056 77.3374C23.4323 84.3622 26.1616 90.9653 30.1187 96.9664C33.7799 102.517 38.3373 107.322 43.6752 111.266L42.7161 114.623C42.7127 114.635 42.711 114.645 42.7093 114.657C42.6974 114.701 42.6872 114.745 42.6787 114.791C42.6753 114.813 42.6718 114.834 42.6684 114.856C42.6633 114.895 42.6582 114.934 42.6565 114.973C42.6548 114.999 42.6531 115.024 42.6531 115.048C42.6531 115.061 42.6514 115.077 42.6514 115.09V125.989C42.6514 128.419 44.6274 130.395 47.0575 130.395H53.533V140.598H17.0316C15.0301 140.598 13.401 138.969 13.401 136.967ZM56.934 140.598V130.395H97.066V140.598H56.934ZM136.968 140.598H100.467V130.395H106.944C109.374 130.395 111.35 128.419 111.35 125.989V115.09C111.35 115.077 111.349 115.061 111.349 115.048C111.349 115.022 111.347 114.997 111.345 114.973C111.342 114.934 111.338 114.895 111.333 114.857C111.33 114.835 111.326 114.813 111.323 114.793C111.315 114.749 111.304 114.704 111.294 114.66C111.291 114.648 111.289 114.636 111.287 114.626L110.328 111.271C115.666 107.328 120.224 102.522 123.885 96.9698C127.842 90.9687 130.571 84.3639 131.998 77.3408C132.743 73.6745 133.12 69.8977 133.12 66.1192C133.12 63.0226 132.867 59.9565 132.37 56.9364H136.972C138.973 56.9364 140.602 58.5655 140.602 60.567V126.994H120.533V130.395H140.599V136.967C140.599 138.969 138.97 140.598 136.968 140.598Z" fill="#B6C5D7"/>
<path d="M78.7003 28.0244H75.2993V33.466H78.7003V28.0244Z" fill="#B6C5D7"/>
<path d="M115.091 64.415H109.649V67.8161H115.091V64.415Z" fill="#B6C5D7"/>
<path d="M44.3503 64.415H38.9087V67.8161H44.3503V64.415Z" fill="#B6C5D7"/>
</svg>
