<svg width="154" height="154" viewBox="0 0 154 154" fill="none" xmlns="http://www.w3.org/2000/svg">
<path d="M123.127 74.0432H62.1637C61.4438 74.0432 60.8364 73.4583 60.8364 72.7159C60.8364 71.9961 61.4213 71.3887 62.1637 71.3887H123.127C123.847 71.3887 124.454 71.9736 124.454 72.7159C124.454 73.4583 123.847 74.0432 123.127 74.0432Z" fill="#0C54A0"/>
<path d="M67.9229 74.0443C67.2031 74.0443 66.5957 73.4595 66.5957 72.7171V64.9786C66.5957 64.2587 67.1806 63.6514 67.9229 63.6514C68.6428 63.6514 69.2502 64.2363 69.2502 64.9786V72.7171C69.2277 73.4595 68.6428 74.0443 67.9229 74.0443Z" fill="#0C54A0"/>
<path d="M78.4278 74.0428C77.708 74.0428 77.1006 73.4579 77.1006 72.7156V58.9933C77.1006 58.2734 77.6855 57.666 78.4278 57.666C79.1702 57.666 79.7551 58.2509 79.7551 58.9933V72.7156C79.7551 73.4579 79.1477 74.0428 78.4278 74.0428Z" fill="#0C54A0"/>
<path d="M119.055 74.0428C118.335 74.0428 117.728 73.4579 117.728 72.7156V58.9933C117.728 58.2734 118.313 57.666 119.055 57.666C119.798 57.666 120.383 58.2509 120.383 58.9933V72.7156C120.36 73.4579 119.775 74.0428 119.055 74.0428Z" fill="#0C54A0"/>
<path d="M88.3712 74.0412C87.6513 74.0412 87.0439 73.4563 87.0439 72.7139V56.2696C87.0439 55.5498 87.6288 54.9424 88.3712 54.9424C89.1135 54.9424 89.6984 55.5273 89.6984 56.2696V72.7139C89.6984 73.4563 89.1135 74.0412 88.3712 74.0412Z" fill="#0C54A0"/>
<path d="M108.73 74.0412C108.01 74.0412 107.403 73.4563 107.403 72.7139V56.2696C107.403 55.5498 107.988 54.9424 108.73 54.9424C109.472 54.9424 110.057 55.5273 110.057 56.2696V72.7139C110.057 73.4563 109.472 74.0412 108.73 74.0412Z" fill="#0C54A0"/>
<path d="M98.607 74.044C97.8872 74.044 97.2798 73.4591 97.2798 72.7168V53.1456C97.2798 52.4257 97.8647 51.8184 98.607 51.8184C99.3494 51.8184 99.9343 52.4032 99.9343 53.1456V72.7168C99.9118 73.4591 99.3269 74.044 98.607 74.044Z" fill="#0C54A0"/>
<path d="M66.0329 58.8355C65.493 58.8355 64.9981 58.4981 64.7956 57.9807C64.5482 57.3058 64.8856 56.5409 65.583 56.2935L77.2132 51.9743L87.6287 44.7307C87.8986 44.5283 88.2586 44.4608 88.5735 44.5058L107.875 47.4977L117.728 42.7961C118.38 42.4812 119.168 42.7736 119.482 43.426C119.797 44.0784 119.505 44.8657 118.853 45.1807L108.64 50.0397C108.392 50.1522 108.122 50.1972 107.875 50.1522L88.686 47.1828L78.5629 54.2239C78.473 54.2914 78.383 54.3364 78.2705 54.3814L66.4828 58.7455C66.3478 58.813 66.1904 58.8355 66.0329 58.8355Z" fill="#0C54A0"/>
<path d="M48.2397 123.984C47.2724 123.984 46.3051 123.624 45.5627 122.882L28.1511 105.47C26.6664 103.985 26.6664 101.578 28.1511 100.094L30.1532 98.0915C31.593 96.6518 34.09 96.6518 35.5297 98.0915L52.9413 115.503C54.426 116.988 54.426 119.395 52.9413 120.88L50.9392 122.882C50.1743 123.624 49.207 123.984 48.2397 123.984ZM47.4074 121.015C47.8573 121.464 48.5996 121.464 49.0496 121.015L51.0517 119.012C51.5016 118.563 51.5016 117.82 51.0517 117.37L33.6401 99.9586C33.2126 99.5312 32.4478 99.5312 31.9979 99.9586L29.9958 101.961C29.5459 102.411 29.5459 103.153 29.9958 103.603L47.4074 121.015Z" fill="#0C54A0"/>
<path d="M13.6415 149C10.6496 149 7.68014 147.875 5.40808 145.603C0.863972 141.059 0.863972 133.68 5.40808 129.136L29.5234 105.021C30.0408 104.503 30.8731 104.503 31.3905 105.021C31.9079 105.538 31.9079 106.371 31.3905 106.888L7.27522 131.003C3.7659 134.513 3.7659 140.226 7.27522 143.736C10.7845 147.245 16.4984 147.245 20.0077 143.736L44.123 119.621C44.6404 119.103 45.4728 119.103 45.9902 119.621C46.5076 120.138 46.5076 120.97 45.9902 121.488L21.8749 145.603C19.6028 147.875 16.6334 149 13.6415 149Z" fill="#0C54A0"/>
<path d="M92.6459 111.7C78.9911 111.7 65.3138 106.503 54.9208 96.0879C34.1123 75.2794 34.1123 41.4236 54.9208 20.6151C75.7292 -0.19332 109.585 -0.19332 130.394 20.6151C151.202 41.4236 151.202 75.2794 130.394 96.0879C119.978 106.503 106.323 111.7 92.6459 111.7ZM92.6459 7.65765C79.666 7.65765 66.6635 12.6067 56.7879 22.4823C37.0143 42.2559 37.0143 74.4471 56.7879 94.2208C76.5616 113.994 108.753 113.994 128.526 94.2208C148.3 74.4471 148.3 42.2559 128.526 22.4823C118.628 12.6067 105.626 7.65765 92.6459 7.65765Z" fill="#0C54A0"/>
<path d="M92.6465 104.771C80.7463 104.771 68.8686 100.25 59.8029 91.1839C41.694 73.0749 41.694 43.6282 59.8029 25.5192C77.9119 7.41026 107.359 7.41026 125.468 25.5192C143.577 43.6282 143.577 73.0749 125.468 91.1839C116.424 100.25 104.547 104.771 92.6465 104.771ZM92.6465 14.5864C81.4212 14.5864 70.2184 18.8605 61.6701 27.3864C44.5959 44.4605 44.5959 72.2426 61.6701 89.3168C78.7442 106.391 106.526 106.391 123.6 89.3168C140.675 72.2426 140.675 44.4605 123.6 27.3864C115.075 18.8605 103.872 14.5864 92.6465 14.5864Z" fill="#0C54A0"/>
<path d="M57.1259 110.617C56.7885 110.617 56.451 110.482 56.2036 110.235L41.199 95.2303C40.8166 94.8479 40.7041 94.263 40.9291 93.7681L45.7206 82.6778C46.0131 82.0029 46.7779 81.688 47.4528 81.9804C48.1277 82.2729 48.4201 83.0377 48.1502 83.7126L43.7185 93.9931L57.4409 107.715L67.2489 102.924C67.9013 102.609 68.6887 102.879 69.0036 103.531C69.3185 104.184 69.0486 104.971 68.3962 105.286L57.7108 110.482C57.5083 110.572 57.3284 110.617 57.1259 110.617Z" fill="#0C54A0"/>
<path d="M38.8143 104.593C38.4768 104.593 38.1394 104.458 37.892 104.211C37.3746 103.694 37.3746 102.861 37.892 102.344L44.0333 96.2025C44.5507 95.6851 45.383 95.6851 45.9004 96.2025C46.4178 96.7199 46.4178 97.5522 45.9004 98.0696L39.7591 104.211C39.4891 104.458 39.1517 104.593 38.8143 104.593Z" fill="#0C54A0"/>
<path d="M47.7454 113.525C47.408 113.525 47.0706 113.39 46.8231 113.143C46.3057 112.625 46.3057 111.793 46.8231 111.275L52.9644 105.134C53.4818 104.617 54.3141 104.617 54.8315 105.134C55.3489 105.652 55.3489 106.484 54.8315 107.001L48.6902 113.143C48.4203 113.39 48.0829 113.525 47.7454 113.525Z" fill="#0C54A0"/>
</svg>
