<svg width="297" height="65" viewBox="0 0 297 65" fill="none" xmlns="http://www.w3.org/2000/svg">
<g clip-path="url(#clip0_453_47051)">
<path fill-rule="evenodd" clip-rule="evenodd" d="M29.5795 32.6475C29.5795 29.7156 29.7098 26.9792 29.9052 24.5685C30.4264 19.5518 29.9704 19.6169 25.6051 17.4017C25.7354 19.6821 25.0839 21.8973 23.9111 23.6564C23.3899 24.4382 22.7384 25.0898 22.0217 25.6761C24.3021 29.5853 26.9733 33.8854 25.6051 38.5113C26.4521 39.0325 27.0385 39.4886 27.5597 40.531C28.7976 37.9901 29.5795 35.5142 29.5795 32.6475ZM34.6614 8.60605C32.8371 10.1046 31.078 10.4303 28.2112 10.3652C29.9052 12.4501 31.9901 13.5577 33.9447 14.2744C34.5962 13.3622 35.4432 12.6455 36.1599 11.7334C35.9644 11.4728 35.769 11.0167 35.5735 10.6909C35.1826 9.97427 34.9872 9.38789 34.6614 8.60605ZM34.3356 8.08483C33.6189 8.73636 32.9023 9.12728 32.4462 9.19243C31.6643 9.38789 31.2734 8.99697 30.6871 7.82422C30.0355 6.84692 28.8628 6.13024 27.9506 5.80448H27.2339C26.9733 5.80448 26.7127 5.80448 26.5173 5.80448C27.8855 5.99993 29.5795 7.17269 30.0355 7.88937C31.2734 9.84396 30.231 9.97427 27.8203 9.77881C27.1036 8.47575 25.2142 6.58631 23.1945 6.26055C22.8687 6.3257 22.4778 6.39085 22.152 6.45601C23.5854 6.78177 24.693 7.23784 25.54 8.08483C26.1263 8.67121 26.5824 9.45304 27.1688 10.2349C28.9931 12.9062 31.2083 14.1441 33.3583 14.9259C33.0977 15.3168 32.7719 15.7077 32.5113 16.0986C30.231 18.8351 28.2112 17.1411 25.6051 15.9032C25.4097 12.2546 24.0414 9.90911 20.7838 8.47575C20.6535 7.69391 20.458 7.23784 20.1323 7.04238C19.9368 7.10753 19.6762 7.17269 19.5459 7.23784C19.7414 7.49845 19.9368 7.62876 20.002 8.21514C19.3504 8.01968 18.6989 7.75907 18.2428 7.69391C17.8519 7.88937 17.461 8.01968 17.0701 8.21514C17.8519 8.34544 18.9595 8.60605 20.0671 8.99697C20.1323 10.0394 19.7414 11.6682 19.4807 12.6455C17.9822 11.7334 16.8095 10.2349 15.5716 8.99697C15.3761 9.12728 14.9852 9.38789 14.7897 9.5182C15.6367 10.8213 18.1777 14.1441 22.6732 16.0335C23.4551 16.3593 24.1066 16.685 24.7581 17.0108C24.9536 19.2911 24.4324 21.4412 23.1945 23.2003C22.7384 23.8519 22.152 24.5685 21.5005 25.0898C19.7414 22.1579 17.8519 19.8775 14.7246 16.9456C14.7246 16.229 14.6594 14.991 14.073 13.8183C14.3337 13.4925 15.3109 11.5379 14.5291 9.71365C14.2685 9.84396 14.073 10.0394 13.8124 10.1697C14.2685 11.2773 13.8776 12.4501 13.617 13.0365C13.2261 12.4501 12.77 11.994 12.0533 11.5379C11.7927 11.7986 11.5972 11.994 11.3366 12.2546C13.1609 13.2319 13.8124 15.2517 13.8776 16.4244C12.8351 15.7077 11.2715 14.535 9.8381 13.8183C9.70779 13.9486 9.38202 14.3395 9.25172 14.4698C11.6624 16.0986 14.1382 17.532 15.767 19.5518C14.7246 19.6821 12.8351 19.9427 11.076 19.8124C10.1639 19.8124 9.25172 19.6821 8.46988 19.4866C7.62289 19.2911 7.03652 19.0957 6.58045 18.8351L6.05922 19.6169C6.58045 19.8124 7.16682 20.0078 7.94866 20.2033C7.7532 20.5942 7.55774 21.0503 7.23198 21.5063C6.90621 21.1154 6.12438 20.5291 5.60315 20.5942L5.14708 21.2457C5.538 21.2457 6.45014 21.8321 6.71075 22.1579C6.51529 22.3533 6.31983 22.6139 6.05922 22.8094C5.40769 23.3958 5.01677 23.7215 4.36524 23.5912L3.97433 24.3731C4.88647 24.5685 5.79861 24.1776 6.6456 23.3958C6.84106 23.2655 6.97136 23.07 7.16682 22.8746C7.7532 23.7867 8.53504 24.6337 9.31687 25.3504C4.88647 25.611 3.51826 26.914 3.4531 26.914L3.3228 27.8913C3.3228 27.8913 4.03948 27.305 5.538 26.8489C5.538 27.2398 5.60315 28.3474 3.19249 29.3899L3.25764 30.302C6.58045 28.8035 6.31983 26.7837 6.31983 26.5883C7.36228 26.3277 8.73049 26.1322 10.3593 26.1322C10.7502 26.3928 11.1412 26.5883 11.5972 26.7837C13.4215 27.761 15.5716 28.0868 17.7216 27.6959C18.8944 27.4353 20.002 26.9792 20.9141 26.458C22.2172 28.608 23.846 31.4748 24.3672 33.8203C24.5627 35.1885 24.8884 36.7521 24.2369 37.3385C22.999 38.5113 20.002 37.5991 18.1777 34.2112C17.3958 32.7778 15.9625 31.4748 14.2033 30.5626C10.9457 28.8035 7.03652 28.0216 3.38795 31.149L3.51826 31.996C5.34254 30.4323 7.23198 30.0414 9.18657 30.0414C9.25172 31.2141 9.18657 32.3869 8.73049 33.4945C8.27442 32.7778 7.81835 32.2566 7.16682 32.0611C6.25468 31.8005 5.538 31.8005 3.77887 32.9081L3.97433 33.7551C5.538 32.7778 6.25468 32.6475 6.90621 32.843C7.42743 33.0384 7.81835 33.5596 8.27442 34.3415C8.07897 34.6021 7.88351 34.8627 7.62289 35.1233C6.45014 33.9506 4.4304 35.0582 4.4304 35.0582L4.69101 35.7097C4.69101 35.7097 6.25468 34.9279 7.03652 35.7097C6.51529 36.1006 5.99407 36.4915 5.21223 36.8173L5.60315 37.4688C6.38499 37.1431 6.84106 36.8825 7.42743 36.4915C7.42743 36.6218 7.42743 36.7521 7.36228 36.9476C7.29713 37.2734 7.10167 37.6643 6.71075 37.9249C6.58045 38.0552 6.31983 38.2507 6.12438 38.3158L6.58045 38.9673C6.84106 38.837 7.03652 38.7719 7.23198 38.5764C7.81835 38.1204 8.07897 37.5991 8.20927 37.0779C8.27442 36.6218 8.20927 36.2309 8.07897 35.84C8.66534 35.2536 9.05626 34.6672 9.38202 34.0157C9.9684 32.7778 10.0987 31.4096 10.0336 30.1065C11.4018 30.2368 12.7048 30.6929 13.8124 31.2793C15.4413 32.1263 16.7443 33.3642 17.461 34.6021C18.1125 35.7748 18.1777 37.0128 17.461 37.9901C16.4837 39.228 14.2033 40.1401 9.9684 40.1401C9.8381 39.4886 9.31687 37.9901 6.90621 39.4886L7.42743 40.1401C8.79565 39.1628 8.99111 39.9446 9.12141 40.2704C8.73049 40.4659 8.40473 40.5962 8.07897 40.8568L8.66534 41.4432C8.99111 41.1825 9.31687 40.9871 9.77294 40.9871C10.3593 40.9871 10.8805 40.9871 11.4018 40.9219C11.3366 41.4432 11.3366 42.2901 10.0987 42.8765L10.6851 43.3978C12.1185 42.6159 12.2488 41.5083 12.2488 40.8568C16.8095 40.4007 17.3958 38.1204 22.2172 38.7719C22.8035 38.837 23.3248 38.9673 23.846 39.1628C23.0642 41.1174 21.6308 42.8114 20.1323 44.6357C17.7868 47.5024 14.5943 51.7373 13.2912 56.4283C9.64264 53.6268 6.71075 50.0434 4.69101 46.0039C2.54096 41.7689 1.36821 37.0128 1.36821 32.1263C1.36821 23.6564 4.82132 15.9683 10.3593 10.3652C15.9625 4.82718 23.6505 1.37407 32.1204 1.37407C40.6555 1.37407 48.3435 4.82718 53.8815 10.3652C59.4195 15.9683 62.8726 23.6564 62.8726 32.1263C62.8726 49.1312 49.1253 62.8785 32.1204 62.8785C28.7976 62.8785 25.54 62.3573 22.3475 61.3148C24.8884 54.148 27.8855 52.8449 31.2734 53.0404C36.0948 53.301 40.7858 56.8193 46.9101 56.4935C47.5617 56.2329 48.0177 55.7768 48.6041 55.5162C46.5844 55.842 44.2389 56.1026 46.0632 53.4965C46.6495 52.5192 47.7571 51.607 49.2557 51.4116C51.4057 51.151 52.5785 51.6722 53.1648 52.1283C53.23 51.9328 53.5557 51.7373 53.6209 51.607C52.0572 50.1085 53.7512 48.8054 55.1194 49.7176L55.5755 49.2615C54.2073 48.2842 51.9269 49.1312 52.3178 50.8252C51.536 50.5646 50.5587 50.4343 49.1905 50.6297C48.995 50.6297 48.8647 50.6297 48.6693 50.6949C48.4738 50.4994 48.3435 50.1737 48.1481 49.7176H48.2132C48.6041 49.5873 48.995 49.3918 49.386 49.2615C50.689 48.61 51.9921 47.763 52.7739 46.9812C53.7512 46.916 55.7058 46.7857 55.3149 48.2191L56.0316 48.4797C56.2922 47.763 56.3573 47.1766 55.7058 46.7206C55.5103 46.5902 55.2497 46.4599 54.8588 46.3948C55.1194 46.3948 55.5103 46.3296 55.9013 46.1993C56.6831 46.0039 56.9437 44.7008 57.0089 44.1144C57.0089 43.919 57.0089 43.7235 57.0089 43.5281C54.924 43.7887 52.7088 44.0493 51.536 41.8992C51.9921 41.6386 52.5133 41.378 53.0345 41.1174C53.6209 41.7038 54.924 43.2674 56.9437 42.6811C55.9664 41.7689 56.0316 41.1825 56.4876 40.8568C57.6604 40.7265 59.0938 40.4659 60.0711 39.5537L59.6801 38.9673C58.7028 39.684 58.1816 39.6189 57.9862 39.5537C57.921 39.5537 57.8558 39.5537 57.7907 39.5537C54.0118 38.6416 55.771 40.4659 53.4254 40.3356C53.1648 38.6416 53.5557 38.1855 54.2724 38.0552C54.5982 37.9901 55.0543 38.0552 55.5755 38.0552C56.6831 38.0552 57.921 38.1204 59.1589 37.4037L58.768 36.687C58.3771 36.9476 57.8558 37.0779 57.3998 37.1431C57.3998 36.7521 57.3998 36.1658 57.9862 35.7748L57.4649 35.1233C56.6179 35.7097 56.5528 36.6218 56.6179 37.2082C56.227 37.2082 55.9013 37.2082 55.5755 37.2082C55.0543 37.2082 54.533 37.2082 54.1421 37.2734C52.9694 37.4688 52.2527 38.1204 52.5785 40.4007C52.2527 40.5962 51.8618 40.7265 51.536 40.9219C51.6012 39.684 51.536 37.2082 50.1678 35.4491C50.9496 35.0582 51.2754 34.0809 51.536 33.3642C51.7966 33.69 51.9269 34.146 52.0572 34.5369C52.7739 36.6218 54.8588 36.687 56.4225 35.1233C56.6179 34.9279 56.8786 34.6672 57.074 34.5369L56.6179 33.8854C56.3573 34.0809 56.0967 34.2763 55.8361 34.5369C55.0543 35.3188 53.4906 35.9703 52.9694 34.5369C55.3149 34.0809 56.0316 33.0384 56.0316 33.0384L55.5103 32.3869C55.5103 32.3869 54.7937 33.4293 52.6436 33.7551C52.5785 33.4945 52.4481 33.299 52.3178 33.1036C52.383 32.452 53.0997 32.1263 54.7937 31.7354L54.4027 31.0838C54.4027 31.0838 52.5133 31.3444 51.9269 32.2566C51.536 31.996 51.4709 30.9535 51.7315 30.6278C52.383 29.7156 52.5785 30.6929 54.0118 28.4126C54.7285 27.3701 54.7285 26.6534 54.8588 25.4807C54.0118 25.4807 53.1648 25.5458 52.3178 25.611C52.6436 24.764 53.0997 23.9822 54.4679 24.0473C54.4027 23.7867 54.3376 23.5261 54.2073 23.2655C52.3178 23.2655 51.8618 24.3731 51.4057 25.8064C50.5587 25.9367 49.7117 26.1974 48.995 26.6534C46.6495 28.0868 46.3238 30.6929 42.6752 30.8884C42.6752 27.9565 45.4768 24.5685 47.8874 22.8094C48.2132 22.8094 51.7315 23.07 53.9467 22.223L53.7512 21.7018L53.6861 21.5063C52.3178 21.9624 50.2329 22.0276 48.995 22.0276C50.1678 21.2457 51.4709 20.7897 52.6436 20.6594C52.7739 20.5942 53.1648 20.5942 53.2951 20.5942L53.23 20.1381L53.0997 19.8124C52.9042 19.8124 52.7088 19.8124 52.5133 19.8124C52.383 19.8124 52.3178 19.8775 52.1875 19.8775C52.2527 19.4214 52.383 18.9002 52.5785 18.5745C52.5133 18.3138 52.383 18.0532 52.2527 17.7926C51.6012 18.379 51.4057 19.5518 51.3405 20.073C47.1708 21.2457 41.7631 26.2625 41.6328 31.0838C39.613 31.2141 37.5933 31.7354 35.7038 32.452C35.6387 31.6051 36.3554 29.8459 37.2675 28.7383C38.3751 27.1095 39.9388 26.0019 41.4373 24.8291C43.1313 23.4609 44.7601 22.1579 45.9329 20.3987C48.995 19.8775 50.6239 18.7048 50.9496 15.5774L50.2329 14.4047C50.2329 17.532 49.386 18.7699 46.3889 19.4214C46.7147 18.5093 46.7147 17.4669 46.6495 16.3593C46.6495 15.7729 46.5844 15.1865 46.6495 14.6001C47.1056 14.6653 47.5617 14.6001 48.0177 14.4698C48.6693 14.2092 49.1905 13.8183 49.5814 13.4925L49.0602 12.841C48.7344 13.1668 48.2784 13.4925 47.7571 13.688C47.4314 13.7531 47.0405 13.8183 46.7798 13.7531C46.9101 12.9713 47.1708 12.3198 47.692 11.5379C47.4965 11.4076 47.2359 11.2122 47.0405 11.0167C45.6722 12.9062 45.8025 14.7304 45.8677 16.4244C45.8677 17.6623 45.9329 18.7699 45.3465 19.7472C44.6298 20.8548 43.9131 21.1154 43.0661 19.8775C41.5024 16.4244 38.5706 15.7729 35.3129 14.7304C35.8341 14.0789 36.4205 13.4274 36.9417 12.7758C37.3978 13.2971 37.919 13.688 38.6357 14.0138C38.8312 14.0789 39.0266 14.1441 39.2221 14.2092C40.7206 14.6001 42.0888 14.2744 43.2616 13.5577C44.4343 12.7758 45.3465 11.6031 45.8677 10.3L45.9329 10.2349C45.6722 10.1046 45.4116 9.90911 45.2162 9.77881C45.151 9.84396 45.151 9.90911 45.151 9.97427C44.8253 10.7561 44.304 11.5379 43.7176 12.1243C43.3267 11.6682 43.1313 11.0819 43.1313 10.4303C43.0661 9.90911 43.1964 9.32274 43.3267 8.73636C43.0661 8.60605 42.8055 8.47575 42.5449 8.34544C42.4146 8.99697 42.2843 9.77881 42.2843 10.4955C42.2843 11.2773 42.5449 12.0592 43.1313 12.6455C43.001 12.7107 42.9358 12.7758 42.8055 12.841C41.8282 13.4925 40.6555 13.7531 39.4827 13.4274C39.2872 13.3622 39.0918 13.2971 38.8963 13.2319C38.3751 12.9713 37.8539 12.5804 37.5281 12.1243C38.9615 10.5606 40.2645 9.19243 41.0464 8.34544C41.2418 8.21514 41.4373 8.01968 41.5676 7.88937C41.2418 7.75907 40.9812 7.69391 40.6555 7.56361C39.613 8.41059 37.8539 10.1046 36.6811 11.147C36.1599 10.1697 35.5735 9.06212 35.1175 8.14998C35.769 7.4333 35.769 6.71662 35.769 6.19539C35.6387 6.13024 35.5084 6.06509 35.3781 6.06509C35.3129 6.45601 35.4432 7.04238 34.8568 7.69391C34.075 6.39085 32.1204 5.73932 31.925 5.73932H30.6219C31.078 5.73932 33.8795 6.71662 34.3356 8.08483ZM50.6239 41.4432C50.689 40.7916 50.9496 37.9901 49.5814 36.1006C49.0602 36.8825 48.1481 38.2507 46.845 39.6189C47.3662 40.531 47.7571 41.5735 47.8223 42.5508C47.8223 42.9417 47.8223 43.3326 47.7571 43.7235C48.6693 42.8765 49.5814 42.0947 50.6239 41.4432ZM24.7581 15.4471C24.4324 12.6455 23.5202 10.7561 20.849 9.45304C20.849 10.7561 20.5232 11.9289 20.1974 13.1668C21.6959 14.1441 23.1293 14.7304 24.7581 15.4471ZM43.1964 54.995C42.7404 51.4767 39.8085 50.0434 38.1145 47.5024C37.463 46.6554 36.9417 45.5478 36.4205 44.1144C33.9447 43.7887 31.5992 42.6159 29.7749 40.9219C28.537 45.4175 33.7492 51.0206 39.0918 53.5616L39.8736 53.9525C40.9161 54.4086 42.0237 54.7344 43.1964 54.995ZM47.1056 49.1964C46.9101 48.4145 46.7798 47.4372 46.7798 46.069C46.7147 44.8963 47.0405 43.5281 46.9753 42.6159C46.9101 41.8341 46.6495 40.9871 46.1935 40.2053C44.9556 41.5083 43.3919 42.6811 41.7631 43.3978C40.2645 44.0493 39.0918 44.2447 37.6584 44.1796C38.5054 48.4797 42.0888 50.8252 47.1056 49.1964ZM42.0237 50.5646C43.5873 52.5192 43.9783 53.8222 44.0434 54.7344V55.0601C44.1086 55.5814 45.3465 51.607 47.7571 50.9555C47.6268 50.76 47.4965 50.4343 47.3662 50.0434C45.151 50.6949 44.0434 50.8903 42.0237 50.5646ZM47.6268 45.0917C47.5617 46.7206 47.692 48.0236 47.8874 49.0009L48.0829 48.9358C48.4087 48.8054 48.7344 48.61 49.0602 48.4797C50.9496 47.6327 52.383 46.6554 52.8391 45.4826C53.6209 45.4826 54.6634 45.7433 55.38 45.2872C56.7482 44.0493 54.924 44.5705 53.8815 44.375C52.0572 44.0493 51.2102 43.0068 50.8193 42.2901C49.6466 43.072 48.6041 44.0493 47.6268 45.0917ZM50.2981 30.0414C48.7344 30.1717 48.2784 30.2368 47.0405 31.149C47.4314 32.3217 49.3208 31.8657 50.2981 31.996C50.3633 31.4096 50.9496 30.5626 50.2981 30.0414ZM33.7492 33.3642C35.3129 32.5172 34.6614 31.9308 35.4432 30.2368C36.616 27.5656 38.8312 25.8064 40.9161 24.1776C43.1964 22.3533 43.0661 21.5063 41.307 18.7048C40.0039 16.6199 37.0069 16.0986 34.7265 15.382C33.8144 16.6199 33.0326 17.7926 32.6416 18.7048C31.925 20.3336 31.534 22.3533 31.2734 24.6988C31.078 26.7186 31.0128 28.9338 31.0128 31.3444C31.078 33.8203 32.0553 34.146 33.7492 33.3642ZM25.3445 52.9101C25.54 53.1055 26.0612 52.8449 26.7779 52.5192C28.2764 51.8676 29.5143 51.8025 31.1431 51.8025C32.4462 51.8025 33.6841 51.9328 34.2705 52.1283C30.8174 49.1964 29.2537 46.916 28.2112 44.8963C28.0809 47.6327 23.5202 51.2161 25.3445 52.9101ZM12.9654 57.9269C8.92595 54.8647 5.6683 51.0206 3.4531 46.6554C1.2379 42.1598 -5.72205e-06 37.2082 -5.72205e-06 32.1263C-5.72205e-06 23.2655 3.58341 15.2517 9.38202 9.38789C15.2458 3.58927 23.2596 0.00585938 32.1204 0.00585938C40.9812 0.00585938 49.0602 3.58927 54.8588 9.38789C60.6574 15.2517 64.2408 23.2655 64.2408 32.1263C64.2408 49.8479 49.842 64.2467 32.1204 64.2467C28.6022 64.2467 25.0839 63.6603 21.7611 62.5527L20.5232 62.0315C21.3702 60.0769 21.6959 53.301 24.3672 48.8054C27.2339 44.0493 27.3642 40.7916 25.0839 39.8143C24.1718 41.7689 22.7384 43.5932 21.2399 45.4826C18.7641 48.4797 15.1155 53.7571 14.1382 58.6435L12.9654 57.9269ZM36.0296 43.0068C29.1885 41.9644 28.7976 37.7946 34.7265 34.3415C34.7265 36.8825 35.2478 40.6613 36.0296 43.0068ZM41.307 42.5508C42.8707 41.8992 45.998 40.4659 44.8904 38.381C43.7176 37.0779 42.154 35.9052 40.5903 35.0582C39.0266 34.2763 37.463 33.69 36.2251 33.6248C35.9644 33.69 35.8341 33.69 35.6387 33.8203C35.4432 38.1855 35.7038 44.9614 41.307 42.5508ZM46.3889 38.9022C48.4087 37.2082 48.7344 36.1658 49.1905 35.5142C48.0829 35.1885 45.6722 34.4718 44.1737 33.69C43.2616 33.2339 42.4797 32.7127 42.0888 32.1914C40.3948 32.3217 39.1569 32.452 37.5933 33.0384C38.7009 33.299 39.8085 33.7551 40.9812 34.3415C42.61 35.2536 44.2389 36.4264 45.4768 37.8597C45.7374 38.1204 46.1935 38.6416 46.3889 38.9022ZM16.3534 20.2684C15.4413 20.3987 13.2261 20.7897 11.0108 20.6594C10.2942 20.5942 9.51233 20.5291 8.79565 20.3987C8.53504 20.9851 8.20927 21.5715 7.7532 22.223C8.73049 23.8519 10.229 25.2201 11.923 26.0671C13.6821 26.914 15.5716 27.2398 17.5261 26.8489C18.6337 26.6534 19.6762 26.2625 20.5232 25.7413C19.3504 23.7867 17.9822 21.9624 16.3534 20.2684ZM53.3603 27.9565C53.6209 27.5004 53.8815 26.914 53.9467 26.3277C53.2951 26.3928 52.7088 26.3928 52.0572 26.5231H51.9921H51.9269C51.0148 26.6534 50.1026 26.914 49.386 27.3701C48.2132 28.0868 47.692 28.8686 46.9753 30.0414C48.4087 29.3247 48.8647 29.3247 50.4936 29.1944C52.1224 29.0641 52.8391 28.7383 53.3603 27.9565ZM45.9329 31.6702C44.9556 31.8657 44.1737 31.8657 43.1313 32.0611C43.457 32.3869 43.9783 32.7127 44.5646 32.9733C46.5192 33.9506 49.1905 34.7976 49.5163 34.7976C50.2329 34.7976 50.8193 33.8203 50.8193 32.843C49.2557 32.5824 47.8223 33.69 45.9329 31.6702Z" fill="#0B54A0"/>
<path fill-rule="evenodd" clip-rule="evenodd" d="M102.877 14.0785L101.313 15.2513C100.531 14.1437 99.4886 13.3619 98.3159 12.7755C97.2083 12.1891 95.9052 11.9285 94.4718 11.9285C92.9733 11.9285 91.5399 12.3194 90.2369 13.0361C88.9338 13.7528 87.9565 14.7301 87.2398 15.968C86.5232 17.2059 86.1322 18.6393 86.1322 20.1378C86.1322 22.4833 86.9792 24.4379 88.5429 26.0015C90.1717 27.5652 92.1915 28.3471 94.6021 28.3471C97.2734 28.3471 99.5538 27.3046 101.313 25.2197L102.877 26.3273C101.899 27.5652 100.727 28.4774 99.2931 29.194C97.8598 29.8456 96.231 30.1713 94.4718 30.1713C91.149 30.1713 88.4778 29.0637 86.5883 26.8485C84.9595 24.9591 84.1125 22.6787 84.1125 20.0075C84.1125 17.2059 85.0898 14.8604 87.1095 12.9058C89.0641 11.0164 91.5399 10.0391 94.4718 10.0391C96.231 10.0391 97.8598 10.43 99.2931 11.1467C100.727 11.7982 101.964 12.8406 102.877 14.0785ZM114.669 10.5603L123.595 29.7153H121.575L118.578 23.3954H110.239L107.307 29.7153H105.157L114.213 10.5603H114.669ZM114.409 14.5346L111.151 21.506H117.731L114.409 14.5346ZM126.657 30.9532V27.891H128.156L135.714 10.5603H136.365L144.314 27.891H145.747V30.9532H143.858V29.7153H128.547V30.9532H126.657ZM130.371 27.891H142.034L136.039 14.5346L130.371 27.891ZM155.911 12.3846C157.214 10.8209 158.908 10.0391 160.863 10.0391C162.492 10.0391 163.795 10.4951 164.772 11.4073C165.814 12.3194 166.336 13.4922 166.336 14.9255C166.336 16.9453 165.358 18.4438 163.469 19.2908C165.945 20.0726 167.248 21.7666 167.248 24.3727C167.248 26.1319 166.661 27.5001 165.554 28.6077C164.381 29.6501 162.882 30.1713 160.928 30.1713C159.495 30.1713 158.322 29.9107 157.344 29.3243C156.302 28.738 155.325 27.7607 154.478 26.3273L155.911 25.4803C156.823 26.7834 157.67 27.5652 158.452 27.9561C159.234 28.3471 160.016 28.5425 160.863 28.5425C162.035 28.5425 163.078 28.1516 163.925 27.4349C164.837 26.7834 165.228 25.7409 165.228 24.3727C165.228 23.656 165.098 23.0045 164.772 22.4833C164.511 21.9621 164.12 21.506 163.599 21.1802C163.013 20.8545 162.557 20.659 162.035 20.5938C161.579 20.4635 160.798 20.4635 159.69 20.4635H159.364V18.7696H160.016C162.882 18.7696 164.251 17.5968 164.251 15.3165C164.251 14.2089 163.925 13.427 163.273 12.7755C162.622 12.124 161.84 11.7982 160.863 11.7982C159.56 11.7982 158.322 12.3846 157.214 13.5573L155.911 12.3846ZM170.18 30.9532V27.891H171.743L179.236 10.5603H179.887L187.836 27.891H189.269V30.9532H187.38V29.7153H172.069V30.9532H170.18ZM173.893 27.891H185.556L179.562 14.5346L173.893 27.891ZM200.345 10.0391C203.277 10.0391 205.688 11.0164 207.643 12.9709C209.597 14.9255 210.574 17.271 210.574 20.1378C210.574 22.9394 209.597 25.2849 207.643 27.2395C205.688 29.194 203.342 30.1713 200.541 30.1713C197.674 30.1713 195.264 29.194 193.309 27.2395C191.354 25.2849 190.377 22.9394 190.377 20.2029C190.377 18.3786 190.833 16.6847 191.745 15.0558C192.592 13.4922 193.83 12.2543 195.394 11.4073C196.892 10.4951 198.586 10.0391 200.345 10.0391ZM200.411 11.9285C199.042 11.9285 197.674 12.3194 196.436 13.0361C195.133 13.7528 194.156 14.7952 193.439 16.0331C192.723 17.271 192.397 18.6393 192.397 20.2029C192.397 22.4833 193.179 24.3727 194.742 25.9364C196.306 27.5001 198.195 28.2819 200.411 28.2819C201.909 28.2819 203.277 27.9561 204.58 27.2395C205.818 26.5228 206.796 25.4803 207.512 24.2424C208.229 23.0045 208.555 21.6363 208.555 20.0726C208.555 18.5741 208.229 17.2059 207.512 15.968C206.796 14.7301 205.818 13.7528 204.515 13.0361C203.277 12.3194 201.909 11.9285 200.411 11.9285ZM214.549 10.5603H218.393C220.543 10.5603 222.041 10.6254 222.823 10.8209C223.866 11.0815 224.778 11.6679 225.494 12.5149C226.146 13.2967 226.537 14.4043 226.537 15.6422C226.537 16.9453 226.146 17.9877 225.494 18.7696C224.843 19.6166 223.866 20.2029 222.693 20.4635C221.846 20.659 220.217 20.7893 217.806 20.7893H216.438V29.7153H214.549V10.5603ZM216.438 12.3846V18.8999L219.696 18.965C220.999 18.965 221.976 18.8347 222.563 18.5741C223.214 18.3786 223.67 17.9877 223.996 17.4665C224.387 16.8801 224.517 16.2937 224.517 15.6422C224.517 14.9907 224.387 14.4043 223.996 13.8831C223.67 13.3619 223.214 12.9709 222.628 12.7755C222.107 12.5149 221.129 12.3846 219.826 12.3846H216.438ZM239.046 10.0391C241.978 10.0391 244.389 11.0164 246.343 12.9709C248.298 14.9255 249.275 17.271 249.275 20.1378C249.275 22.9394 248.298 25.2849 246.343 27.2395C244.389 29.194 242.043 30.1713 239.242 30.1713C236.375 30.1713 233.964 29.194 232.01 27.2395C230.12 25.2849 229.078 22.9394 229.078 20.2029C229.078 18.3786 229.534 16.6847 230.446 15.0558C231.358 13.4922 232.531 12.2543 234.095 11.4073C235.593 10.4951 237.287 10.0391 239.046 10.0391ZM239.177 11.9285C237.743 11.9285 236.375 12.3194 235.137 13.0361C233.834 13.7528 232.857 14.7952 232.14 16.0331C231.423 17.271 231.098 18.6393 231.098 20.2029C231.098 22.4833 231.879 24.3727 233.443 25.9364C235.007 27.5001 236.896 28.2819 239.177 28.2819C240.61 28.2819 241.978 27.9561 243.281 27.2395C244.519 26.5228 245.496 25.4803 246.213 24.2424C246.93 23.0045 247.321 21.6363 247.321 20.0726C247.321 18.5741 246.93 17.2059 246.213 15.968C245.496 14.7301 244.519 13.7528 243.216 13.0361C241.978 12.3194 240.61 11.9285 239.177 11.9285ZM252.794 10.5603H256.572C258.071 10.5603 259.244 10.6906 260.026 11.0815C260.873 11.4724 261.524 11.9937 261.98 12.7755C262.436 13.4922 262.697 14.3392 262.697 15.2513C262.697 16.0983 262.501 16.8801 262.045 17.5317C261.654 18.2483 261.068 18.8347 260.221 19.2256C261.263 19.5514 261.98 20.0075 262.567 20.4635C263.088 20.9196 263.479 21.4408 263.804 22.0924C264.065 22.7439 264.261 23.4606 264.261 24.1773C264.261 25.7409 263.674 27.044 262.567 28.0864C261.459 29.1289 259.895 29.7153 258.006 29.7153H252.794V10.5603ZM254.618 12.3846V18.5741H255.725C257.094 18.5741 258.071 18.4438 258.657 18.1832C259.309 17.9226 259.83 17.5317 260.156 17.0104C260.547 16.4892 260.742 15.9028 260.742 15.2513C260.742 14.3392 260.416 13.6876 259.83 13.1664C259.179 12.6452 258.201 12.3846 256.833 12.3846H254.618ZM254.618 20.4635V27.8258H257.029C258.397 27.8258 259.439 27.6955 260.091 27.4349C260.742 27.1091 261.263 26.7182 261.654 26.1319C262.045 25.5455 262.241 24.8939 262.241 24.2424C262.241 23.3954 261.98 22.6136 261.459 22.0272C260.873 21.3757 260.091 20.9196 259.113 20.7242C258.462 20.5287 257.354 20.4635 255.725 20.4635H254.618ZM268.952 10.5603H270.906V18.7696H272.274C274.75 18.7696 276.574 18.8999 277.682 19.0953C278.79 19.3559 279.637 19.9423 280.288 20.7893C281.005 21.6363 281.331 22.809 281.331 24.1773C281.331 25.5455 281.005 26.6531 280.353 27.5001C279.702 28.4122 278.855 28.9986 277.877 29.2592C276.835 29.5198 275.141 29.7153 272.796 29.7153H268.952V10.5603ZM270.906 27.8258H272.926C275.076 27.8258 276.509 27.6955 277.161 27.5001C277.812 27.3046 278.334 26.9137 278.724 26.3925C279.115 25.8061 279.311 25.0894 279.311 24.2424C279.311 23.2651 279.05 22.5484 278.594 21.8969C278.073 21.3105 277.487 20.9848 276.705 20.7893C275.923 20.659 274.555 20.5938 272.535 20.5938H270.906V27.8258ZM296.967 10.5603H293.123C290.973 10.5603 289.54 10.6254 288.823 10.8209C287.65 11.0815 286.738 11.6027 286.022 12.4497C285.305 13.3619 284.979 14.4043 284.979 15.6422C284.979 16.6847 285.175 17.5968 285.696 18.3786C286.152 19.1605 286.869 19.7469 287.781 20.1378C288.693 20.5938 289.996 20.7893 291.56 20.7893L284.719 29.7153H287.064L293.905 20.7893H295.013V29.7153H296.967V10.5603ZM295.013 12.3846V18.8999L291.755 18.965C290.452 18.965 289.475 18.8347 288.888 18.5741C288.302 18.3135 287.781 17.9226 287.455 17.4014C287.129 16.8801 286.934 16.2937 286.934 15.6422C286.934 14.9907 287.129 14.4043 287.455 13.8831C287.781 13.3619 288.237 12.9709 288.823 12.7755C289.41 12.5149 290.322 12.3846 291.625 12.3846H295.013Z" fill="#0B54A0"/>
<path fill-rule="evenodd" clip-rule="evenodd" d="M84.8292 47.3067H84.1125V52.4538H84.8292V50.5644L85.5459 49.7825L87.1747 52.4538H87.9565L86.0671 49.1961L87.8914 47.3067H86.9792L84.8292 49.7174V47.3067ZM91.0187 47.3067V49.9128C91.0187 51.7371 90.7581 51.9977 90.302 51.9977C90.1066 51.9977 89.9763 51.9977 89.846 51.9977V52.4538C90.0414 52.4538 90.1717 52.5189 90.4323 52.5189C91.2142 52.5189 91.7354 52.0629 91.7354 50.1734V47.7628H93.7551V52.4538H94.4718V47.3067H91.0187ZM100.661 47.3067L98.5765 51.0856C98.4462 51.4113 98.2507 51.8023 98.1204 52.0629C98.1855 51.8023 98.2507 51.1507 98.2507 50.7598V47.3067H97.534V52.4538H98.4462L100.466 48.6749C100.661 48.4143 100.857 47.9582 100.987 47.6976C100.922 48.0234 100.792 48.6749 100.792 49.0658V52.4538H101.508V47.3067H100.661ZM105.287 47.3067H104.571V52.4538H105.287V49.9128H107.698V52.4538H108.415V47.3067H107.698V49.4568H105.287V47.3067ZM114.539 47.3067L112.519 51.0856C112.324 51.4113 112.128 51.8023 112.063 52.0629H111.998C112.128 51.8023 112.193 51.1507 112.193 50.7598V47.3067H111.477V52.4538H112.324L114.409 48.6749C114.539 48.4143 114.8 47.9582 114.865 47.6976C114.8 48.0234 114.734 48.6749 114.734 49.0658V52.4538H115.451V47.3067H114.539ZM119.23 47.3067H118.513V52.4538H119.23V50.5644L119.947 49.7825L121.575 52.4538H122.292L120.468 49.1961L122.292 47.3067H121.38L119.23 49.7174V47.3067ZM127.57 49.6522V50.6295C127.57 51.281 127.309 52.0629 126.201 52.0629C125.485 52.0629 125.289 51.7371 125.289 51.2159C125.289 50.6295 125.485 50.434 126.201 50.1734C126.657 49.978 127.048 49.8477 127.57 49.6522ZM128.742 52.0629C128.286 52.0629 128.286 52.0629 128.286 51.7371V48.6098C128.286 47.6325 127.765 47.1764 126.527 47.1764C125.419 47.1764 124.768 47.6325 124.768 48.6098H125.419C125.55 48.1537 125.55 47.6325 126.527 47.6325C127.179 47.6325 127.57 47.9582 127.57 48.4795C127.57 49.0007 127.439 49.1961 127.113 49.3264L125.68 49.7825C124.898 50.0431 124.573 50.4992 124.573 51.2159C124.573 51.9977 124.898 52.5841 126.136 52.5841C126.657 52.5841 127.244 52.3886 127.57 51.9977C127.7 52.3235 127.895 52.5189 128.286 52.5189C128.417 52.5189 128.612 52.5189 128.742 52.4538V52.0629ZM136.691 47.3067V52.4538H137.408V49.3916C137.408 48.7401 137.342 47.9582 137.277 47.5022C137.408 47.7628 137.668 48.5446 139.036 52.4538H139.688C141.056 48.4795 141.252 47.8279 141.382 47.5022H141.447C141.382 47.8931 141.317 48.7401 141.317 49.3916V52.4538H142.034V47.3067H140.861L139.753 50.4992C139.623 50.9553 139.427 51.4765 139.362 51.9326C139.297 51.4765 139.036 50.7598 138.906 50.4992L137.799 47.3067H136.691ZM148.679 49.8477V49.3264C148.679 48.3492 148.353 47.1764 146.79 47.1764C144.965 47.1764 144.9 48.8704 144.9 49.9128C144.9 50.9553 144.965 52.5841 146.79 52.5841C148.158 52.5841 148.679 51.672 148.679 50.7598H148.028C147.962 51.4113 147.832 52.0629 146.855 52.0629C145.682 52.0629 145.552 51.0856 145.552 49.8477H148.679ZM145.552 49.3916C145.552 48.8052 145.682 47.6325 146.79 47.6325C147.897 47.6325 148.028 48.7401 148.028 49.3916H145.552ZM152.328 47.3067V48.8052C152.328 50.434 152.002 51.2159 151.416 51.9326H150.959V53.822H151.611V52.4538H155.585V53.822H156.237V51.9326H155.65V47.3067H152.328ZM154.934 47.7628V51.9326H152.197C152.653 51.281 152.979 50.434 152.979 49.0007V47.7628H154.934ZM161.97 47.3067L159.885 51.0856C159.755 51.4113 159.56 51.8023 159.429 52.0629C159.495 51.8023 159.56 51.1507 159.56 50.7598V47.3067H158.843V52.4538H159.755L161.775 48.6749C161.97 48.4143 162.166 47.9582 162.296 47.6976C162.231 48.0234 162.101 48.6749 162.101 49.0658V52.4538H162.817V47.3067H161.97ZM166.596 47.3067H165.88V52.4538H169.658V53.822H170.31V51.9326H169.724V47.3067H169.007V51.9326H166.596V47.3067ZM175.978 47.3067L173.893 51.0856C173.763 51.4113 173.568 51.8023 173.437 52.0629C173.502 51.8023 173.568 51.1507 173.568 50.7598V47.3067H172.851V52.4538H173.763L175.783 48.6749C175.978 48.4143 176.174 47.9582 176.304 47.6976C176.239 48.0234 176.174 48.6749 176.174 49.0658V52.4538H176.825V47.3067H175.978ZM180.604 47.3067H179.953V52.4538H180.604V49.9128H183.015V52.4538H183.731V47.3067H183.015V49.4568H180.604V47.3067ZM189.725 50.7598C189.66 51.281 189.595 52.0629 188.618 52.0629C187.445 52.0629 187.25 51.0204 187.25 49.9128C187.25 48.8052 187.38 47.6325 188.553 47.6325C189.335 47.6325 189.725 48.2188 189.725 48.8052H190.377C190.377 47.9582 189.791 47.1764 188.618 47.1764C186.728 47.1764 186.598 48.7401 186.598 49.8477C186.598 51.0204 186.663 52.5841 188.618 52.5841C189.986 52.5841 190.442 51.7371 190.442 50.7598H189.725ZM193.96 47.3067H193.244V52.4538H193.96V50.5644L194.677 49.7825L196.306 52.4538H197.023L195.198 49.1961L197.023 47.3067H196.11L193.96 49.7174V47.3067ZM200.541 52.5841C202.43 52.5841 202.626 51.0204 202.626 49.8477C202.626 48.7401 202.43 47.1764 200.541 47.1764C198.651 47.1764 198.456 48.7401 198.456 49.8477C198.456 51.0204 198.651 52.5841 200.541 52.5841ZM200.476 52.0629C199.238 52.0629 199.173 50.8901 199.173 49.8477C199.173 49.0658 199.238 47.6325 200.541 47.6325C201.779 47.6325 201.909 49.0658 201.909 49.8477C201.909 50.8901 201.779 52.0629 200.476 52.0629ZM208.555 47.3067L206.535 51.0856C206.34 51.4113 206.144 51.8023 206.014 52.0629C206.079 51.8023 206.209 51.1507 206.209 50.7598V47.3067H205.493V52.4538H206.34L208.424 48.6749C208.555 48.4143 208.815 47.9582 208.88 47.6976C208.815 48.0234 208.75 48.6749 208.75 49.0658V52.4538H209.467V47.3067H208.555ZM206.014 45.743C206.144 46.3946 206.6 46.8506 207.382 46.8506C208.229 46.8506 208.815 46.4597 208.88 45.743H208.49C208.424 46.1991 208.033 46.4597 207.447 46.4597C206.926 46.4597 206.535 46.1991 206.405 45.743H206.014ZM219.5 51.9977C219.826 52.3886 220.282 52.5841 220.869 52.5841C222.693 52.5841 222.888 51.0856 222.888 49.7174C222.888 48.6098 222.628 47.1764 220.803 47.1764C220.217 47.1764 219.761 47.437 219.5 47.7628H219.435V47.3067H218.784V54.2129H219.5V51.9977ZM220.803 47.6325C222.041 47.6325 222.172 48.9355 222.172 49.7825C222.172 51.0204 221.976 52.0629 220.803 52.0629C219.566 52.0629 219.5 50.7598 219.5 49.7825C219.5 48.9355 219.566 47.6325 220.803 47.6325ZM229.339 49.8477V49.3264C229.339 48.3492 228.948 47.1764 227.449 47.1764C225.56 47.1764 225.494 48.8704 225.494 49.9128C225.494 50.9553 225.56 52.5841 227.449 52.5841C228.817 52.5841 229.339 51.672 229.339 50.7598H228.622C228.557 51.4113 228.426 52.0629 227.449 52.0629C226.341 52.0629 226.211 51.0856 226.211 49.8477H229.339ZM226.211 49.3916C226.211 48.8052 226.341 47.6325 227.384 47.6325C228.557 47.6325 228.622 48.7401 228.622 49.3916H226.211ZM235.007 49.6522V50.6295C235.007 51.281 234.746 52.0629 233.639 52.0629C232.922 52.0629 232.726 51.7371 232.726 51.2159C232.726 50.6295 232.922 50.434 233.639 50.1734C234.095 49.978 234.486 49.8477 235.007 49.6522ZM236.18 52.0629C235.724 52.0629 235.658 52.0629 235.658 51.7371V48.6098C235.658 47.6325 235.202 47.1764 233.964 47.1764C232.857 47.1764 232.205 47.6325 232.205 48.6098H232.857C232.987 48.1537 232.987 47.6325 233.964 47.6325C234.551 47.6325 235.007 47.9582 235.007 48.4795C235.007 49.0007 234.877 49.1961 234.486 49.3264L233.117 49.7825C232.336 50.0431 232.01 50.4992 232.01 51.2159C232.01 51.9977 232.336 52.5841 233.508 52.5841C234.095 52.5841 234.681 52.3886 235.007 51.9977C235.137 52.3235 235.333 52.5189 235.724 52.5189C235.854 52.5189 236.049 52.5189 236.18 52.4538V52.0629ZM239.177 48.1537C239.372 46.9809 239.958 46.59 240.871 46.3946C241.848 46.134 242.239 46.0036 242.434 45.4824H241.848C241.718 45.6779 241.522 45.743 240.74 45.9385C239.242 46.2643 238.525 46.9158 238.525 49.6522C238.525 51.8674 239.242 52.5841 240.61 52.5841C241.978 52.5841 242.695 51.8023 242.695 49.9128C242.695 47.9582 241.978 47.3067 240.61 47.3067C239.958 47.3067 239.437 47.7628 239.177 48.1537ZM240.61 52.0629C239.763 52.0629 239.242 51.672 239.242 49.9128C239.242 48.6098 239.763 47.8279 240.61 47.8279C241.457 47.8279 241.978 48.284 241.978 49.9128C241.978 51.672 241.392 52.0629 240.61 52.0629ZM248.689 47.3067L246.604 51.0856C246.474 51.4113 246.278 51.8023 246.148 52.0629C246.213 51.8023 246.278 51.1507 246.278 50.7598V47.3067H245.562V52.4538H246.474L248.493 48.6749C248.689 48.4143 248.884 47.9582 249.015 47.6976C248.95 48.0234 248.819 48.6749 248.819 49.0658V52.4538H249.536V47.3067H248.689ZM253.185 47.3067V49.9128C253.185 51.7371 252.924 51.9977 252.468 51.9977C252.338 51.9977 252.207 51.9977 252.077 51.9977V52.4538C252.207 52.4538 252.403 52.5189 252.663 52.5189C253.38 52.5189 253.901 52.0629 253.901 50.1734V47.7628H255.986V52.4538H256.703V47.3067H253.185ZM262.827 47.3067L260.807 51.0856C260.612 51.4113 260.416 51.8023 260.286 52.0629C260.351 51.8023 260.482 51.1507 260.482 50.7598V47.3067H259.765V52.4538H260.612L262.697 48.6749C262.827 48.4143 263.088 47.9582 263.153 47.6976C263.088 48.0234 263.023 48.6749 263.023 49.0658V52.4538H263.739V47.3067H262.827ZM266.15 47.3067V47.7628H267.779V52.4538H268.495V47.7628H270.059V47.3067H266.15ZM275.206 49.6522V50.6295C275.206 51.281 275.011 52.0629 273.903 52.0629C273.186 52.0629 272.991 51.7371 272.991 51.2159C272.991 50.6295 273.186 50.434 273.903 50.1734C274.359 49.978 274.75 49.8477 275.206 49.6522ZM276.444 52.0629C275.988 52.0629 275.923 52.0629 275.923 51.7371V48.6098C275.923 47.6325 275.467 47.1764 274.229 47.1764C273.056 47.1764 272.47 47.6325 272.47 48.6098H273.121C273.252 48.1537 273.252 47.6325 274.229 47.6325C274.815 47.6325 275.206 47.9582 275.206 48.4795C275.206 49.0007 275.141 49.1961 274.75 49.3264L273.382 49.7825C272.6 50.0431 272.274 50.4992 272.274 51.2159C272.274 51.9977 272.6 52.5841 273.773 52.5841C274.359 52.5841 274.946 52.3886 275.271 51.9977C275.337 52.3235 275.597 52.5189 275.988 52.5189C276.118 52.5189 276.314 52.5189 276.444 52.4538V52.0629ZM279.702 47.3067H278.985V52.4538H282.699V53.822H283.35V51.9326H282.829V47.3067H282.112V51.9326H279.702V47.3067ZM289.084 47.3067L286.999 51.0856C286.869 51.4113 286.673 51.8023 286.543 52.0629C286.608 51.8023 286.673 51.1507 286.673 50.7598V47.3067H285.956V52.4538H286.869L288.888 48.6749C289.084 48.4143 289.279 47.9582 289.41 47.6976C289.344 48.0234 289.214 48.6749 289.214 49.0658V52.4538H289.931V47.3067H289.084ZM296.12 47.3067L294.035 51.0856C293.905 51.4113 293.71 51.8023 293.579 52.0629C293.645 51.8023 293.71 51.1507 293.71 50.7598V47.3067H292.993V52.4538H293.905L295.925 48.6749C296.12 48.4143 296.316 47.9582 296.446 47.6976C296.381 48.0234 296.316 48.6749 296.316 49.0658V52.4538H296.967V47.3067H296.12Z" fill="black"/>
</g>
<defs>
<clipPath id="clip0_453_47051">
<rect width="296.967" height="64.252" fill="white"/>
</clipPath>
</defs>
</svg>
