<svg width="433" height="433" viewBox="0 0 433 433" fill="none" xmlns="http://www.w3.org/2000/svg">
<path fill-rule="evenodd" clip-rule="evenodd" d="M199.373 220.013C199.373 200.252 200.252 181.807 201.569 165.559C205.082 131.744 202.008 132.184 172.585 117.253C173.463 132.623 169.072 147.554 161.167 159.411C157.654 164.681 153.263 169.072 148.432 173.024C163.802 199.373 181.807 228.357 172.585 259.537C178.294 263.05 182.246 266.124 185.76 273.15C194.103 256.023 199.373 239.336 199.373 220.013ZM233.627 57.9675C221.331 68.068 209.474 70.2637 190.151 69.8245C201.569 83.8773 215.622 91.3428 228.796 96.1734C233.188 90.0254 238.897 85.1947 243.727 79.0467C242.41 77.2901 241.092 74.216 239.775 72.0203C237.14 67.1897 235.823 63.2373 233.627 57.9675ZM231.431 54.4544C226.6 58.8458 221.77 61.4807 218.696 61.9199C213.426 63.2373 210.791 60.6024 206.839 52.6978C202.447 46.1105 194.543 41.2799 188.395 39.0842H183.564C181.807 39.0842 180.051 39.0842 178.733 39.0842C187.955 40.4016 199.373 48.3063 202.447 53.1369C210.791 66.3114 203.765 67.1897 187.516 65.8722C182.686 57.0892 169.95 44.354 156.337 42.1582C154.141 42.5974 151.506 43.0365 149.31 43.4757C158.972 45.6714 166.437 48.7454 172.146 54.4544C176.098 58.4067 179.172 63.6765 183.125 68.9462C195.421 86.9513 210.352 95.2951 224.844 100.565C223.087 103.2 220.891 105.835 219.135 108.47C203.765 126.914 190.151 115.496 172.585 107.152C171.268 82.5598 162.046 66.7505 140.088 57.0892C139.21 51.8195 137.892 48.7454 135.697 47.428C134.379 47.8671 132.623 48.3063 131.744 48.7454C133.062 50.502 134.379 51.3803 134.818 55.3327C130.427 54.0152 126.035 52.2586 122.961 51.8195C120.327 53.1369 117.692 54.0152 115.057 55.3327C120.327 56.211 127.792 57.9675 135.258 60.6024C135.697 67.6288 133.062 78.6075 131.305 85.1947C121.205 79.0467 113.3 68.9462 104.956 60.6024C103.639 61.4807 101.004 63.2373 99.6866 64.1156C105.396 72.8986 122.522 95.2951 152.824 108.03C158.093 110.226 162.485 112.422 166.876 114.618C168.194 129.988 164.681 144.48 156.337 156.337C153.263 160.728 149.31 165.559 144.919 169.072C133.062 149.31 120.327 133.94 99.2475 114.178C99.2475 109.348 98.8083 101.004 94.856 93.0994C96.6126 90.9037 103.2 77.7292 97.93 65.4331C96.1734 66.3114 94.856 67.6288 93.0994 68.5071C96.1734 75.9726 93.5385 83.8773 91.7819 87.8296C89.1471 83.8773 86.073 80.8032 81.2424 77.7292C79.4858 79.4858 78.1684 80.8032 76.4118 82.5598C88.7079 89.1471 93.0994 102.761 93.5385 110.665C86.5122 105.835 75.9726 97.93 66.3114 93.0994C65.4331 93.9777 63.2373 96.6126 62.359 97.4909C78.6075 108.47 95.2951 118.131 106.274 131.744C99.2475 132.623 86.5122 134.379 74.6552 133.501C68.5071 133.501 62.359 132.623 57.0892 131.305C51.3803 129.988 47.428 128.67 44.354 126.914L40.8408 132.184C44.354 133.501 48.3063 134.818 53.5761 136.136C52.2586 138.771 50.9412 141.845 48.7454 144.919C46.5497 142.284 41.2799 138.332 37.7667 138.771L34.6927 143.162C37.3276 143.162 43.4757 147.115 45.2323 149.31C43.9148 150.628 42.5974 152.384 40.8408 153.702C36.4493 157.654 33.8144 159.85 29.4229 158.972L26.788 164.241C32.9361 165.559 39.0842 162.924 44.7931 157.654C46.1105 156.776 46.9888 155.458 48.3063 154.141C52.2586 160.289 57.5284 165.998 62.7982 170.829C32.9361 172.585 23.714 181.368 23.2748 181.368L22.3966 187.955C22.3966 187.955 27.2272 184.003 37.3276 180.929C37.3276 183.564 37.7667 191.029 21.5183 198.056L21.9574 204.204C44.354 194.103 42.5974 180.49 42.5974 179.172C49.6237 177.416 58.8458 176.098 69.8245 176.098C72.4594 177.855 75.0943 179.172 78.1684 180.49C90.4645 187.077 104.956 189.273 119.448 186.638C127.353 184.881 134.818 181.807 140.967 178.294C149.749 192.786 160.728 212.109 164.241 227.918C165.559 237.14 167.755 247.68 163.363 251.632C155.019 259.537 134.818 253.388 122.522 230.553C117.253 220.891 107.591 212.109 95.7343 205.96C73.7769 194.103 47.428 188.834 22.8357 209.913L23.714 215.622C36.0101 205.082 48.7454 202.447 61.9199 202.447C62.359 210.352 61.9199 218.257 58.8458 225.722C55.7718 220.891 52.6978 217.378 48.3063 216.061C42.1582 214.304 37.3276 214.304 25.4706 221.77L26.788 227.479C37.3276 220.891 42.1582 220.013 46.5497 221.331C50.0629 222.648 52.6978 226.161 55.7718 231.431C54.4544 233.188 53.1369 234.944 51.3803 236.701C43.4757 228.796 29.8621 236.262 29.8621 236.262L31.6187 240.653C31.6187 240.653 42.1582 235.383 47.428 240.653C43.9148 243.288 40.4016 245.923 35.1318 248.119L37.7667 252.51C43.0365 250.314 46.1105 248.558 50.0629 245.923C50.0629 246.801 50.0629 247.68 49.6237 248.997C49.1846 251.193 47.8671 253.828 45.2323 255.584C44.354 256.462 42.5974 257.78 41.2799 258.219L44.354 262.611C46.1105 261.732 47.428 261.293 48.7454 259.976C52.6978 256.902 54.4544 253.388 55.3327 249.875C55.7718 246.801 55.3327 244.166 54.4544 241.531C58.4067 237.579 61.0416 233.627 63.2373 229.235C67.1897 220.891 68.068 211.669 67.6288 202.886C76.8509 203.765 85.6339 206.839 93.0994 210.791C104.078 216.5 112.861 224.844 117.692 233.188C122.083 241.092 122.522 249.436 117.692 256.023C111.104 264.367 95.7343 270.515 67.1897 270.515C66.3114 266.124 62.7982 256.023 46.5497 266.124L50.0629 270.515C59.285 263.928 60.6024 269.198 61.4807 271.394C58.8458 272.711 56.6501 273.589 54.4544 275.346L58.4067 279.298C60.6024 277.542 62.7982 276.224 65.8722 276.224C69.8245 276.224 73.3377 276.224 76.8509 275.785C76.4118 279.298 76.4118 285.007 68.068 288.959L72.0203 292.473C81.6815 287.203 82.5598 279.737 82.5598 275.346C113.3 272.272 117.253 256.902 149.749 261.293C153.702 261.732 157.215 262.611 160.728 263.928C155.458 277.102 145.797 288.52 135.697 300.816C119.887 320.139 98.3692 348.684 89.5862 380.302C64.9939 361.419 45.2323 337.266 31.6187 310.039C17.1268 281.494 9.22211 249.436 9.22211 216.5C9.22211 159.411 32.497 107.591 69.8245 69.8245C107.591 32.497 159.411 9.22211 216.5 9.22211C274.028 9.22211 325.848 32.497 363.175 69.8245C400.503 107.591 423.778 159.411 423.778 216.5C423.778 331.118 331.118 423.778 216.5 423.778C194.103 423.778 172.146 420.265 150.628 413.238C167.755 364.932 187.955 356.149 210.791 357.467C243.288 359.223 274.907 382.937 316.187 380.741C320.578 378.985 323.652 375.911 327.604 374.154C313.991 376.35 298.182 378.106 310.478 360.541C314.43 353.953 321.896 347.805 331.996 346.488C346.488 344.731 354.392 348.244 358.345 351.318C358.784 350.001 360.98 348.684 361.419 347.805C350.879 337.705 362.297 328.922 371.519 335.07L374.593 331.996C365.371 325.409 350.001 331.118 352.636 342.535C347.366 340.779 340.779 339.901 331.557 341.218C330.239 341.218 329.361 341.218 328.044 341.657C326.726 340.34 325.848 338.144 324.53 335.07H324.97C327.604 334.192 330.239 332.874 332.874 331.996C341.657 327.604 350.44 321.896 355.71 316.626C362.297 316.187 375.472 315.308 372.837 324.97L377.667 326.726C379.424 321.896 379.863 317.943 375.472 314.869C374.154 313.991 372.398 313.113 369.763 312.673C371.519 312.673 374.154 312.234 376.789 311.356C382.059 310.039 383.815 301.256 384.255 297.303C384.255 295.986 384.255 294.668 384.255 293.351C370.202 295.108 355.271 296.864 347.366 282.372C350.44 280.616 353.953 278.859 357.467 277.102C361.419 281.055 370.202 291.594 383.815 287.642C377.228 281.494 377.667 277.542 380.741 275.346C388.646 274.468 398.307 272.711 404.895 266.563L402.26 262.611C395.672 267.441 392.159 267.002 390.842 266.563C390.403 266.563 389.963 266.563 389.524 266.563C364.054 260.415 375.911 272.711 360.101 271.833C358.345 260.415 360.98 257.341 365.81 256.462C368.006 256.023 371.08 256.462 374.593 256.462C382.059 256.462 390.403 256.902 398.746 252.071L396.112 247.24C393.477 248.997 389.963 249.875 386.889 250.314C386.889 247.68 386.889 243.727 390.842 241.092L387.329 236.701C381.62 240.653 381.181 246.801 381.62 250.754C378.985 250.754 376.789 250.754 374.593 250.754C371.08 250.754 367.567 250.754 364.932 251.193C357.027 252.51 352.197 256.902 354.392 272.272C352.197 273.589 349.562 274.468 347.366 275.785C347.805 267.441 347.366 250.754 338.144 238.897C343.414 236.262 345.61 229.674 347.366 224.844C349.123 227.04 350.001 230.114 350.879 232.748C355.71 246.801 369.763 247.24 380.302 236.701C381.62 235.383 383.376 233.627 384.694 232.748L381.62 228.357C379.863 229.674 378.106 230.992 376.35 232.748C371.08 238.018 360.541 242.41 357.027 232.748C372.837 229.674 377.667 222.648 377.667 222.648L374.154 218.257C374.154 218.257 369.324 225.283 354.832 227.479C354.392 225.722 353.514 224.405 352.636 223.087C353.075 218.696 357.906 216.5 369.324 213.865L366.689 209.474C366.689 209.474 353.953 211.23 350.001 217.378C347.366 215.622 346.927 208.595 348.684 206.4C353.075 200.252 354.392 206.839 364.054 191.469C368.884 184.442 368.884 179.612 369.763 171.707C364.054 171.707 358.345 172.146 352.636 172.585C354.832 166.876 357.906 161.606 367.128 162.046C366.689 160.289 366.249 158.532 365.371 156.776C352.636 156.776 349.562 164.241 346.488 173.903C340.779 174.781 335.07 176.538 330.239 179.612C314.43 189.273 312.234 206.839 287.642 208.156C287.642 188.395 306.525 165.559 322.774 153.702C324.97 153.702 348.684 155.458 363.615 149.749L362.297 146.236L361.858 144.919C352.636 147.993 338.583 148.432 330.239 148.432C338.144 143.162 346.927 140.088 354.832 139.21C355.71 138.771 358.345 138.771 359.223 138.771L358.784 135.697L357.906 133.501C356.588 133.501 355.271 133.501 353.953 133.501C353.075 133.501 352.636 133.94 351.758 133.94C352.197 130.866 353.075 127.353 354.392 125.157C353.953 123.401 353.075 121.644 352.197 119.887C347.805 123.84 346.488 131.744 346.049 135.258C317.943 143.162 281.494 176.977 280.616 209.474C267.002 210.352 253.388 213.865 240.653 218.696C240.214 212.987 245.045 201.13 251.193 193.664C258.658 182.686 269.198 175.22 279.298 167.315C290.716 158.093 301.695 149.31 309.599 137.453C330.239 133.94 341.218 126.035 343.414 104.956L338.583 97.0517C338.583 118.131 332.874 126.475 312.673 130.866C314.869 124.718 314.869 117.692 314.43 110.226C314.43 106.274 313.991 102.321 314.43 98.3692C317.504 98.8083 320.578 98.3692 323.652 97.4909C328.044 95.7343 331.557 93.0994 334.192 90.9037L330.678 86.5122C328.483 88.7079 325.409 90.9037 321.896 92.2211C319.7 92.6602 317.065 93.0994 315.308 92.6602C316.187 87.3905 317.943 82.999 321.456 77.7292C320.139 76.8509 318.382 75.5335 317.065 74.216C307.843 86.9513 308.721 99.2475 309.16 110.665C309.16 119.009 309.599 126.475 305.647 133.062C300.816 140.527 295.986 142.284 290.277 133.94C279.737 110.665 259.976 106.274 238.018 99.2475C241.531 94.856 245.484 90.4645 248.997 86.073C252.071 89.5862 255.584 92.2211 260.415 94.4168C261.732 94.856 263.05 95.2951 264.367 95.7343C274.468 98.3692 283.69 96.1734 291.594 91.3428C299.499 86.073 305.647 78.1684 309.16 69.3854L309.599 68.9462C307.843 68.068 306.086 66.7505 304.769 65.8722C304.33 66.3114 304.33 66.7505 304.33 67.1897C302.134 72.4594 298.621 77.7292 294.668 81.6815C292.033 78.6075 290.716 74.6552 290.716 70.2637C290.277 66.7505 291.155 62.7982 292.033 58.8458C290.277 57.9675 288.52 57.0892 286.764 56.211C285.885 60.6024 285.007 65.8722 285.007 70.7028C285.007 75.9726 286.764 81.2424 290.716 85.1947C289.838 85.6339 289.399 86.073 288.52 86.5122C281.933 90.9037 274.028 92.6602 266.124 90.4645C264.806 90.0254 263.489 89.5862 262.171 89.1471C258.658 87.3905 255.145 84.7556 252.949 81.6815C262.611 71.142 271.394 61.9199 276.663 56.211C277.981 55.3327 279.298 54.0152 280.176 53.1369C277.981 52.2586 276.224 51.8195 274.028 50.9412C267.002 56.6501 255.145 68.068 247.24 75.0943C243.727 68.5071 239.775 61.0416 236.701 54.8935C241.092 50.0629 241.092 45.2323 241.092 41.7191C240.214 41.2799 239.336 40.8408 238.457 40.8408C238.018 43.4757 238.897 47.428 234.944 51.8195C229.674 43.0365 216.5 38.645 215.183 38.645H206.4C209.474 38.645 228.357 45.2323 231.431 54.4544ZM341.218 279.298C341.657 274.907 343.414 256.023 334.192 243.288C330.678 248.558 324.53 257.78 315.747 267.002C319.261 273.15 321.896 280.176 322.335 286.764C322.335 289.399 322.335 292.033 321.896 294.668C328.044 288.959 334.192 283.69 341.218 279.298ZM166.876 104.078C164.681 85.1947 158.532 72.4594 140.527 63.6765C140.527 72.4594 138.332 80.3641 136.136 88.7079C146.236 95.2951 155.898 99.2475 166.876 104.078ZM291.155 370.641C288.081 346.927 268.319 337.266 256.902 320.139C252.51 314.43 248.997 306.964 245.484 297.303C228.796 295.108 212.987 287.203 200.691 275.785C192.347 306.086 227.479 343.853 263.489 360.98L268.759 363.615C275.785 366.689 283.251 368.884 291.155 370.641ZM317.504 331.557C316.187 326.287 315.308 319.7 315.308 310.478C314.869 302.573 317.065 293.351 316.626 287.203C316.187 281.933 314.43 276.224 311.356 270.954C303.012 279.737 292.473 287.642 281.494 292.473C271.394 296.864 263.489 298.182 253.828 297.742C259.537 326.726 283.69 342.535 317.504 331.557ZM283.251 340.779C293.79 353.953 296.425 362.736 296.864 368.884V371.08C297.303 374.593 305.647 347.805 321.896 343.414C321.017 342.096 320.139 339.901 319.261 337.266C304.33 341.657 296.864 342.975 283.251 340.779ZM321.017 303.89C320.578 314.869 321.456 323.652 322.774 330.239L324.091 329.8C326.287 328.922 328.483 327.604 330.678 326.726C343.414 321.017 353.075 314.43 356.149 306.525C361.419 306.525 368.445 308.282 373.276 305.208C382.498 296.864 370.202 300.377 363.175 299.06C350.879 296.864 345.17 289.838 342.535 285.007C334.631 290.277 327.604 296.864 321.017 303.89ZM339.022 202.447C328.483 203.326 325.409 203.765 317.065 209.913C319.7 217.817 332.435 214.743 339.022 215.622C339.461 211.669 343.414 205.96 339.022 202.447ZM227.479 224.844C238.018 219.135 233.627 215.183 238.897 203.765C246.801 185.76 261.732 173.903 275.785 162.924C291.155 150.628 290.277 144.919 278.42 126.035C269.637 111.983 249.436 108.47 234.066 103.639C227.918 111.983 222.648 119.887 220.013 126.035C215.183 137.014 212.548 150.628 210.791 166.437C209.474 180.051 209.034 194.982 209.034 211.23C209.474 227.918 216.061 230.114 227.479 224.844ZM170.829 356.588C172.146 357.906 175.659 356.149 180.49 353.953C190.59 349.562 198.934 349.123 209.913 349.123C218.696 349.123 227.04 350.001 230.992 351.318C207.717 331.557 197.177 316.187 190.151 302.573C189.273 321.017 158.532 345.17 170.829 356.588ZM87.3905 390.403C60.1633 369.763 38.2059 343.853 23.2748 314.43C8.34381 284.129 0 250.754 0 216.5C0 156.776 24.1531 102.761 63.2373 63.2373C102.761 24.1531 156.776 0 216.5 0C276.224 0 330.678 24.1531 369.763 63.2373C408.847 102.761 433 156.776 433 216.5C433 335.948 335.948 433 216.5 433C192.786 433 169.072 429.048 146.675 421.582L138.332 418.069C144.041 404.895 146.236 359.223 164.241 328.922C183.564 296.864 184.442 274.907 169.072 268.319C162.924 281.494 153.263 293.79 143.162 306.525C126.475 326.726 101.882 362.297 95.2951 395.233L87.3905 390.403ZM242.849 289.838C196.738 282.811 194.103 254.706 234.066 231.431C234.066 248.558 237.579 274.028 242.849 289.838ZM278.42 286.764C288.959 282.372 310.039 272.711 302.573 258.658C294.668 249.875 284.129 241.971 273.589 236.262C263.05 230.992 252.51 227.04 244.166 226.6C242.41 227.04 241.531 227.04 240.214 227.918C238.897 257.341 240.653 303.012 278.42 286.764ZM312.673 262.171C326.287 250.754 328.483 243.727 331.557 239.336C324.091 237.14 307.843 232.309 297.742 227.04C291.594 223.966 286.325 220.452 283.69 216.939C272.272 217.817 263.928 218.696 253.388 222.648C260.854 224.405 268.319 227.479 276.224 231.431C287.203 237.579 298.182 245.484 306.525 255.145C308.282 256.902 311.356 260.415 312.673 262.171ZM110.226 136.575C104.078 137.453 89.1471 140.088 74.216 139.21C69.3854 138.771 64.1156 138.332 59.285 137.453C57.5284 141.406 55.3327 145.358 52.2586 149.749C58.8458 160.728 68.9462 169.95 80.3641 175.659C92.2211 181.368 104.956 183.564 118.131 180.929C125.596 179.612 132.623 176.977 138.332 173.463C130.427 160.289 121.205 147.993 110.226 136.575ZM359.662 188.395C361.419 185.32 363.175 181.368 363.615 177.416C359.223 177.855 355.271 177.855 350.879 178.733H350.44H350.001C343.853 179.612 337.705 181.368 332.874 184.442C324.97 189.273 321.456 194.543 316.626 202.447C326.287 197.617 329.361 197.617 340.34 196.738C351.318 195.86 356.149 193.664 359.662 188.395ZM309.599 213.426C303.012 214.743 297.742 214.743 290.716 216.061C292.912 218.257 296.425 220.452 300.377 222.209C313.552 228.796 331.557 234.505 333.753 234.505C338.583 234.505 342.535 227.918 342.535 221.331C331.996 219.574 322.335 227.04 309.599 213.426Z" fill="#F3F6FA"/>
</svg>
