<svg width="47" height="47" viewBox="0 0 47 47" fill="none" xmlns="http://www.w3.org/2000/svg">
<path fill-rule="evenodd" clip-rule="evenodd" d="M21.641 23.8813C21.641 21.7363 21.7363 19.7343 21.8793 17.9706C22.2606 14.3002 21.927 14.3479 18.7333 12.7272C18.8286 14.3955 18.3519 16.0162 17.4939 17.3032C17.1126 17.8753 16.6359 18.3519 16.1116 18.7809C17.7799 21.641 19.7343 24.787 18.7333 28.1714C19.3529 28.5527 19.7819 28.8864 20.1633 29.6491C21.069 27.7901 21.641 25.9787 21.641 23.8813ZM25.359 6.29209C24.0243 7.38844 22.7373 7.62677 20.64 7.57911C21.8793 9.10446 23.4047 9.91481 24.8347 10.4391C25.3114 9.77181 25.931 9.24746 26.4554 8.58012C26.3124 8.38945 26.1694 8.05578 26.0264 7.81744C25.7404 7.2931 25.5974 6.8641 25.359 6.29209ZM25.1207 5.91075C24.5963 6.38742 24.072 6.67343 23.7383 6.7211C23.1663 6.8641 22.8803 6.57809 22.4513 5.72008C21.9746 5.00507 21.1166 4.48073 20.4493 4.24239H19.9249C19.7343 4.24239 19.5436 4.24239 19.4006 4.24239C20.4016 4.3854 21.641 5.24341 21.9746 5.76775C22.8803 7.19777 22.1176 7.2931 20.354 7.1501C19.8296 6.19675 18.4473 4.8144 16.9696 4.57606C16.7312 4.62373 16.4452 4.6714 16.2069 4.71907C17.2556 4.9574 18.0659 5.29108 18.6856 5.91075C19.1146 6.33976 19.4483 6.91176 19.8773 7.48377C21.212 9.43813 22.8327 10.3438 24.4057 10.9158C24.215 11.2018 23.9767 11.4878 23.786 11.7738C22.1176 13.7759 20.64 12.5365 18.7333 11.6308C18.5903 8.96146 17.5892 7.24544 15.2059 6.19675C15.1105 5.62475 14.9675 5.29108 14.7292 5.14807C14.5862 5.19574 14.3955 5.24341 14.3002 5.29108C14.4432 5.48174 14.5862 5.57708 14.6339 6.00609C14.1572 5.86308 13.6805 5.67241 13.3469 5.62475C13.0609 5.76775 12.7748 5.86308 12.4888 6.00609C13.0609 6.10142 13.8712 6.29209 14.6815 6.57809C14.7292 7.34077 14.4432 8.53245 14.2525 9.24746C13.1562 8.58012 12.2982 7.48377 11.3925 6.57809C11.2495 6.67343 10.9635 6.8641 10.8205 6.95943C11.4402 7.91278 13.2992 10.3438 16.5882 11.7262C17.1602 11.9645 17.6369 12.2028 18.1136 12.4412C18.2566 14.1095 17.8753 15.6826 16.9696 16.9696C16.6359 17.4462 16.2069 17.9706 15.7302 18.3519C14.4432 16.2069 13.0609 14.5385 10.7728 12.3935C10.7728 11.8692 10.7252 10.9635 10.2961 10.1055C10.4868 9.86714 11.2018 8.43712 10.6298 7.10243C10.4391 7.19777 10.2961 7.34077 10.1055 7.43611C10.4391 8.24645 10.1531 9.10446 9.96247 9.53347C9.67647 9.10446 9.3428 8.77079 8.81846 8.43712C8.62779 8.62779 8.48479 8.77079 8.29412 8.96146C9.6288 9.67647 10.1055 11.1542 10.1531 12.0122C9.39047 11.4878 8.24645 10.6298 7.19777 10.1055C7.10243 10.2008 6.8641 10.4868 6.76876 10.5822C8.53245 11.7738 10.3438 12.8225 11.5355 14.3002C10.7728 14.3955 9.39047 14.5862 8.10345 14.4909C7.43611 14.4909 6.76876 14.3955 6.19675 14.2525C5.57708 14.1095 5.14807 13.9665 4.8144 13.7759L4.43306 14.3479C4.8144 14.4909 5.24341 14.6339 5.81542 14.7769C5.67241 15.0629 5.52941 15.3966 5.29108 15.7302C5.05274 15.4442 4.48073 15.0152 4.09939 15.0629L3.76572 15.5396C4.05172 15.5396 4.71907 15.9686 4.90974 16.2069C4.76673 16.3499 4.62373 16.5406 4.43306 16.6836C3.95639 17.1126 3.67039 17.3509 3.19371 17.2556L2.90771 17.8276C3.57505 17.9706 4.24239 17.6846 4.86207 17.1126C5.00507 17.0172 5.10041 16.8742 5.24341 16.7312C5.67241 17.3986 6.24442 18.0183 6.81643 18.5426C3.57505 18.7333 2.57404 19.6866 2.52637 19.6866L2.43103 20.4016C2.43103 20.4016 2.95538 19.9726 4.05172 19.6389C4.05172 19.9249 4.09939 20.7353 2.3357 21.498L2.38337 22.1653C4.8144 21.069 4.62373 19.5913 4.62373 19.4483C5.38641 19.2576 6.38742 19.1146 7.57911 19.1146C7.86511 19.3053 8.15112 19.4483 8.48479 19.5913C9.81947 20.3063 11.3925 20.5446 12.9655 20.2586C13.8235 20.068 14.6339 19.7343 15.3012 19.3529C16.2546 20.926 17.4462 23.0233 17.8276 24.7394C17.9706 25.7404 18.2089 26.8844 17.7323 27.3134C16.8266 28.1714 14.6339 27.5041 13.2992 25.0254C12.7272 23.9767 11.6785 23.0233 10.3915 22.356C8.00811 21.069 5.14807 20.497 2.4787 22.785L2.57404 23.4047C3.90872 22.2606 5.29108 21.9746 6.7211 21.9746C6.76876 22.8327 6.7211 23.6907 6.38742 24.501C6.05375 23.9767 5.72008 23.5953 5.24341 23.4523C4.57606 23.2617 4.05172 23.2617 2.76471 24.072L2.90771 24.6917C4.05172 23.9767 4.57606 23.8813 5.05274 24.0243C5.43408 24.1673 5.72008 24.5487 6.05375 25.1207C5.91075 25.3114 5.76775 25.502 5.57708 25.6927C4.71907 24.8347 3.24138 25.645 3.24138 25.645L3.43205 26.1217C3.43205 26.1217 4.57606 25.5497 5.14807 26.1217C4.76673 26.4077 4.3854 26.6937 3.81339 26.932L4.09939 27.4087C4.6714 27.1704 5.00507 26.9797 5.43408 26.6937C5.43408 26.789 5.43408 26.8844 5.38641 27.0274C5.33874 27.2657 5.19574 27.5517 4.90974 27.7424C4.8144 27.8377 4.62373 27.9807 4.48073 28.0284L4.8144 28.5051C5.00507 28.4097 5.14807 28.3621 5.29108 28.2191C5.72008 27.8854 5.91075 27.5041 6.00609 27.1227C6.05375 26.789 6.00609 26.503 5.91075 26.217C6.33976 25.788 6.62576 25.359 6.8641 24.8824C7.2931 23.9767 7.38844 22.9757 7.34077 22.0223C8.34179 22.1176 9.29513 22.4513 10.1055 22.8803C11.2972 23.5 12.2505 24.4057 12.7748 25.3114C13.2515 26.1694 13.2992 27.0751 12.7748 27.7901C12.0598 28.6957 10.3915 29.3631 7.2931 29.3631C7.19777 28.8864 6.81643 27.7901 5.05274 28.8864L5.43408 29.3631C6.43509 28.6481 6.57809 29.2201 6.67343 29.4584C6.38742 29.6014 6.14909 29.6968 5.91075 29.8874L6.33976 30.3164C6.57809 30.1258 6.81643 29.9828 7.1501 29.9828C7.57911 29.9828 7.96045 29.9828 8.34179 29.9351C8.29412 30.3164 8.29412 30.9361 7.38844 31.3651L7.81744 31.7465C8.86613 31.1744 8.96146 30.3641 8.96146 29.8874C12.2982 29.5538 12.7272 27.8854 16.2546 28.3621C16.6836 28.4097 17.0649 28.5051 17.4462 28.6481C16.8742 30.0781 15.8256 31.3174 14.7292 32.6521C13.0132 34.7495 10.6775 37.8479 9.72414 41.2799C7.05477 39.2302 4.90974 36.6085 3.43205 33.6531C1.85903 30.5548 1.00101 27.0751 1.00101 23.5C1.00101 17.3032 3.52738 11.6785 7.57911 7.57911C11.6785 3.52738 17.3032 1.00101 23.5 1.00101C29.7444 1.00101 35.3692 3.52738 39.4209 7.57911C43.4726 11.6785 45.999 17.3032 45.999 23.5C45.999 35.9412 35.9412 45.999 23.5 45.999C21.069 45.999 18.6856 45.6176 16.3499 44.855C18.2089 39.6116 20.4016 38.6582 22.8803 38.8012C26.4077 38.9919 29.8398 41.5659 34.3205 41.3276C34.7972 41.1369 35.1308 40.8032 35.5598 40.6126C34.0822 40.8509 32.3661 41.0416 33.7008 39.1349C34.1298 38.4199 34.9402 37.7525 36.0365 37.6095C37.6095 37.4189 38.4675 37.8002 38.8966 38.1339C38.9442 37.9909 39.1826 37.8479 39.2302 37.7525C38.0862 36.6562 39.3256 35.7028 40.3266 36.3702L40.6602 36.0365C39.6592 35.3215 37.9909 35.9412 38.2769 37.1805C37.7049 36.9899 36.9899 36.8945 35.9888 37.0375C35.8458 37.0375 35.7505 37.0375 35.6075 37.0852C35.4645 36.9422 35.3692 36.7039 35.2262 36.3702H35.2738C35.5598 36.2748 35.8458 36.1318 36.1318 36.0365C37.0852 35.5598 38.0385 34.9402 38.6105 34.3682C39.3256 34.3205 40.7556 34.2252 40.4696 35.2738L40.9939 35.4645C41.1846 34.9402 41.2323 34.5112 40.7556 34.1775C40.6126 34.0822 40.4219 33.9868 40.1359 33.9391C40.3266 33.9391 40.6126 33.8915 40.8986 33.7961C41.4706 33.6531 41.6613 32.6998 41.7089 32.2708C41.7089 32.1278 41.7089 31.9848 41.7089 31.8418C40.1836 32.0325 38.5629 32.2231 37.7049 30.6501C38.0385 30.4594 38.4199 30.2688 38.8012 30.0781C39.2302 30.5071 40.1836 31.6511 41.6613 31.2221C40.9462 30.5548 40.9939 30.1258 41.3276 29.8874C42.1856 29.7921 43.2343 29.6014 43.9493 28.9341L43.6633 28.5051C42.9483 29.0294 42.5669 28.9817 42.4239 28.9341C42.3763 28.9341 42.3286 28.9341 42.2809 28.9341C39.5162 28.2667 40.8032 29.6014 39.0872 29.5061C38.8966 28.2667 39.1826 27.9331 39.7069 27.8377C39.9452 27.7901 40.2789 27.8377 40.6602 27.8377C41.4706 27.8377 42.3763 27.8854 43.2819 27.3611L42.9959 26.8367C42.7099 27.0274 42.3286 27.1227 41.9949 27.1704C41.9949 26.8844 41.9949 26.4554 42.4239 26.1694L42.0426 25.6927C41.4229 26.1217 41.3753 26.789 41.4229 27.2181C41.1369 27.2181 40.8986 27.2181 40.6602 27.2181C40.2789 27.2181 39.8976 27.2181 39.6116 27.2657C38.7535 27.4087 38.2292 27.8854 38.4675 29.5538C38.2292 29.6968 37.9432 29.7921 37.7049 29.9351C37.7525 29.0294 37.7049 27.2181 36.7039 25.931C37.2759 25.645 37.5142 24.93 37.7049 24.4057C37.8955 24.644 37.9909 24.9777 38.0862 25.2637C38.6105 26.789 40.1359 26.8367 41.2799 25.6927C41.4229 25.5497 41.6136 25.359 41.7566 25.2637L41.4229 24.787C41.2323 24.93 41.0416 25.073 40.8509 25.2637C40.2789 25.8357 39.1349 26.3124 38.7535 25.2637C40.4696 24.93 40.9939 24.1673 40.9939 24.1673L40.6126 23.6907C40.6126 23.6907 40.0882 24.4533 38.5152 24.6917C38.4675 24.501 38.3722 24.358 38.2769 24.215C38.3245 23.7383 38.8489 23.5 40.0882 23.214L39.8022 22.7373C39.8022 22.7373 38.4199 22.928 37.9909 23.5953C37.7049 23.4047 37.6572 22.642 37.8479 22.4037C38.3245 21.7363 38.4675 22.4513 39.5162 20.783C40.0406 20.0203 40.0406 19.4959 40.1359 18.6379C39.5162 18.6379 38.8966 18.6856 38.2769 18.7333C38.5152 18.1136 38.8489 17.5416 39.8499 17.5892C39.8022 17.3986 39.7546 17.2079 39.6592 17.0172C38.2769 17.0172 37.9432 17.8276 37.6095 18.8763C36.9899 18.9716 36.3702 19.1623 35.8458 19.4959C34.1298 20.5446 33.8915 22.4513 31.2221 22.5943C31.2221 20.4493 33.2718 17.9706 35.0355 16.6836C35.2738 16.6836 37.8479 16.8742 39.4686 16.2546L39.3256 15.8732L39.2779 15.7302C38.2769 16.0639 36.7515 16.1116 35.8458 16.1116C36.7039 15.5396 37.6572 15.2059 38.5152 15.1105C38.6105 15.0629 38.8966 15.0629 38.9919 15.0629L38.9442 14.7292L38.8489 14.4909C38.7059 14.4909 38.5629 14.4909 38.4199 14.4909C38.3245 14.4909 38.2769 14.5385 38.1815 14.5385C38.2292 14.2049 38.3245 13.8235 38.4675 13.5852C38.4199 13.3945 38.3245 13.2039 38.2292 13.0132C37.7525 13.4422 37.6095 14.3002 37.5619 14.6815C34.5112 15.5396 30.5548 19.2099 30.4594 22.7373C28.9817 22.8327 27.5041 23.214 26.1217 23.7383C26.074 23.1187 26.5984 21.8316 27.2657 21.0213C28.0761 19.8296 29.2201 19.0193 30.3164 18.1613C31.5558 17.1602 32.7475 16.2069 33.6055 14.9199C35.8458 14.5385 37.0375 13.6805 37.2759 11.3925L36.7515 10.5345C36.7515 12.8225 36.1318 13.7282 33.9391 14.2049C34.1775 13.5375 34.1775 12.7748 34.1298 11.9645C34.1298 11.5355 34.0822 11.1065 34.1298 10.6775C34.4635 10.7252 34.7972 10.6775 35.1308 10.5822C35.6075 10.3915 35.9888 10.1055 36.2748 9.86714L35.8935 9.39047C35.6552 9.6288 35.3215 9.86714 34.9402 10.0101C34.7018 10.0578 34.4158 10.1055 34.2252 10.0578C34.3205 9.4858 34.5112 9.00913 34.8925 8.43712C34.7495 8.34179 34.5588 8.19878 34.4158 8.05578C33.4148 9.43813 33.5101 10.7728 33.5578 12.0122C33.5578 12.9178 33.6055 13.7282 33.1765 14.4432C32.6521 15.2535 32.1278 15.4442 31.5081 14.5385C30.3641 12.0122 28.2191 11.5355 25.8357 10.7728C26.217 10.2961 26.646 9.81947 27.0274 9.3428C27.3611 9.72414 27.7424 10.0101 28.2667 10.2485C28.4097 10.2961 28.5527 10.3438 28.6957 10.3915C29.7921 10.6775 30.7931 10.4391 31.6511 9.91481C32.5091 9.3428 33.1765 8.48479 33.5578 7.53144L33.6055 7.48377C33.4148 7.38844 33.2241 7.24544 33.0811 7.1501C33.0335 7.19777 33.0335 7.24544 33.0335 7.2931C32.7951 7.86511 32.4138 8.43712 31.9848 8.86613C31.6988 8.53245 31.5558 8.10345 31.5558 7.62677C31.5081 7.24544 31.6034 6.81643 31.6988 6.38742C31.5081 6.29209 31.3174 6.19675 31.1268 6.10142C31.0314 6.57809 30.9361 7.1501 30.9361 7.67444C30.9361 8.24645 31.1268 8.81846 31.5558 9.24746C31.4604 9.29513 31.4128 9.3428 31.3174 9.39047C30.6024 9.86714 29.7444 10.0578 28.8864 9.81947C28.7434 9.77181 28.6004 9.72414 28.4574 9.67647C28.0761 9.4858 27.6947 9.1998 27.4564 8.86613C28.5051 7.72211 29.4584 6.7211 30.0304 6.10142C30.1734 6.00609 30.3164 5.86308 30.4118 5.76775C30.1734 5.67241 29.9828 5.62475 29.7444 5.52941C28.9817 6.14909 27.6947 7.38844 26.8367 8.15112C26.4554 7.43611 26.0264 6.62576 25.6927 5.95842C26.1694 5.43408 26.1694 4.90974 26.1694 4.5284C26.074 4.48073 25.9787 4.43306 25.8834 4.43306C25.8357 4.71907 25.931 5.14807 25.502 5.62475C24.93 4.6714 23.5 4.19473 23.357 4.19473H22.4037C22.7373 4.19473 24.787 4.90974 25.1207 5.91075ZM37.0375 30.3164C37.0852 29.8398 37.2759 27.7901 36.2748 26.4077C35.8935 26.9797 35.2262 27.9807 34.2728 28.9817C34.6542 29.6491 34.9402 30.4118 34.9878 31.1268C34.9878 31.4128 34.9878 31.6988 34.9402 31.9848C35.6075 31.3651 36.2748 30.7931 37.0375 30.3164ZM18.1136 11.2972C17.8753 9.24746 17.2079 7.86511 15.2535 6.91176C15.2535 7.86511 15.0152 8.72312 14.7769 9.6288C15.8732 10.3438 16.9219 10.7728 18.1136 11.2972ZM31.6034 40.2312C31.2698 37.6572 29.1247 36.6085 27.8854 34.7495C27.4087 34.1298 27.0274 33.3195 26.646 32.2708C24.8347 32.0325 23.1187 31.1744 21.784 29.9351C20.8783 33.2241 24.6917 37.3235 28.6004 39.1826L29.1724 39.4686C29.9351 39.8022 30.7454 40.0406 31.6034 40.2312ZM34.4635 35.9888C34.3205 35.4168 34.2252 34.7018 34.2252 33.7008C34.1775 32.8428 34.4158 31.8418 34.3682 31.1744C34.3205 30.6024 34.1298 29.9828 33.7961 29.4108C32.8905 30.3641 31.7465 31.2221 30.5548 31.7465C29.4584 32.2231 28.6004 32.3661 27.5517 32.3185C28.1714 35.4645 30.7931 37.1805 34.4635 35.9888ZM30.7454 36.9899C31.8895 38.4199 32.1755 39.3732 32.2231 40.0406V40.2789C32.2708 40.6602 33.1765 37.7525 34.9402 37.2759C34.8448 37.1329 34.7495 36.8945 34.6542 36.6085C33.0335 37.0852 32.2231 37.2282 30.7454 36.9899ZM34.8448 32.9858C34.7972 34.1775 34.8925 35.1308 35.0355 35.8458L35.1785 35.7982C35.4168 35.7028 35.6552 35.5598 35.8935 35.4645C37.2759 34.8448 38.3245 34.1298 38.6582 33.2718C39.2302 33.2718 39.9929 33.4625 40.5172 33.1288C41.5183 32.2231 40.1836 32.6045 39.4209 32.4615C38.0862 32.2231 37.4665 31.4604 37.1805 30.9361C36.3225 31.5081 35.5598 32.2231 34.8448 32.9858ZM36.7992 21.9746C35.6552 22.07 35.3215 22.1176 34.4158 22.785C34.7018 23.643 36.0842 23.3093 36.7992 23.4047C36.8469 22.9757 37.2759 22.356 36.7992 21.9746ZM24.6917 24.4057C25.8357 23.786 25.359 23.357 25.931 22.1176C26.789 20.1633 28.4097 18.8763 29.9351 17.6846C31.6034 16.3499 31.5081 15.7302 30.2211 13.6805C29.2677 12.1552 27.0751 11.7738 25.4067 11.2495C24.7394 12.1552 24.1673 13.0132 23.8813 13.6805C23.357 14.8722 23.071 16.3499 22.8803 18.0659C22.7373 19.5436 22.6897 21.1643 22.6897 22.928C22.7373 24.7394 23.4523 24.9777 24.6917 24.4057ZM18.5426 38.7059C18.6856 38.8489 19.0669 38.6582 19.5913 38.4199C20.6876 37.9432 21.5933 37.8955 22.785 37.8955C23.7383 37.8955 24.644 37.9909 25.073 38.1339C22.5467 35.9888 21.4026 34.3205 20.64 32.8428C20.5446 34.8448 17.2079 37.4665 18.5426 38.7059ZM9.4858 42.3763C6.53043 40.1359 4.14706 37.3235 2.52637 34.1298C0.90568 30.8408 0 27.2181 0 23.5C0 17.0172 2.6217 11.1542 6.8641 6.8641C11.1542 2.6217 17.0172 0 23.5 0C29.9828 0 35.8935 2.6217 40.1359 6.8641C44.3783 11.1542 47 17.0172 47 23.5C47 36.4655 36.4655 47 23.5 47C20.926 47 18.3519 46.571 15.9209 45.7606L15.0152 45.3793C15.6349 43.9493 15.8732 38.9919 17.8276 35.7028C19.9249 32.2231 20.0203 29.8398 18.3519 29.1247C17.6846 30.5548 16.6359 31.8895 15.5396 33.2718C13.7282 35.4645 11.0588 39.3256 10.3438 42.9006L9.4858 42.3763ZM26.36 31.4604C21.355 30.6978 21.069 27.6471 25.4067 25.1207C25.4067 26.9797 25.788 29.7444 26.36 31.4604ZM30.2211 31.1268C31.3651 30.6501 33.6531 29.6014 32.8428 28.0761C31.9848 27.1227 30.8408 26.2647 29.6968 25.645C28.5527 25.073 27.4087 24.644 26.503 24.5963C26.3124 24.644 26.217 24.644 26.074 24.7394C25.931 27.9331 26.1217 32.8905 30.2211 31.1268ZM33.9391 28.4574C35.4168 27.2181 35.6552 26.4554 35.9888 25.9787C35.1785 25.7404 33.4148 25.216 32.3185 24.644C31.6511 24.3103 31.0791 23.929 30.7931 23.5477C29.5538 23.643 28.6481 23.7383 27.5041 24.1673C28.3144 24.358 29.1247 24.6917 29.9828 25.1207C31.1744 25.788 32.3661 26.646 33.2718 27.6947C33.4625 27.8854 33.7961 28.2667 33.9391 28.4574ZM11.9645 14.8245C11.2972 14.9199 9.67647 15.2059 8.05578 15.1105C7.53144 15.0629 6.95943 15.0152 6.43509 14.9199C6.24442 15.3489 6.00609 15.7779 5.67241 16.2546C6.38742 17.4462 7.48377 18.4473 8.72312 19.0669C10.0101 19.6866 11.3925 19.9249 12.8225 19.6389C13.6329 19.4959 14.3955 19.2099 15.0152 18.8286C14.1572 17.3986 13.1562 16.0639 11.9645 14.8245ZM39.0396 20.4493C39.2302 20.1156 39.4209 19.6866 39.4686 19.2576C38.9919 19.3053 38.5629 19.3053 38.0862 19.4006H38.0385H37.9909C37.3235 19.4959 36.6562 19.6866 36.1318 20.0203C35.2738 20.5446 34.8925 21.1166 34.3682 21.9746C35.4168 21.4503 35.7505 21.4503 36.9422 21.355C38.1339 21.2596 38.6582 21.0213 39.0396 20.4493ZM33.6055 23.1663C32.8905 23.3093 32.3185 23.3093 31.5558 23.4523C31.7941 23.6907 32.1755 23.929 32.6045 24.1197C34.0345 24.8347 35.9888 25.4544 36.2272 25.4544C36.7515 25.4544 37.1805 24.7394 37.1805 24.0243C36.0365 23.8337 34.9878 24.644 33.6055 23.1663Z" fill="white"/>
</svg>
