<svg width="83" height="103" viewBox="0 0 83 103" fill="none" xmlns="http://www.w3.org/2000/svg">
<path d="M15.7821 42.6401C12.253 42.6401 9.38281 45.4887 9.38281 48.9924C9.38281 52.4944 12.253 55.3429 15.7821 55.3429C19.3088 55.3429 22.1764 52.4944 22.1764 48.9924C22.1764 45.4887 19.3088 42.6401 15.7821 42.6401ZM15.7821 52.786C13.6739 52.786 11.9583 51.0853 11.9583 48.9924C11.9583 46.8994 13.6739 45.1978 15.7821 45.1978C17.8878 45.1978 19.6009 46.9002 19.6009 48.9924C19.6009 51.0845 17.8878 52.786 15.7821 52.786Z" fill="#727F8E"/>
<path d="M15.7795 37.4468C9.36777 37.4468 4.15039 42.6256 4.15039 48.9927C4.15039 54.9362 13.6838 67.0482 14.7711 68.4094C15.0151 68.7168 15.3869 68.8939 15.7795 68.8939C16.1721 68.8939 16.544 68.7168 16.788 68.4094C17.8753 67.0482 27.4086 54.9354 27.4086 48.9927C27.4086 42.6256 22.1913 37.4468 15.7795 37.4468ZM15.7795 65.5229C12.5525 61.2802 6.72671 52.8276 6.72671 48.9927C6.72671 44.0355 10.7896 40.0045 15.7795 40.0045C20.7703 40.0045 24.8332 44.0363 24.8332 48.9927C24.8323 52.8276 19.0066 61.2802 15.7795 65.5229Z" fill="#727F8E"/>
<path d="M67.221 17.1064C63.6944 17.1064 60.8242 19.955 60.8242 23.4562C60.8242 26.9582 63.6944 29.8076 67.221 29.8076C70.7477 29.8076 73.6178 26.9582 73.6178 23.4562C73.6178 19.955 70.7477 17.1064 67.221 17.1064ZM67.221 27.2507C65.1128 27.2507 63.3997 25.5491 63.3997 23.4562C63.3997 21.3649 65.112 19.6641 67.221 19.6641C69.3284 19.6641 71.0424 21.3649 71.0424 23.4562C71.0424 25.5483 69.3284 27.2507 67.221 27.2507Z" fill="#727F8E"/>
<path d="M67.2209 11.9126C60.8083 11.9126 55.5918 17.0906 55.5918 23.456C55.5918 28.976 63.8022 39.7984 65.8464 42.408C65.8191 42.4072 65.7983 42.3924 65.7709 42.3924H63.1963C62.4849 42.3924 61.9081 42.9642 61.9081 43.672C61.9081 44.3782 62.4841 44.9501 63.1963 44.9501H65.7726C66.4839 44.9501 67.0607 44.379 67.0607 43.672C67.0607 43.5402 67.0234 43.4207 66.9852 43.302C67.0657 43.3169 67.1388 43.3556 67.2218 43.3556C67.6143 43.3556 67.9862 43.1768 68.2302 42.8703C69.3167 41.5099 78.8501 29.4003 78.8501 23.456C78.8501 17.0906 73.6327 11.9126 67.2209 11.9126ZM67.2209 39.9855C63.9931 35.7443 58.1673 27.2934 58.1673 23.456C58.1673 18.5013 62.231 14.4695 67.2209 14.4695C72.2109 14.4695 76.2737 18.5013 76.2737 23.456C76.2737 27.2934 70.448 35.7435 67.2209 39.9855Z" fill="#727F8E"/>
<path d="M21.1918 67.9297H18.6163C17.9041 67.9297 17.3281 68.5007 17.3281 69.2094C17.3281 69.9155 17.9041 70.4874 18.6163 70.4874H21.1926C21.9039 70.4874 22.4808 69.9163 22.4808 69.2094C22.4799 68.5015 21.9039 67.9297 21.1918 67.9297Z" fill="#727F8E"/>
<path d="M57.7603 42.394H52.4151C51.7038 42.394 51.127 42.9651 51.127 43.6729C51.127 44.3791 51.703 44.9517 52.4151 44.9517H57.7603C58.4716 44.9517 59.0485 44.3799 59.0485 43.6729C59.0485 42.9659 58.4716 42.394 57.7603 42.394Z" fill="#727F8E"/>
<path d="M42.1514 56.0558C42.5009 56.0558 42.8511 55.9158 43.1043 55.6389C43.5824 55.114 43.5442 54.3065 43.018 53.8319C41.9497 52.8661 41.338 51.4933 41.338 50.0629C41.338 49.3551 40.7628 48.7832 40.0499 48.7832C39.3386 48.7832 38.7617 49.3542 38.7617 50.0629C38.7617 52.211 39.6797 54.2743 41.2824 55.7229C41.5298 55.9454 41.8418 56.0558 42.1514 56.0558Z" fill="#727F8E"/>
<path d="M31.8917 67.9297H26.544C25.8319 67.9297 25.2559 68.5007 25.2559 69.2094C25.2559 69.9155 25.8319 70.4874 26.544 70.4874H31.8917C32.603 70.4874 33.1799 69.9163 33.1799 69.2094C33.1799 68.5015 32.603 67.9297 31.8917 67.9297Z" fill="#727F8E"/>
<path d="M55.869 58.7322C55.2399 59.0585 54.9959 59.8331 55.3287 60.4576C55.7163 61.1902 55.9122 61.9862 55.9122 62.8233C55.9122 63.4249 55.8084 64.014 55.6051 64.571C55.3611 65.236 55.708 65.9694 56.3753 66.2092C56.5214 66.2619 56.6691 66.2866 56.8152 66.2866C57.3406 66.2866 57.8361 65.9644 58.0254 65.4453C58.3316 64.604 58.4885 63.7215 58.4885 62.8233C58.4885 61.584 58.1839 60.3563 57.607 59.2694C57.2775 58.6457 56.4948 58.4059 55.869 58.7322Z" fill="#727F8E"/>
<path d="M42.1428 46.622C42.4548 46.622 42.7644 46.5107 43.0134 46.2858C43.9596 45.4264 45.1922 44.9517 46.4803 44.9517H47.0663C47.7776 44.9517 48.3545 44.3799 48.3545 43.6729C48.3545 42.9659 47.7785 42.394 47.0663 42.394H46.4803C44.5456 42.394 42.6964 43.1068 41.2738 44.4013C40.75 44.8768 40.7127 45.6859 41.1924 46.2067C41.4472 46.4819 41.7933 46.622 42.1428 46.622Z" fill="#727F8E"/>
<path d="M42.5845 67.9297H37.2393C36.5272 67.9297 35.9512 68.5007 35.9512 69.2094C35.9512 69.9155 36.5264 70.4874 37.2393 70.4874H42.5845C43.2958 70.4874 43.8727 69.9163 43.8727 69.2094C43.8719 68.5015 43.2958 67.9297 42.5845 67.9297Z" fill="#727F8E"/>
<path d="M50.7663 57.7185C51.2112 57.7185 51.6519 57.7762 52.0744 57.8858C52.1848 57.9163 52.296 57.9278 52.403 57.9278C52.9741 57.9278 53.4945 57.5496 53.6489 56.9769C53.8298 56.2963 53.4198 55.5942 52.7325 55.4146C52.0934 55.2473 51.4328 55.1616 50.7655 55.1616H47.0753C46.364 55.1616 45.7871 55.7343 45.7871 56.4413C45.7871 57.1483 46.3631 57.7193 47.0753 57.7193L50.7663 57.7185Z" fill="#727F8E"/>
<path d="M52.7218 67.5489C52.1059 67.8035 51.4494 67.9304 50.768 67.9304H47.9327C47.2205 67.9304 46.6445 68.5014 46.6445 69.21C46.6445 69.9162 47.2197 70.4881 47.9327 70.4881H50.7671C51.788 70.4881 52.7774 70.2936 53.7078 69.9121C54.3644 69.6418 54.6764 68.8936 54.405 68.2418C54.1303 67.5851 53.3758 67.2761 52.7218 67.5489Z" fill="#727F8E"/>
</svg>
