<svg width="121" height="121" viewBox="0 0 121 121" fill="none" xmlns="http://www.w3.org/2000/svg">
<path d="M45.1117 32.2838C45.4329 32.2832 45.7483 32.1981 46.0261 32.0369C46.5321 31.7443 47.0442 31.4608 47.5624 31.1864C47.775 31.0742 47.9634 30.9211 48.1168 30.736C48.2702 30.551 48.3856 30.3375 48.4565 30.1078C48.5274 29.8781 48.5524 29.6367 48.53 29.3973C48.5076 29.158 48.4383 28.9254 48.326 28.7128C48.2137 28.5003 48.0607 28.3119 47.8756 28.1585C47.6905 28.0051 47.477 27.8896 47.2473 27.8187C47.0176 27.7478 46.7762 27.7229 46.5369 27.7453C46.2975 27.7677 46.065 27.837 45.8524 27.9493C45.2915 28.248 44.7368 28.5528 44.1881 28.8637C43.8403 29.0654 43.5688 29.3761 43.4153 29.7477C43.2619 30.1193 43.2351 30.531 43.3392 30.9193C43.4433 31.3076 43.6725 31.6508 43.9912 31.8958C44.31 32.1408 44.7005 32.2739 45.1025 32.2746L45.1117 32.2838Z" fill="#B6C5D7"/>
<path d="M87.7992 32.1101C88.3052 32.4089 88.802 32.7137 89.2897 33.0246C89.6971 33.2822 90.1897 33.3685 90.6605 33.2648C91.1312 33.1611 91.5419 32.8758 91.8034 32.4709C92.0649 32.0661 92.156 31.5743 92.0569 31.1026C91.9578 30.6309 91.6764 30.2174 91.2741 29.952C90.7437 29.6106 90.2042 29.2784 89.6555 28.9553C89.2404 28.7562 88.7656 28.7209 88.3257 28.8566C87.8857 28.9922 87.5132 29.2888 87.2823 29.6871C87.0514 30.0853 86.9792 30.556 87.0801 31.0051C87.181 31.4543 87.4476 31.8489 87.8266 32.1101H87.7992Z" fill="#B6C5D7"/>
<path d="M53.4336 28.5427C53.6262 28.5423 53.8175 28.5114 54.0005 28.4513C54.5553 28.2684 55.1131 28.1007 55.674 27.9483C56.1294 27.8075 56.5119 27.4944 56.7399 27.0758C56.968 26.6571 57.0235 26.166 56.8948 25.707C56.766 25.248 56.4631 24.8574 56.0506 24.6185C55.6381 24.3795 55.1486 24.311 54.6864 24.4276C54.0767 24.5983 53.4671 24.7843 52.8575 24.9855C52.4446 25.1212 52.0936 25.3994 51.8672 25.7704C51.6409 26.1414 51.5541 26.5809 51.6223 27.0101C51.6905 27.4393 51.9094 27.8302 52.2396 28.1127C52.5698 28.3952 52.9898 28.5509 53.4244 28.5519L53.4336 28.5427Z" fill="#B6C5D7"/>
<path d="M71.2926 26.6597C71.9023 26.7206 72.4814 26.7938 73.0301 26.8791H73.3044C73.5446 26.8966 73.7859 26.8665 74.0144 26.7907C74.243 26.7148 74.4544 26.5947 74.6365 26.4372C74.8186 26.2797 74.968 26.0879 75.076 25.8726C75.184 25.6574 75.2485 25.423 75.2659 25.1828C75.2834 24.9426 75.2533 24.7014 75.1775 24.4728C75.1016 24.2443 74.9815 24.0329 74.824 23.8507C74.6665 23.6686 74.4747 23.5193 74.2594 23.4113C74.0442 23.3033 73.8098 23.2387 73.5696 23.2213C72.96 23.1299 72.329 23.0476 71.6767 22.9744C71.4365 22.9486 71.1936 22.9703 70.9618 23.0384C70.7301 23.1064 70.514 23.2195 70.3259 23.3711C70.1378 23.5226 69.9814 23.7098 69.8656 23.9218C69.7499 24.1338 69.677 24.3665 69.6512 24.6067C69.6253 24.8469 69.6471 25.0898 69.7151 25.3216C69.7832 25.5534 69.8962 25.7695 70.0478 25.9575C70.1994 26.1456 70.3865 26.302 70.5985 26.4178C70.8106 26.5335 71.0433 26.6064 71.2835 26.6322L71.2926 26.6597Z" fill="#B6C5D7"/>
<path d="M62.3582 26.6502H62.5502C63.1294 26.5892 63.7116 26.5405 64.2969 26.5039C64.7819 26.4748 65.2355 26.2542 65.558 25.8906C65.8804 25.5271 66.0451 25.0503 66.016 24.5652C65.9869 24.0802 65.7663 23.6266 65.4028 23.3041C65.0392 22.9817 64.5624 22.817 64.0774 22.8461C63.4677 22.8826 62.8337 22.9345 62.1753 23.0015C61.6902 23.0258 61.2347 23.2417 60.9088 23.6019C60.583 23.962 60.4136 24.4368 60.4378 24.9219C60.4621 25.4069 60.678 25.8625 61.0382 26.1883C61.3983 26.5142 61.8731 26.6836 62.3582 26.6594V26.6502Z" fill="#B6C5D7"/>
<path d="M79.8611 28.5065C80.4159 28.6894 80.9676 28.8845 81.5163 29.0918C81.7408 29.1771 81.98 29.2173 82.2201 29.2101C82.4602 29.2029 82.6965 29.1485 82.9156 29.05C83.1347 28.9515 83.3322 28.8108 83.4969 28.636C83.6616 28.4612 83.7903 28.2556 83.8756 28.031C83.9608 27.8065 84.001 27.5673 83.9939 27.3272C83.9867 27.0871 83.9323 26.8508 83.8338 26.6317C83.7353 26.4126 83.5946 26.2151 83.4198 26.0503C83.2449 25.8856 83.0394 25.757 82.8148 25.6717C82.2051 25.4461 81.5955 25.2328 80.9859 25.0316C80.5336 24.9119 80.0526 24.9701 79.6419 25.1942C79.2311 25.4183 78.9219 25.7913 78.7779 26.2364C78.6338 26.6815 78.6658 27.165 78.8673 27.5873C79.0687 28.0095 79.4244 28.3385 79.8611 28.5065Z" fill="#B6C5D7"/>
<path d="M101.589 45.3234C101.715 45.535 101.882 45.7189 102.081 45.8642C102.28 46.0094 102.506 46.1131 102.746 46.1688C102.986 46.2245 103.235 46.2313 103.477 46.1886C103.72 46.1458 103.951 46.0546 104.158 45.9203C104.364 45.7859 104.541 45.6113 104.678 45.4068C104.816 45.2024 104.91 44.9723 104.956 44.7304C105.003 44.4885 104.999 44.2397 104.947 43.9991C104.895 43.7584 104.795 43.5308 104.652 43.3299C104.305 42.7995 103.948 42.2752 103.582 41.757C103.443 41.5613 103.266 41.3949 103.063 41.2673C102.859 41.1398 102.633 41.0536 102.396 41.0137C102.159 40.9738 101.916 40.9809 101.682 41.0347C101.448 41.0885 101.227 41.1879 101.031 41.3272C100.835 41.4665 100.669 41.643 100.541 41.8466C100.414 42.0502 100.328 42.2769 100.288 42.5139C100.248 42.7508 100.255 42.9932 100.309 43.2274C100.362 43.4615 100.462 43.6828 100.601 43.8785C100.943 44.348 101.272 44.8296 101.589 45.3234Z" fill="#B6C5D7"/>
<path d="M96.0838 38.5288C96.2537 38.6987 96.4555 38.8335 96.6775 38.9254C96.8995 39.0174 97.1375 39.0647 97.3778 39.0647C97.6181 39.0647 97.856 39.0174 98.0781 38.9254C98.3001 38.8335 98.5018 38.6987 98.6717 38.5288C98.8416 38.3588 98.9764 38.1571 99.0684 37.9351C99.1604 37.7131 99.2077 37.4751 99.2077 37.2348C99.2077 36.9945 99.1604 36.7565 99.0684 36.5345C98.9764 36.3125 98.8416 36.1108 98.6717 35.9408C98.2206 35.4897 97.7603 35.0508 97.2909 34.624C97.1149 34.4558 96.907 34.3243 96.6795 34.2375C96.452 34.1506 96.2095 34.1101 95.9661 34.1182C95.7227 34.1263 95.4834 34.183 95.2622 34.2848C95.0411 34.3867 94.8424 34.5317 94.678 34.7113C94.5136 34.8909 94.3867 35.1016 94.3048 35.3309C94.2229 35.5602 94.1876 35.8036 94.201 36.0467C94.2144 36.2899 94.2762 36.5279 94.3828 36.7468C94.4895 36.9657 94.6387 37.1612 94.8219 37.3217C95.2547 37.7118 95.6753 38.1142 96.0838 38.5288Z" fill="#B6C5D7"/>
<path d="M101.863 49.5488C101.609 49.9624 101.531 50.4596 101.644 50.9312C101.757 51.4028 102.053 51.8101 102.466 52.0636L107.953 55.4105C108.224 55.5676 108.531 55.6524 108.845 55.6567C109.158 55.661 109.468 55.5846 109.743 55.435C110.018 55.2853 110.251 55.0674 110.418 54.8021C110.585 54.5368 110.681 54.233 110.696 53.9199L110.943 47.3724C110.952 47.1322 110.914 46.8926 110.83 46.6673C110.747 46.442 110.62 46.2353 110.456 46.0591C110.293 45.8829 110.096 45.7406 109.878 45.6404C109.659 45.5402 109.423 45.4839 109.183 45.4749C108.943 45.4659 108.703 45.5043 108.478 45.5879C108.253 45.6715 108.046 45.7986 107.87 45.9621C107.693 46.1256 107.551 46.3221 107.451 46.5406C107.351 46.759 107.294 46.9951 107.285 47.2353L107.157 50.6553L104.414 48.9453C104.208 48.8141 103.978 48.7255 103.737 48.6848C103.496 48.6441 103.249 48.6521 103.011 48.7084C102.773 48.7646 102.549 48.868 102.352 49.0124C102.155 49.1567 101.988 49.3391 101.863 49.5488Z" fill="#B6C5D7"/>
<path d="M116.439 59.7361C112.425 57.9072 107.761 59.4343 103.308 61.3547C85.1101 69.2282 62.3858 60.6048 50.2692 48.5522C43.4657 41.767 38.9299 32.4303 36.3329 25.8005C36.2527 25.567 36.1261 25.3522 35.9608 25.169C35.7954 24.9857 35.5946 24.8378 35.3705 24.7343C35.1465 24.6307 34.9038 24.5735 34.657 24.5662C34.4103 24.5589 34.1646 24.6017 33.9349 24.6919C33.7051 24.782 33.4959 24.9178 33.32 25.091C33.1441 25.2641 33.0051 25.4711 32.9113 25.6995C32.8175 25.9278 32.7709 26.1727 32.7743 26.4196C32.7777 26.6664 32.831 26.91 32.9311 27.1356C35.6745 34.1038 40.4297 43.9159 47.6905 51.1493C60.9593 64.3724 84.8541 73.3158 104.734 64.7199C107.03 63.7231 111.812 61.6656 114.894 63.0647C115.852 63.5006 116.61 64.2837 117.014 65.2561C117.418 66.2285 117.438 67.3179 117.07 68.3046C116.321 70.1335 114.19 71.8435 111.081 73.2152C110.327 73.5186 109.554 73.7721 108.767 73.9742C107.467 74.2833 106.211 74.7533 105.027 75.3733C102.823 76.6536 100.994 77.6595 99.2934 78.5282C90.3774 83.1005 82.2661 85.9445 74.5115 87.307C73.2039 87.5356 71.887 87.7551 70.5702 87.9746C62.4315 89.3097 54.0185 90.7179 46.7943 95.7017C45.3586 96.6894 43.9686 97.8141 42.6244 98.8932C39.945 101.051 37.4119 103.091 34.4948 104.243C33.162 104.764 31.7467 105.043 30.3157 105.066H30.1146C27.7019 105.073 25.3399 104.374 23.3201 103.054C21.8326 102.104 20.5962 100.809 19.7158 99.2791C18.8355 97.7492 18.3372 96.0296 18.2632 94.266C18.2632 92.5926 17.6505 53.0057 7.28967 38.3103C7.00402 37.9312 6.58214 37.6779 6.1132 37.6042C5.64427 37.5304 5.16501 37.6418 4.77673 37.9149C4.38845 38.188 4.12157 38.6014 4.03249 39.0676C3.94342 39.5339 4.03912 40.0166 4.29939 40.4136C14.0201 54.1853 14.6053 93.9094 14.6053 94.3575C14.6974 96.7135 15.3574 99.0124 16.5293 101.058C17.7011 103.104 19.3501 104.837 21.3358 106.108C23.7302 107.682 26.5027 108.585 29.3647 108.724H29.5659H50.5984C51.0835 108.724 51.5487 108.531 51.8917 108.188C52.2347 107.845 52.4274 107.38 52.4274 106.895C52.4274 106.41 52.2347 105.944 51.8917 105.601C51.5487 105.258 51.0835 105.066 50.5984 105.066H40.5394C42.0574 104.032 43.4839 102.88 44.8922 101.746C46.3005 100.612 47.5167 99.6339 48.8427 98.7195C55.4268 94.1472 63.0717 92.9218 71.1646 91.5867C72.4997 91.3672 73.8257 91.1477 75.1517 90.9191C83.2629 89.4834 91.7034 86.5023 100.949 81.7745C102.723 80.8601 104.606 79.8359 106.865 78.5282C107.788 78.07 108.761 77.7202 109.764 77.4857C110.713 77.2448 111.645 76.9392 112.553 76.5713C115.36 75.3367 119.009 73.142 120.445 69.722C121.187 67.8616 121.185 65.787 120.439 63.9279C119.694 62.0689 118.262 60.568 116.439 59.7361Z" fill="#B6C5D7"/>
<path d="M24.4729 49.7407C24.4828 49.8209 24.4981 49.9003 24.5186 49.9784C24.5186 50.1156 28.6337 63.3936 22.5525 72.4741C22.403 72.6729 22.2956 72.9001 22.2369 73.1418C22.1782 73.3835 22.1694 73.6346 22.2111 73.8798C22.2527 74.125 22.3439 74.3591 22.4792 74.5679C22.6144 74.7766 22.7908 74.9556 22.9975 75.0938C23.2043 75.2321 23.4371 75.3267 23.6816 75.3719C23.9262 75.4172 24.1774 75.412 24.4199 75.3568C24.6625 75.3016 24.8912 75.1976 25.0921 75.051C25.293 74.9044 25.4619 74.7183 25.5885 74.5042C27.9699 70.7839 29.3235 66.4991 29.5115 62.0859C29.8042 63.7502 30.0053 65.5517 30.2157 67.4172C30.4435 70.1122 30.8374 72.7905 31.3953 75.437C31.9349 80.3934 31.7794 87.4347 28.0027 93.0769C27.8532 93.2757 27.7458 93.5028 27.6871 93.7445C27.6284 93.9862 27.6196 94.2373 27.6612 94.4825C27.7029 94.7278 27.7941 94.9619 27.9293 95.1706C28.0646 95.3794 28.2409 95.5583 28.4477 95.6966C28.6545 95.8348 28.8872 95.9295 29.1318 95.9747C29.3764 96.0199 29.6276 96.0148 29.8701 95.9596C30.1126 95.9044 30.3414 95.8003 30.5423 95.6537C30.7432 95.5071 30.9121 95.3211 31.0387 95.107C33.3849 91.4635 34.7866 87.293 35.1172 82.9721C36.1697 84.1078 37.4523 85.006 38.8793 85.6067C40.3064 86.2075 41.8452 86.4971 43.393 86.4562C45.103 86.4291 46.8024 86.1832 48.45 85.7246C51.9698 85.447 55.4992 86.1263 58.6645 87.6907C58.8825 87.7982 59.1198 87.861 59.3624 87.8757C59.605 87.8904 59.8481 87.8565 60.0775 87.7762C60.3069 87.6958 60.5179 87.5705 60.6984 87.4076C60.8788 87.2447 61.0249 87.0475 61.1282 86.8275C61.2315 86.6075 61.29 86.3691 61.3001 86.1263C61.3102 85.8834 61.2718 85.641 61.1872 85.4132C61.1025 85.1853 60.9733 84.9767 60.8071 84.7993C60.6409 84.622 60.441 84.4796 60.2191 84.3804C58.8855 83.7638 57.5029 83.2591 56.0857 82.8715C57.1099 82.4052 58.1067 81.9571 59.0851 81.4816L59.9082 81.0975C60.9232 80.7957 66.2454 79.5246 73.2044 83.6305C73.412 83.7737 73.6471 83.8723 73.8947 83.9203C74.1423 83.9682 74.3971 83.9644 74.6432 83.9092C74.8893 83.8539 75.1213 83.7483 75.3246 83.5991C75.5279 83.4498 75.6981 83.2602 75.8246 83.042C75.9511 82.8238 76.0311 82.5818 76.0596 82.3312C76.0881 82.0806 76.0644 81.8268 75.9901 81.5858C75.9158 81.3448 75.7924 81.1217 75.6277 80.9307C75.4631 80.7397 75.2607 80.5847 75.0333 80.4757C72.9872 79.2584 70.78 78.3349 68.4766 77.7323C73.3784 76.3582 78.4733 75.802 83.5561 76.0863H85.2844C85.7694 76.0863 86.2346 75.8936 86.5776 75.5506C86.9206 75.2076 87.1133 74.7424 87.1133 74.2573C87.1133 73.7723 86.9206 73.3071 86.5776 72.9641C86.2346 72.6211 85.7694 72.4284 85.2844 72.4284H83.6292C76.1151 71.9966 68.6031 73.3112 61.6822 76.2691C60.6763 76.6989 59.6247 77.1836 58.5456 77.6866H58.4359C58.311 77.7314 58.1915 77.7896 58.0792 77.8603L57.4848 78.1346C54.3349 79.7725 51.0488 81.1341 47.6635 82.204H47.5812C45.9399 82.677 44.228 82.8566 42.5243 82.7344C44.6093 77.7323 49.4833 75.629 53.4978 75.3455C53.738 75.3287 53.9725 75.2648 54.1879 75.1573C54.4034 75.0499 54.5956 74.9011 54.7535 74.7193C54.9115 74.5376 55.0321 74.3266 55.1085 74.0982C55.1848 73.8699 55.2155 73.6288 55.1987 73.3886C55.1819 73.1484 55.1179 72.9139 55.0105 72.6985C54.903 72.483 54.7542 72.2908 54.5725 72.1329C54.3908 71.9749 54.1797 71.8543 53.9514 71.7779C53.7231 71.7016 53.4819 71.6709 53.2417 71.6877C50.1936 71.8311 47.2472 72.829 44.7392 74.5673C42.2312 76.3056 40.2627 78.7143 39.0585 81.5181C38.5247 81.1648 38.039 80.7437 37.6136 80.2653C34.98 77.3116 34.4039 72.0352 33.8369 67.0148C33.4254 63.3021 32.9956 59.4522 31.7245 56.398C30.8832 54.377 29.7127 52.036 28.4691 49.5578C26.3475 45.3239 23.8968 40.5321 23.1103 36.984C23.0012 36.5111 22.7087 36.1009 22.2971 35.8436C21.8855 35.5864 21.3886 35.5032 20.9156 35.6123C20.4427 35.7214 20.0325 36.014 19.7752 36.4256C19.518 36.8372 19.4348 37.3341 19.5439 37.807C20.4218 41.3642 22.3971 45.5708 24.4729 49.7407Z" fill="#B6C5D7"/>
<path d="M42.5788 57.9442C42.8016 58.0445 43.0424 58.0992 43.2868 58.1049C43.5312 58.1107 43.7742 58.0674 44.0016 57.9776C44.2289 57.8878 44.436 57.7533 44.6105 57.5821C44.785 57.4109 44.9234 57.2065 45.0175 56.9809C45.1117 56.7553 45.1596 56.5132 45.1586 56.2687C45.1575 56.0243 45.1075 55.7825 45.0114 55.5578C44.9154 55.333 44.7752 55.1297 44.5993 54.9601C44.4233 54.7904 44.2151 54.6577 43.987 54.5698C35.8026 51.1132 32.3094 37.5517 32.2545 37.3963C32.1333 36.9258 31.83 36.5227 31.4116 36.2758C30.9932 36.0288 30.4937 35.9582 30.0232 36.0795C29.5527 36.2007 29.1497 36.5039 28.9027 36.9224C28.6558 37.3408 28.5852 37.8402 28.7064 38.3107C28.8619 38.9326 32.7026 53.8565 42.5788 57.9442Z" fill="#B6C5D7"/>
<path d="M92.6639 75.8024C93.674 75.8024 94.4928 74.9835 94.4928 73.9734C94.4928 72.9634 93.674 72.1445 92.6639 72.1445C91.6538 72.1445 90.835 72.9634 90.835 73.9734C90.835 74.9835 91.6538 75.8024 92.6639 75.8024Z" fill="#B6C5D7"/>
<path d="M31.3948 20.9352C32.4049 20.9352 33.2238 20.1163 33.2238 19.1063C33.2238 18.0962 32.4049 17.2773 31.3948 17.2773C30.3848 17.2773 29.5659 18.0962 29.5659 19.1063C29.5659 20.1163 30.3848 20.9352 31.3948 20.9352Z" fill="#B6C5D7"/>
</svg>
