<svg width="121" height="121" viewBox="0 0 121 121" fill="none" xmlns="http://www.w3.org/2000/svg">
<path d="M61.0073 7C31.206 7 7 31.1915 7 60.9927C7 90.794 31.206 115 61.0073 115C90.8085 115 115 90.794 115 60.9927C115 31.1915 90.8085 7 61.0073 7ZM61.0073 10.7241C88.7958 10.7241 111.272 33.2041 111.272 60.9927C111.272 88.7813 88.7958 111.272 61.0073 111.272C33.2187 111.272 10.7241 88.7813 10.7241 60.9927C10.7241 33.2041 33.2187 10.7241 61.0073 10.7241ZM34.3637 38.6624C34.0358 38.6665 33.7148 38.7571 33.4332 38.9251C33.1516 39.093 32.9193 39.3324 32.7598 39.6189C32.5205 40.0489 32.4612 40.5562 32.5948 41.0298C32.7283 41.5034 33.044 41.9049 33.4727 42.1465L46.9981 49.7621L33.4727 57.3631C33.044 57.6048 32.7283 58.0062 32.5948 58.4799C32.4612 58.9535 32.5205 59.4607 32.7598 59.8907C32.8792 60.1052 33.0397 60.294 33.2323 60.4462C33.4249 60.5985 33.6456 60.7111 33.8819 60.7777C34.1182 60.8443 34.3652 60.8635 34.609 60.8342C34.8527 60.805 35.0882 60.7278 35.302 60.6072L51.7151 51.3841C52.0026 51.222 52.2418 50.9863 52.4083 50.7013C52.5748 50.4163 52.6625 50.0922 52.6625 49.7621C52.6625 49.432 52.5748 49.1079 52.4083 48.8229C52.2418 48.5379 52.0026 48.3022 51.7151 48.1401L35.302 38.9025C35.0159 38.7411 34.6921 38.6583 34.3637 38.6624ZM87.6436 38.6661C87.3167 38.6615 86.9943 38.743 86.7089 38.9025L70.2994 48.1401C70.0119 48.3022 69.7727 48.5379 69.6062 48.8229C69.4398 49.1079 69.352 49.432 69.352 49.7621C69.352 50.0922 69.4398 50.4163 69.6062 50.7013C69.7727 50.9863 70.0119 51.222 70.2994 51.3842L86.7089 60.6072C87.1397 60.8474 87.6481 60.9068 88.1227 60.7725C88.5972 60.6381 88.9991 60.321 89.2402 59.8907C89.4803 59.4621 89.5413 58.9558 89.4098 58.4824C89.2783 58.0089 88.965 57.6066 88.5382 57.3631L75.0128 49.7621L88.5382 42.1465C88.965 41.9031 89.2783 41.5008 89.4098 41.0273C89.5413 40.5539 89.4803 40.0476 89.2402 39.6189C89.0809 39.3341 88.8495 39.0962 88.5693 38.929C88.2891 38.7617 87.9699 38.6711 87.6436 38.6661ZM61.0073 65.9534C48.2811 65.9531 37.913 76.2348 37.9132 88.8946C37.9114 89.3885 38.1057 89.8628 38.4535 90.2134C38.8014 90.564 39.2742 90.762 39.768 90.764H82.2428C82.7367 90.762 83.2095 90.564 83.5574 90.2134C83.9052 89.8628 84.0995 89.3885 84.0976 88.8946C84.0979 76.2348 73.7334 65.9531 61.0073 65.9534ZM61.0073 69.6775C71.0028 69.6773 78.5324 77.4197 79.6025 87.0398H42.4084C43.4785 77.4197 51.0117 69.6773 61.0073 69.6775Z" fill="#B6C5D7"/>
</svg>
