<svg width="121" height="121" viewBox="0 0 121 121" fill="none" xmlns="http://www.w3.org/2000/svg">
<path fill-rule="evenodd" clip-rule="evenodd" d="M49.2191 35.2746C49.2191 31.5984 52.1993 28.6182 55.8754 28.6182H65.1248C68.8009 28.6182 71.781 31.5983 71.781 35.2746V47.4665C71.781 48.4339 72.5653 49.2182 73.5325 49.2182H85.7248C89.4009 49.2182 92.381 52.1983 92.381 55.8744V65.1238C92.381 68.7999 89.4009 71.7801 85.7248 71.7801H73.5325C72.5653 71.7801 71.781 72.5643 71.781 73.5316V85.7238C71.781 89.3999 68.8009 92.3801 65.1248 92.3801H55.8754C52.1993 92.3801 49.2191 89.3999 49.2191 85.7238V73.5316C49.2191 72.5643 48.4349 71.7801 47.4675 71.7801H35.2756C31.5993 71.7801 28.6191 68.7999 28.6191 65.1238V55.8744C28.6191 52.1983 31.5993 49.2182 35.2756 49.2182H47.4675C48.4349 49.2182 49.2191 48.4339 49.2191 47.4665V35.2746ZM55.8754 33.5229C54.9082 33.5229 54.1239 34.3072 54.1239 35.2746V47.4665C54.1239 51.1428 51.1438 54.1229 47.4675 54.1229H35.2756C34.3082 54.1229 33.5239 54.9072 33.5239 55.8744V65.1238C33.5239 66.091 34.3082 66.8753 35.2756 66.8753H47.4675C51.1438 66.8753 54.1239 69.8554 54.1239 73.5316V85.7238C54.1239 86.691 54.9082 87.4753 55.8754 87.4753H65.1248C66.092 87.4753 66.8763 86.691 66.8763 85.7238V73.5316C66.8763 69.8554 69.8564 66.8753 73.5325 66.8753H85.7248C86.692 66.8753 87.4763 66.091 87.4763 65.1238V55.8744C87.4763 54.9072 86.692 54.1229 85.7248 54.1229H73.5325C69.8564 54.1229 66.8763 51.1428 66.8763 47.4665V35.2746C66.8763 34.3072 66.092 33.5229 65.1248 33.5229H55.8754Z" fill="#B6C5D7"/>
<path fill-rule="evenodd" clip-rule="evenodd" d="M60.5 13.9048C73.8974 13.9048 85.9744 19.5571 94.4772 28.6142H82.5714V33.519H99.7381C101.092 33.519 102.19 32.4211 102.19 31.0666V13.9048H97.2857V24.4577C87.9407 14.9215 74.9117 9 60.5 9C32.0573 9 9 32.0573 9 60.5C9 66.837 10.1457 72.9115 12.2432 78.525L13.1017 80.8224L17.6961 79.1052L16.8377 76.8083C14.9422 71.7358 13.9048 66.242 13.9048 60.5C13.9048 34.7661 34.7661 13.9048 60.5 13.9048ZM103.304 41.8945L104.162 44.1918C106.058 49.2643 107.095 54.758 107.095 60.5C107.095 86.2338 86.2338 107.095 60.5 107.095C47.1024 107.095 35.0256 101.443 26.5229 92.3859H38.4286V87.4811H21.2619C19.9075 87.4811 18.8095 88.5788 18.8095 89.9335V107.095H23.7143V96.5422C33.0593 106.078 46.0884 112 60.5 112C88.9427 112 112 88.9427 112 60.5C112 54.163 110.854 48.0883 108.757 42.4749L107.898 40.1777L103.304 41.8945Z" fill="#B6C5D7"/>
</svg>
