<svg width="121" height="152" viewBox="0 0 121 152" fill="none" xmlns="http://www.w3.org/2000/svg">
<path d="M86.9953 5.38672C86.9688 5.49502 85.15 16.097 78.2719 21.2802C74.0389 24.092 69.6457 26.6525 65.1151 28.9486C54.5824 34.6486 41.4728 41.7603 36.336 48.2127C32.5793 52.9304 29.0854 63.4982 25.3836 74.6854C21.729 85.732 17.5904 98.2454 14.0606 101.025L4.69824 106.672L6.64559 109.929L15.5032 104.59L22.4342 105.747L19.0311 115.256L22.5854 116.544L26.7316 104.998C28.7961 100.993 40.2439 94.5651 50.3531 88.8898C60.5946 83.1385 70.267 77.7083 74.1749 73.1198C79.5197 66.8498 84.0062 52.5675 87.6116 41.0991C89.0068 36.1959 90.686 31.3787 92.6407 26.6724C96.5486 18.6449 108.798 9.20572 108.921 9.11072L106.629 6.08972C101.076 10.3859 96.0769 15.3611 91.7483 20.9002H84.061C87.4155 16.5334 89.6981 11.4332 90.7236 6.01372L86.9953 5.38672ZM89.2375 25.0023C87.1944 29.8746 85.4449 34.8661 83.9986 39.9496C80.4972 51.0912 76.1393 64.9536 71.2955 70.646C67.8262 74.7215 58.0025 80.2372 48.5021 85.5724C37.7426 91.6125 27.5502 97.3524 24.0601 102.167L18.7834 101.285C22.2867 96.0984 25.5537 86.226 28.9758 75.8824C32.4091 65.5065 35.9597 54.7753 39.2929 50.5877C43.9476 44.7376 56.6867 37.8387 66.9149 32.2945C71.4064 29.9883 75.777 27.4516 80.0094 24.6945H89.4001C89.3472 24.8009 89.2829 24.9016 89.2375 25.0023Z" fill="#B6C5D7"/>
<path d="M59.063 41.62C54.7741 45.2538 50.9266 49.3831 47.6001 53.9225L50.7102 56.0847C53.8596 51.817 57.4876 47.928 61.5227 44.4947C67.1567 39.644 81.9641 32.1656 82.1116 32.0896L80.4195 28.6924C79.7937 29.0154 65.0487 36.4653 59.063 41.62Z" fill="#B6C5D7"/>
<path d="M64.7196 61.4842C58.0413 69.1376 50.5517 76.0355 42.3838 82.0555L44.5826 85.1468C53.025 78.9535 60.7532 71.8325 67.6236 63.9162C73.9312 55.7997 78.5595 46.4972 81.2361 36.5562L77.5683 35.6328C77.5343 35.7867 73.7908 50.5402 64.7196 61.4842Z" fill="#B6C5D7"/>
<path d="M43.4844 55.1001L42.1477 53.7568C41.9794 53.9259 37.9751 58.0622 34.105 71.6776L37.7388 72.7226C41.2799 60.2681 44.8002 56.4643 44.8362 56.4282L43.4844 55.1001Z" fill="#B6C5D7"/>
<path d="M50.7772 61.428L43.9697 69.0283L46.7801 71.5706L53.5876 63.9702L50.7772 61.428Z" fill="#B6C5D7"/>
<path d="M32.1408 87.1815L35.7784 78.6486L32.3034 77.1514L26.6316 90.4514C26.4775 90.8085 26.4363 91.2046 26.5136 91.586C26.5908 91.9674 26.7828 92.3158 27.0635 92.584C27.3442 92.8522 27.7001 93.0273 28.083 93.0856C28.466 93.1439 28.8575 93.0826 29.2047 92.91L36.7672 89.11L35.077 85.709L32.1408 87.1815Z" fill="#B6C5D7"/>
<path d="M66.7275 44.2556L61.0552 49.9561L63.7289 52.6431L69.4013 46.9426L66.7275 44.2556Z" fill="#B6C5D7"/>
<path d="M113.437 64.6V49.4C113.437 48.8961 113.238 48.4128 112.884 48.0565C112.529 47.7002 112.048 47.5 111.547 47.5H96.4216V51.3H106.983L89.4131 68.9567L92.0864 71.6433L109.656 53.9866V64.6H113.437Z" fill="#B6C5D7"/>
<path d="M68.6165 89.8564L51.0469 107.513V96.8997H47.2656V112.1C47.2656 112.604 47.4648 113.087 47.8194 113.443C48.1739 113.8 48.6548 114 49.1562 114H64.2812V110.2H53.7202L71.2898 92.543L68.6165 89.8564Z" fill="#B6C5D7"/>
</svg>
