<svg width="154" height="154" viewBox="0 0 154 154" fill="none" xmlns="http://www.w3.org/2000/svg">
<path d="M89.0885 82.2952C85.5534 84.3269 81.549 85.4005 77.4716 85.4098C73.3942 85.4191 69.3849 84.3637 65.8405 82.3481C65.4384 82.1143 64.9613 82.0451 64.5093 82.1549C64.0572 82.2647 63.6651 82.5451 63.415 82.9373C63.1649 83.3296 63.0761 83.8034 63.1673 84.2596C63.2584 84.7158 63.5224 85.119 63.9041 85.3851C67.9945 87.7628 72.6397 89.0197 77.371 89.029C82.1023 89.0383 86.7524 87.7996 90.8522 85.438C91.0645 85.3254 91.2522 85.1715 91.4042 84.9854C91.5563 84.7992 91.6695 84.5845 91.7373 84.3539C91.8051 84.1234 91.8261 83.8815 91.7991 83.6427C91.7721 83.4039 91.6976 83.1729 91.58 82.9633C91.4623 82.7537 91.304 82.5698 91.1142 82.4223C90.9245 82.2748 90.7071 82.1667 90.475 82.1045C90.2428 82.0422 90.0006 82.027 89.7625 82.0598C89.5244 82.0925 89.2953 82.1726 89.0885 82.2952Z" fill="#0C54A0"/>
<path d="M89.2083 55.7456C87.0756 55.7481 84.996 56.4115 83.2558 57.6445C81.5156 58.8775 80.2003 60.6195 79.4908 62.6308C78.1265 62.4244 76.7371 62.4506 75.3816 62.7084C74.5465 60.271 72.8288 58.2347 70.5669 57.0008C68.305 55.767 65.663 55.4251 63.1615 56.0425C60.6601 56.6599 58.4806 58.1919 57.0526 60.3365C55.6245 62.4811 55.0516 65.0828 55.4466 67.6288C55.8416 70.1749 57.1759 72.4807 59.1865 74.0918C61.1972 75.7029 63.7384 76.5025 66.3094 76.333C68.8803 76.1635 71.2945 75.0372 73.0763 73.1761C74.858 71.3149 75.878 68.8539 75.9353 66.278C76.914 66.0781 77.9197 66.047 78.9088 66.1863C78.9359 68.2181 79.5633 70.1965 80.7119 71.8727C81.8605 73.5489 83.4792 74.8481 85.3642 75.6067C87.2493 76.3654 89.3166 76.5497 91.3062 76.1364C93.2957 75.7232 95.1186 74.7309 96.5457 73.2843C97.9727 71.8377 98.9401 70.0015 99.3263 68.0065C99.7124 66.0115 99.5 63.9469 98.7157 62.0723C97.9315 60.1978 96.6105 58.5969 94.9188 57.4712C93.2271 56.3455 91.2403 55.7451 89.2083 55.7456ZM65.6358 72.7504C64.3103 72.7504 63.0146 72.3574 61.9125 71.621C60.8104 70.8846 59.9515 69.8379 59.4442 68.6133C58.937 67.3888 58.8043 66.0413 59.0628 64.7413C59.3214 63.4412 59.9597 62.2471 60.897 61.3099C61.8342 60.3726 63.0284 59.7343 64.3284 59.4757C65.6284 59.2171 66.9759 59.3499 68.2005 59.8571C69.4251 60.3643 70.4717 61.2233 71.2081 62.3254C71.9445 63.4275 72.3376 64.7232 72.3376 66.0487C72.3376 66.9288 72.1642 67.8003 71.8274 68.6133C71.4906 69.4264 70.997 70.1652 70.3747 70.7875C69.7524 71.4099 69.0136 71.9035 68.2005 72.2403C67.3874 72.5771 66.5159 72.7504 65.6358 72.7504ZM89.2083 72.7504C87.8828 72.7504 86.5871 72.3574 85.485 71.621C84.3829 70.8846 83.524 69.8379 83.0167 68.6133C82.5095 67.3888 82.3768 66.0413 82.6353 64.7413C82.8939 63.4412 83.5322 62.2471 84.4695 61.3099C85.4067 60.3726 86.6009 59.7343 87.9009 59.4757C89.2009 59.2171 90.5484 59.3499 91.773 59.8571C92.9976 60.3643 94.0442 61.2233 94.7806 62.3254C95.517 63.4275 95.9101 64.7232 95.9101 66.0487C95.9101 67.8261 95.204 69.5307 93.9472 70.7875C92.6903 72.0444 90.9857 72.7504 89.2083 72.7504Z" fill="#0C54A0"/>
<path d="M135.351 96.5695C135.024 96.2826 134.615 96.1061 134.182 96.065C133.749 96.0238 133.314 96.1201 132.939 96.3402C131.697 96.968 128.202 96.2414 125.637 95.4161L123.059 43.4035C122.67 35.7357 120.366 28.2876 116.357 21.7392L116.213 21.4994C113.335 16.799 109.631 12.6583 105.278 9.27749C99.8392 5.04481 93.1269 2.09604 85.7374 0.748639C80.228 -0.256609 74.5815 -0.249438 69.0747 0.769801C61.8121 2.09604 55.0963 5.03775 49.6749 9.27749C45.3289 12.6599 41.6304 16.8005 38.7581 21.4994L38.61 21.7392C34.6093 28.2898 32.3115 35.7375 31.9259 43.4035L29.3686 95.4337C26.8079 96.2591 23.3124 96.9857 22.0673 96.3578C21.6922 96.1372 21.257 96.0406 20.8238 96.0818C20.3906 96.1229 19.9815 96.2998 19.6546 96.5871C19.2525 96.9398 18.6635 97.7863 19.242 99.2925C20.4165 102.361 28.3281 112.1 41.9609 114.886L38.744 116.191C35.3065 117.575 32.3626 119.957 30.2927 123.03C28.2228 126.104 27.122 129.727 27.1324 133.433V142.522C27.1324 143 27.3223 143.459 27.6603 143.797C27.9983 144.135 28.4568 144.325 28.9348 144.325C29.4128 144.325 29.8713 144.135 30.2093 143.797C30.5473 143.459 30.7372 143 30.7372 142.522V133.415C30.7305 130.426 31.6207 127.503 33.2927 125.025C34.9647 122.547 37.3416 120.627 40.1161 119.514L49.9924 115.493L50.0488 115.468L54.0346 113.849L57.9604 125.457L63.9179 143.076C64.0388 143.433 64.2685 143.743 64.5748 143.962C64.881 144.182 65.2483 144.3 65.6251 144.3C65.8218 144.3 66.0171 144.267 66.2035 144.205C66.428 144.129 66.6354 144.01 66.8137 143.854C66.992 143.698 67.1378 143.509 67.2426 143.296C67.3475 143.084 67.4094 142.853 67.4248 142.617C67.4402 142.38 67.4087 142.143 67.3323 141.919L62.7821 128.459C67.2535 130.241 72.025 131.148 76.8382 131.133C82.0759 131.105 87.2631 130.105 92.1358 128.184L87.4904 141.919C87.337 142.372 87.3697 142.867 87.5814 143.296C87.7931 143.724 88.1663 144.051 88.6191 144.205C89.0719 144.358 89.5671 144.325 89.9957 144.114C90.4243 143.902 90.7513 143.529 90.9048 143.076L96.8411 125.517V125.5L100.785 113.86L114.731 119.504C117.502 120.619 119.875 122.54 121.543 125.018C123.211 127.496 124.098 130.417 124.089 133.404V142.494C124.089 142.972 124.279 143.431 124.617 143.769C124.955 144.107 125.413 144.296 125.891 144.296C126.369 144.296 126.828 144.107 127.166 143.769C127.504 143.431 127.694 142.972 127.694 142.494V133.415C127.704 129.71 126.603 126.087 124.534 123.014C122.465 119.941 119.522 117.558 116.086 116.174L112.911 114.89C126.611 112.135 134.561 102.351 135.739 99.2748C136.346 97.7687 135.757 96.9328 135.351 96.5695ZM93.6877 123.623C76.6618 131.531 63.8897 125.264 61.1843 123.722L57.3996 112.491L66.3235 108.869C67.6485 108.261 68.7714 107.286 69.5591 106.06C70.3468 104.833 70.7663 103.406 70.7678 101.948V99.0808C75.166 99.9744 79.699 99.9744 84.0972 99.0808V101.948C84.103 103.419 84.5322 104.856 85.3335 106.089C86.1348 107.322 87.2742 108.298 88.6156 108.901L97.4654 112.495L93.6877 123.623ZM85.8679 94.9187C85.5496 94.9212 85.2378 95.0089 84.9649 95.1727C80.0188 96.4706 74.8215 96.4706 69.8754 95.1727C69.6012 95.0089 69.2883 94.9212 68.9689 94.9187C62.858 93.088 57.4996 89.3372 53.6876 84.2222C49.8757 79.1072 47.8131 72.9002 47.8055 66.521V51.6678C56.3767 53.4808 86.7567 58.1367 107.063 38.6664V66.5315C107.051 72.9124 104.983 79.1194 101.166 84.2326C97.3486 89.3459 91.9855 93.093 85.8714 94.9187H85.8679ZM105.846 112.012L90.03 105.592C89.3327 105.272 88.7418 104.758 88.3274 104.113C87.9129 103.467 87.6922 102.716 87.6915 101.948V98.125C94.3644 95.9501 100.179 91.7215 104.304 86.0435C108.43 80.3655 110.654 73.5288 110.661 66.5104V34.1515C110.665 33.7811 110.554 33.4184 110.344 33.1132C110.134 32.8079 109.835 32.5749 109.488 32.446C109.141 32.3171 108.762 32.2986 108.404 32.393C108.045 32.4874 107.725 32.6901 107.486 32.9734C85.9702 57.8404 46.8461 47.7596 46.4651 47.6573C46.1983 47.586 45.9187 47.5769 45.6478 47.6308C45.3769 47.6847 45.122 47.8001 44.9029 47.9682C44.6837 48.1362 44.506 48.3524 44.3837 48.6C44.2613 48.8476 44.1975 49.12 44.1971 49.3962V66.5104C44.206 73.5264 46.4315 80.3602 50.556 86.0359C54.6804 91.7117 60.4927 95.939 67.163 98.1144V101.938C67.1647 102.693 66.9522 103.433 66.5501 104.073C66.148 104.712 65.5729 105.224 64.8914 105.55L49.0048 112.012C35.7953 111.835 27.1571 104.252 23.9614 100.157C27.1888 100.051 30.8254 98.7458 31.7495 98.393C32.0788 98.2706 32.3648 98.0543 32.5724 97.771C32.7799 97.4876 32.8997 97.1495 32.917 96.7987L35.5307 43.5834C35.8858 36.5197 38.0043 29.6574 41.6928 23.6227L41.8409 23.3794C44.4896 19.0486 47.9015 15.2339 51.9112 12.1204C56.8917 8.24048 63.0643 5.53862 69.9001 4.29351C74.9805 3.36702 80.1873 3.37538 85.2647 4.3182C91.9665 5.53862 98.1321 8.23696 103.113 12.1204C107.117 15.2374 110.525 19.053 113.172 23.3829L113.317 23.6192C117.005 29.6553 119.123 36.5186 119.479 43.5834L122.117 96.8093C122.133 97.16 122.252 97.4981 122.459 97.7816C122.666 98.0651 122.952 98.2814 123.281 98.4036C124.205 98.7563 127.842 100.047 131.069 100.167C127.838 104.252 119.147 111.895 105.846 112.012Z" fill="#0C54A0"/>
<path d="M109.723 133.176H102.869C102.391 133.176 101.933 133.366 101.595 133.704C101.257 134.042 101.067 134.5 101.067 134.978C101.067 135.456 101.257 135.915 101.595 136.253C101.933 136.591 102.391 136.781 102.869 136.781H109.723C110.201 136.781 110.659 136.591 110.997 136.253C111.335 135.915 111.525 135.456 111.525 134.978C111.525 134.5 111.335 134.042 110.997 133.704C110.659 133.366 110.201 133.176 109.723 133.176Z" fill="#0C54A0"/>
</svg>
